<svg width="668" height="600" viewBox="0 0 668 600" fill="none" xmlns="http://www.w3.org/2000/svg">
<g opacity="0.76" mask="url(#gridFadeMask1514_9701)">
<path d="M789.607 435.319V434.634L787.001 433.062L789.607 431.491V430.806L786.43 432.714L740.604 405.141L786.721 377.389L789.607 379.129V378.444L787.292 377.052L789.607 375.66V374.975L786.721 376.715L740.895 349.142L786.721 321.569L789.607 323.309V322.624L787.292 321.232L789.607 319.84V319.155L786.721 320.896L741.24 293.525L786.721 266.154L789.607 267.894V267.209L787.292 265.817L789.607 264.425V263.74L786.721 265.48L740.895 237.907L786.721 210.334L789.607 212.074V211.389L787.292 209.997L789.607 208.605V207.92L786.721 209.66L740.895 182.087L786.721 154.514L789.607 156.255V155.57L787.292 154.178L789.607 152.785V152.101L786.721 153.841L741.294 126.504L789.607 97.4374V96.7525L740.723 126.167L694.898 98.5937L789.607 41.6065V40.9217L694.337 98.2457L648.512 70.6727L765.962 0H764.82L647.941 70.3359L602.116 42.7629L673.17 0.0112206H672.028L601.545 42.4261L555.429 14.6734L579.796 0.0112206H578.654L554.858 14.3366L531.062 0.0112206H529.92L554.287 14.6734L508.462 42.2464L462.637 14.6734L487.004 0.0112206H485.862L462.066 14.3366L438.27 0.0112206H437.128L461.495 14.6734L415.67 42.2464L370.189 14.8755L394.901 0.0112206H393.759L369.618 14.5387L345.477 0.0112206H344.336L369.047 14.8755L323.567 42.2464L277.741 14.6734L302.108 0.0112206H300.966L277.171 14.3366L253.375 0.0112206H252.233L276.6 14.6734L230.774 42.2464L160.582 0.0112206H159.44L230.203 42.5945L184.087 70.3471L67.2082 0.0112206H66.0663L183.516 70.6839L137.691 98.2569L0.0107725 15.347V16.0319L137.12 98.5376L91.295 126.111L0.0107725 71.1779V71.8627L90.7241 126.447L44.8988 154.02L0.0107725 127.009V127.694L44.3279 154.357L0.0107725 181.021V181.706L44.8988 154.694L90.7241 182.267L45.2974 209.604L0.0107725 182.346V183.03L44.7265 209.941L0.0107725 236.852V237.537L45.2974 210.289L90.7779 237.66L44.9527 265.233L0 238.188V238.873L44.3818 265.581L0 292.29V292.975L44.9527 265.929L90.7779 293.502L44.9527 321.075L0 294.03V294.715L44.3818 321.423L0 348.132V348.817L44.9527 321.771L91.0688 349.524L45.5882 376.895L0.0107725 349.468V350.153L45.0173 377.232L0.0107725 404.311V404.996L45.5882 377.568L91.4135 405.141L45.5882 432.714L0.0107725 405.287V405.972L45.0173 433.051L0.0107725 460.13V460.815L45.5882 433.388L91.4135 460.961L45.5882 488.534L0.0107725 461.107V461.792L45.0281 488.882L0.0107725 515.961V516.646L45.5882 489.219L91.4135 516.792L0.0107725 571.792V572.477L91.9844 517.129L137.4 544.466L46.2346 599.32H47.3764L137.971 544.803L183.796 572.376L139.027 599.32H140.169L184.367 572.724L228.566 599.32H229.708L184.938 572.376L230.764 544.803L276.589 572.376L231.819 599.32H232.961L277.16 572.724L321.358 599.32H322.5L277.731 572.376L323.556 544.803L369.036 572.174L323.922 599.32H325.064L369.607 572.511L414.151 599.32H415.293L370.178 572.174L415.659 544.803L461.484 572.376L416.715 599.32H417.856L462.055 572.724L506.254 599.32H507.396L462.626 572.376L508.451 544.803L554.276 572.376L509.507 599.32H510.649L554.858 572.724L599.057 599.32H600.199L555.429 572.376L601.254 544.803L691.849 599.32H692.991L601.825 544.466L647.241 517.129L783.834 599.32H784.975L647.812 516.792L693.637 489.219L789.607 546.97V546.285L694.208 488.882L740.034 461.309L789.607 491.139V490.454L740.604 460.972L786.43 433.399L789.607 435.308V435.319ZM786.15 377.063L740.034 404.816L694.208 377.243L740.324 349.49L786.15 377.063ZM322.651 321.85L277.224 349.187L231.399 321.614L276.826 294.277L322.651 321.85ZM231.001 266.008L276.826 238.435L322.651 266.008L276.826 293.581L231.001 266.008ZM277.397 293.929L323.222 266.356L369.047 293.929L323.222 321.502L277.397 293.929ZM323.793 266.008L369.618 238.435L415.443 266.008L369.618 293.581L323.793 266.008ZM369.618 294.277L415.443 321.85L369.618 349.423L323.793 321.85L369.618 294.277ZM370.189 293.929L416.014 266.356L461.84 293.929L416.014 321.502L370.189 293.929ZM416.585 266.008L462.41 238.435L508.236 266.008L462.41 293.581L416.585 266.008ZM462.41 294.277L507.837 321.614L462.012 349.187L416.585 321.85L462.41 294.277ZM462.981 293.929L508.807 266.356L554.233 293.693L508.408 321.266L462.981 293.929ZM509.367 266.008L555.483 238.255L600.91 265.592L554.794 293.345L509.367 266.008ZM554.794 294.03L600.619 321.603L554.794 349.176L508.968 321.603L554.794 294.03ZM555.364 293.693L601.481 265.94L647.306 293.513L601.19 321.266L555.364 293.693ZM556.054 237.918L601.879 210.345L647.306 237.683L601.481 265.256L556.054 237.918ZM555.483 237.581L509.658 210.008L555.483 182.435L601.308 210.008L555.483 237.581ZM554.923 237.918L508.807 265.671L462.981 238.098L509.098 210.345L554.923 237.918ZM462.41 237.75L416.585 210.177L462.701 182.424L508.527 209.997L462.41 237.75ZM461.84 238.098L416.014 265.671L370.189 238.098L416.014 210.525L461.84 238.098ZM369.618 237.75L323.793 210.177L369.618 182.604L415.443 210.177L369.618 237.75ZM369.047 238.098L323.222 265.671L277.397 238.098L323.222 210.525L369.047 238.098ZM276.826 237.75L230.71 209.997L276.535 182.424L322.651 210.177L276.826 237.75ZM276.255 238.098L230.43 265.671L184.314 237.918L230.139 210.345L276.255 238.098ZM230.43 266.356L276.255 293.929L230.828 321.266L185.003 293.693L230.43 266.356ZM230.839 321.951L276.664 349.524L230.839 377.097L185.014 349.524L230.839 321.951ZM277.224 349.861L323.05 377.434L277.224 405.007L231.399 377.434L277.224 349.861ZM277.795 349.524L323.222 322.187L369.047 349.76L323.621 377.097L277.795 349.524ZM369.618 350.108L415.045 377.445L369.618 404.782L324.191 377.445L369.618 350.108ZM370.189 349.76L416.014 322.187L461.441 349.524L415.616 377.097L370.189 349.76ZM462.001 349.861L507.826 377.434L462.001 405.007L416.176 377.434L462.001 349.861ZM462.572 349.524L508.397 321.951L554.223 349.524L508.397 377.097L462.572 349.524ZM554.794 349.861L600.619 377.434L554.794 405.007L508.968 377.434L554.794 349.861ZM555.364 349.524L601.19 321.951L647.015 349.524L601.19 377.097L555.364 349.524ZM601.761 321.603L647.877 293.85L693.702 321.423L647.586 349.176L601.761 321.603ZM602.051 265.592L647.877 238.019L693.702 265.592L647.877 293.165L602.051 265.592ZM602.45 210.008L647.931 182.638L693.357 209.975L647.877 237.346L602.45 210.008ZM601.879 209.66L556.054 182.087L601.534 154.716L647.36 182.29L601.879 209.66ZM555.494 181.739L509.668 154.166L555.149 126.795L600.974 154.368L555.494 181.739ZM554.923 182.087L509.098 209.66L463.272 182.087L509.098 154.514L554.923 182.087ZM462.701 181.739L416.876 154.166L462.701 126.593L508.527 154.166L462.701 181.739ZM462.13 182.087L416.014 209.84L370.189 182.267L416.305 154.514L462.13 182.087ZM369.618 181.919L323.502 154.166L369.618 126.414L415.734 154.166L369.618 181.919ZM369.047 182.256L323.222 209.829L277.106 182.076L322.931 154.503L369.047 182.256ZM276.535 181.739L230.71 154.166L276.535 126.593L322.36 154.166L276.535 181.739ZM275.964 182.087L230.139 209.66L184.314 182.087L230.139 154.514L275.964 182.087ZM229.568 210.008L183.743 237.581L137.917 210.008L183.743 182.435L229.568 210.008ZM229.859 266.008L184.432 293.345L138.316 265.592L183.743 238.255L229.859 266.008ZM230.268 321.603L184.443 349.176L138.618 321.603L184.443 294.03L230.268 321.603ZM184.443 349.861L230.268 377.434L184.443 405.007L138.618 377.434L184.443 349.861ZM230.268 433.276L184.788 460.647L138.962 433.074L184.443 405.703L230.268 433.276ZM185.014 405.355L230.839 377.782L276.664 405.355L230.839 432.928L185.014 405.355ZM277.224 405.703L322.64 433.04L276.815 460.613L231.388 433.276L277.214 405.703H277.224ZM277.795 405.355L323.621 377.782L369.047 405.119L323.222 432.692L277.795 405.355ZM369.618 405.456L415.443 433.029L369.618 460.602L323.793 433.029L369.618 405.456ZM370.189 405.119L415.616 377.782L461.441 405.355L416.014 432.692L370.189 405.119ZM462.001 405.703L507.826 433.276L462.4 460.613L416.574 433.04L462.001 405.703ZM462.572 405.355L508.397 377.782L554.223 405.355L508.397 432.928L462.572 405.355ZM554.794 405.703L600.274 433.074L554.449 460.647L508.968 433.276L554.794 405.703ZM555.364 405.355L601.19 377.782L646.67 405.153L600.845 432.726L555.364 405.355ZM601.761 377.445L647.586 349.872L693.066 377.243L647.241 404.816L601.761 377.445ZM648.157 349.524L694.273 321.771L739.753 349.142L693.637 376.895L648.157 349.524ZM648.448 293.513L694.273 265.94L740.098 293.513L694.273 321.086L648.448 293.513ZM648.448 237.683L693.928 210.312L739.753 237.885L694.273 265.256L648.448 237.683ZM648.502 182.29L694.327 154.716L739.753 182.054L693.928 209.627L648.502 182.29ZM647.931 181.953L602.105 154.38L647.931 126.807L693.756 154.38L647.931 181.953ZM601.545 154.032L555.72 126.459L601.545 98.8856L647.37 126.459L601.545 154.032ZM555.149 126.111L509.324 98.5376L555.149 70.9646L600.974 98.5376L555.149 126.111ZM554.578 126.459L509.098 153.83L463.272 126.257L508.753 98.8856L554.578 126.459ZM462.701 125.909L416.585 98.1559L462.066 70.785L508.182 98.5376L462.701 125.909ZM462.13 126.257L416.305 153.83L370.189 126.077L416.014 98.5039L462.13 126.257ZM369.618 125.729L323.793 98.1559L369.618 70.5829L415.443 98.1559L369.618 125.729ZM369.047 126.077L322.931 153.83L277.106 126.257L323.222 98.5039L369.047 126.077ZM276.535 125.909L231.054 98.5376L277.171 70.785L322.651 98.1559L276.535 125.909ZM275.964 126.257L230.139 153.83L184.658 126.459L230.484 98.8856L275.964 126.257ZM229.568 154.166L183.743 181.739L138.262 154.368L184.087 126.795L229.568 154.166ZM183.182 182.087L137.357 209.66L91.8767 182.29L137.702 154.716L183.182 182.087ZM183.182 237.918L137.756 265.256L91.9306 237.683L137.357 210.345L183.182 237.918ZM183.872 293.693L138.047 321.266L91.9306 293.513L137.756 265.94L183.872 293.693ZM138.047 321.951L183.872 349.524L138.047 377.097L92.2214 349.524L138.047 321.951ZM138.047 377.782L183.872 405.355L138.391 432.726L92.5661 405.153L138.047 377.782ZM184.217 460.984L138.391 488.557L92.5661 460.984L138.391 433.411L184.217 460.984ZM184.777 461.332L230.193 488.669L184.367 516.242L138.952 488.916L184.777 461.343V461.332ZM185.348 460.984L230.828 433.613L276.244 460.95L230.764 488.321L185.337 460.995L185.348 460.984ZM276.826 461.298L322.651 488.871L277.171 516.242L231.345 488.669L276.826 461.298ZM277.397 460.95L323.222 433.377L369.047 460.95L323.222 488.523L277.397 460.95ZM369.618 461.298L415.443 488.871L369.618 516.444L323.793 488.871L369.618 461.298ZM370.189 460.95L416.014 433.377L461.84 460.95L416.014 488.523L370.189 460.95ZM462.41 461.298L507.891 488.669L462.066 516.242L416.585 488.871L462.41 461.298ZM462.981 460.95L508.408 433.613L553.889 460.984L508.462 488.31L462.981 460.939V460.95ZM554.449 461.332L600.274 488.905L554.847 516.231L509.022 488.658L554.449 461.32V461.332ZM555.02 460.984L600.845 433.411L646.67 460.984L600.845 488.557L555.02 460.984ZM601.416 433.074L647.241 405.501L693.066 433.074L647.241 460.647L601.416 433.074ZM647.812 405.153L693.637 377.58L739.463 405.153L693.637 432.726L647.812 405.153ZM786.15 321.221L740.324 348.794L694.844 321.423L740.669 293.85L786.15 321.221ZM786.15 265.806L740.669 293.177L694.844 265.604L740.324 238.233L786.15 265.806ZM786.15 209.964L740.324 237.537L694.499 209.964L740.324 182.391L786.15 209.964ZM786.15 154.133L740.324 181.706L694.898 154.368L740.723 126.795L786.15 154.133ZM740.163 126.459L694.337 154.032L648.512 126.459L694.337 98.8856L740.163 126.459ZM693.767 98.5376L647.941 126.111L602.116 98.5376L647.941 70.9646L693.767 98.5376ZM647.37 70.6278L601.545 98.2008L555.72 70.6278L601.545 43.0548L647.37 70.6278ZM554.858 14.9541L600.974 42.7067L555.149 70.2798L509.033 42.5271L554.858 14.9541ZM554.578 70.6278L508.753 98.2008L462.637 70.4482L508.462 42.8751L554.578 70.6278ZM462.066 14.9541L507.891 42.5271L462.066 70.1001L416.241 42.5271L462.066 14.9541ZM461.495 70.4482L416.014 97.8191L370.189 70.2461L415.67 42.8751L461.495 70.4482ZM369.618 15.1562L415.099 42.5271L369.618 69.898L324.138 42.5271L369.618 15.1562ZM369.047 70.2461L323.222 97.8191L277.741 70.4482L323.567 42.8751L369.047 70.2461ZM277.171 14.9541L322.996 42.5271L277.171 70.1001L231.345 42.5271L277.171 14.9541ZM230.774 42.8751L276.6 70.4482L230.484 98.2008L184.658 70.6278L230.774 42.8751ZM184.087 70.9646L229.913 98.5376L184.087 126.111L138.262 98.5376L184.087 70.9646ZM137.691 98.8856L183.516 126.459L137.691 154.032L91.8659 126.459L137.691 98.8856ZM45.4698 154.38L91.295 126.807L137.12 154.38L91.295 181.953L45.4698 154.38ZM45.8791 209.964L91.3058 182.626L136.786 209.997L91.3596 237.334L45.8791 209.964ZM45.5344 265.592L91.3596 238.019L137.185 265.592L91.3596 293.165L45.5344 265.592ZM45.5344 321.434L91.3596 293.861L137.476 321.614L91.6505 349.187L45.5344 321.434ZM46.17 377.232L91.6505 349.861L137.476 377.434L91.9952 404.805L46.17 377.232ZM46.17 433.074L91.9952 405.501L137.82 433.074L91.9952 460.647L46.17 433.074ZM91.9952 516.478L46.17 488.905L91.9952 461.332L137.82 488.905L91.9952 516.478ZM92.5661 516.826L138.391 489.253L183.818 516.59L137.993 544.163L92.5661 516.837V516.826ZM184.378 572.073L138.553 544.5L184.378 516.927L230.203 544.5L184.378 572.073ZM184.949 516.579L230.774 489.006L276.6 516.579L230.774 544.152L184.949 516.579ZM277.171 572.073L231.345 544.5L277.171 516.927L322.996 544.5L277.171 572.073ZM277.741 516.579L323.222 489.208L369.047 516.781L323.567 544.152L277.741 516.579ZM369.618 571.859L324.138 544.488L369.618 517.118L415.099 544.488L369.618 571.859ZM415.67 544.152L370.189 516.781L416.014 489.208L461.495 516.579L415.67 544.152ZM462.066 572.073L416.241 544.5L462.066 516.927L507.891 544.5L462.066 572.073ZM462.637 516.579L508.462 489.006L554.287 516.579L508.462 544.152L462.637 516.579ZM554.858 572.073L509.033 544.5L554.858 516.927L600.683 544.5L554.858 572.073ZM601.254 544.152L555.429 516.579L600.856 489.253L646.681 516.826L601.254 544.152ZM647.241 516.478L601.416 488.905L647.241 461.332L693.066 488.905L647.241 516.478ZM693.637 488.557L647.812 460.984L693.637 433.411L739.463 460.984L693.637 488.557ZM740.034 460.647L694.208 433.074L740.034 405.501L785.859 433.074L740.034 460.647Z" fill="#5ccfff" opacity="0.2"/>
</g>
<path d="M486.454 284.288L374.158 342.821L261.867 284.288L374.158 225.762L486.454 284.288Z" fill="url(#paint1_linear_1514_9701)"/>
<path d="M486.457 296.538L374.16 355.064V342.822L486.457 284.289V296.538Z" fill="url(#paint2_linear_1514_9701)"/>
<path d="M374.158 355.064L261.867 296.538V284.289L374.158 342.822V355.064Z" fill="url(#paint3_linear_1514_9701)"/>
<path d="M377.114 289.605H336.883V299.658H377.114V289.605Z" fill="url(#paint4_linear_1514_9701)" style="mix-blend-mode:multiply"/>
<path d="M349.503 294.633H297.793V314.052H349.503V294.633Z" fill="url(#paint5_linear_1514_9701)" style="mix-blend-mode:multiply"/>
<path d="M404.723 275.211H364.492V285.264H404.723V275.211Z" fill="url(#paint6_linear_1514_9701)" style="mix-blend-mode:multiply"/>
<path d="M404.729 196.992L424.006 207.045L404.729 217.097L385.445 207.045L404.729 196.992Z" fill="url(#paint7_linear_1514_9701)"/>
<path d="M404.73 217.092V285.262L424.007 275.209V207.039L404.73 217.092Z" fill="url(#paint8_linear_1514_9701)"/>
<path d="M385.445 207.039V275.209L404.729 285.262V217.092L385.445 207.039Z" fill="url(#paint9_linear_1514_9701)"/>
<path d="M377.117 299.652L396.401 289.606V259.898L377.117 269.944V299.652Z" fill="url(#paint10_linear_1514_9701)"/>
<path d="M357.836 289.606L377.12 299.652V269.944L357.836 259.898V289.606Z" fill="url(#paint11_linear_1514_9701)"/>
<path d="M377.12 249.848L396.404 259.9L377.12 269.945L357.836 259.9L377.12 249.848Z" fill="url(#paint12_linear_1514_9701)"/>
<path d="M361.659 225.477C361.503 225.477 361.34 225.463 361.184 225.433L333.571 220.595C332.007 220.322 330.953 218.781 331.222 217.151C331.483 215.521 332.97 214.422 334.526 214.702L360.123 219.186L386.76 168.201C387.517 166.748 389.258 166.217 390.652 167.006C392.046 167.795 392.556 169.609 391.798 171.062L364.185 223.921C363.675 224.895 362.706 225.485 361.666 225.485L361.659 225.477Z" fill="url(#paint13_linear_1514_9701)"/>
<path d="M361.658 221.293C361.658 221.293 361.594 221.293 361.566 221.285L333.952 216.447C333.761 216.41 333.641 216.299 333.577 216.204C333.514 216.115 333.443 215.96 333.478 215.761C333.528 215.436 333.804 215.259 334.044 215.259C334.08 215.259 334.108 215.26 334.143 215.267L361.353 220.039L388.769 167.556C388.889 167.327 389.109 167.246 389.278 167.246C389.37 167.246 389.462 167.268 389.554 167.32C389.83 167.475 389.936 167.844 389.781 168.131L362.167 220.99C362.068 221.182 361.877 221.3 361.665 221.3L361.658 221.293Z" fill="url(#paint14_linear_1514_9701)" style="mix-blend-mode:screen"/>
<path d="M392.125 167.081L394.807 165.238L390.851 163.187C390.802 163.158 390.745 163.128 390.696 163.106C389.797 162.686 388.608 162.774 387.292 163.46C384.567 164.884 382.359 168.335 382.359 171.175C382.359 172.613 382.925 173.616 383.845 174.073L387.971 176.212L387.794 173.454C389.967 172.097 391.715 169.493 392.132 167.081H392.125Z" fill="url(#paint15_linear_1514_9701)"/>
<path d="M396.185 168.091C396.185 170.931 393.977 174.382 391.253 175.806C388.528 177.229 386.32 176.079 386.32 173.239C386.32 170.4 388.528 166.948 391.253 165.525C393.977 164.101 396.185 165.252 396.185 168.091Z" fill="url(#paint16_linear_1514_9701)"/>
<path d="M364.507 219.941L367.182 218.097L363.226 216.047C363.177 216.017 363.12 215.988 363.071 215.965C362.172 215.545 360.983 215.634 359.667 216.319C356.942 217.743 354.734 221.195 354.734 224.034C354.734 225.472 355.3 226.475 356.22 226.933L360.346 229.071L360.169 226.313C362.342 224.956 364.09 222.353 364.507 219.941Z" fill="url(#paint17_linear_1514_9701)"/>
<path d="M368.572 220.951C368.572 223.79 366.364 227.242 363.64 228.665C360.915 230.089 358.707 228.938 358.707 226.099C358.707 223.259 360.915 219.807 363.64 218.384C366.364 216.961 368.572 218.111 368.572 220.951Z" fill="url(#paint18_linear_1514_9701)"/>
<path d="M336.903 215.097L339.585 213.253L335.629 211.203C335.579 211.173 335.523 211.144 335.473 211.122C334.574 210.701 333.385 210.79 332.069 211.476C329.345 212.899 327.137 216.351 327.137 219.19C327.137 220.629 327.703 221.632 328.623 222.089L332.749 224.228L332.572 221.469C334.744 220.112 336.492 217.509 336.91 215.097H336.903Z" fill="url(#paint19_linear_1514_9701)"/>
<path d="M340.959 216.107C340.959 218.946 338.751 222.398 336.026 223.821C333.302 225.245 331.094 224.094 331.094 221.255C331.094 218.415 333.302 214.964 336.026 213.54C338.751 212.117 340.959 213.267 340.959 216.107Z" fill="url(#paint20_linear_1514_9701)"/>
<path d="M349.508 314.05L368.792 303.997V246.086L349.508 256.139V314.05Z" fill="url(#paint21_linear_1514_9701)"/>
<path d="M330.219 303.997L349.503 314.05V256.139L330.219 246.086V303.997Z" fill="url(#paint22_linear_1514_9701)"/>
<path d="M349.503 236.031L368.787 246.084L349.503 256.136L330.219 246.084L349.503 236.031Z" fill="url(#paint23_linear_1514_9701)"/>
<defs>
<mask id="gridFadeMask1514_9701" maskUnits="userSpaceOnUse" x="18" y="40" width="632" height="472">
<rect x="18" y="40" width="632" height="472" fill="url(#gridFade1514_9701)"/>
</mask>
<radialGradient id="gridFade1514_9701" cx="0" cy="0" r="1" gradientUnits="userSpaceOnUse" gradientTransform="translate(374 292) scale(302 232)">
<stop stop-color="white"/>
<stop offset="0.52" stop-color="white" stop-opacity="0.78"/>
<stop offset="0.74" stop-color="white" stop-opacity="0.23"/>
<stop offset="1" stop-color="white" stop-opacity="0"/>
</radialGradient>
<radialGradient id="paint0_radial_1514_9701" cx="0" cy="0" r="1" gradientUnits="userSpaceOnUse" gradientTransform="translate(394.814 283.266) scale(201.636 170.805)">
<stop stop-color="white"/>
<stop offset="1"/>
</radialGradient>
<linearGradient id="paint1_linear_1514_9701" x1="261.867" y1="284.288" x2="486.454" y2="284.288" gradientUnits="userSpaceOnUse">
<stop stop-color="#1053D2"/>
<stop offset="1" stop-color="#4481EA"/>
</linearGradient>
<linearGradient id="paint2_linear_1514_9701" x1="430.311" y1="355.064" x2="430.311" y2="284.289" gradientUnits="userSpaceOnUse">
<stop stop-color="#1F227D"/>
<stop offset="1" stop-color="#0C5FE7"/>
</linearGradient>
<linearGradient id="paint3_linear_1514_9701" x1="364.953" y1="370.742" x2="267.458" y2="273.093" gradientUnits="userSpaceOnUse">
<stop stop-color="#1F227D"/>
<stop offset="0.07" stop-color="#1F207B"/>
<stop offset="1" stop-color="#26126B"/>
</linearGradient>
<linearGradient id="paint4_linear_1514_9701" x1="373.08" y1="294.628" x2="337.824" y2="294.628" gradientUnits="userSpaceOnUse">
<stop stop-color="#D7E2FF"/>
<stop offset="1" stop-color="white"/>
</linearGradient>
<linearGradient id="paint5_linear_1514_9701" x1="297.793" y1="304.339" x2="349.503" y2="304.339" gradientUnits="userSpaceOnUse">
<stop stop-color="white"/>
<stop offset="1" stop-color="#8C9BD0"/>
</linearGradient>
<linearGradient id="paint6_linear_1514_9701" x1="400.69" y1="280.241" x2="365.433" y2="280.241" gradientUnits="userSpaceOnUse">
<stop stop-color="#D7E2FF"/>
<stop offset="1" stop-color="white"/>
</linearGradient>
<linearGradient id="paint7_linear_1514_9701" x1="404.729" y1="217.097" x2="404.729" y2="196.992" gradientUnits="userSpaceOnUse">
<stop stop-color="#7793B8"/>
<stop offset="1" stop-color="#505B6A"/>
</linearGradient>
<linearGradient id="paint8_linear_1514_9701" x1="390.782" y1="270.732" x2="439.904" y2="223.599" gradientUnits="userSpaceOnUse">
<stop stop-color="#3B3B3B"/>
<stop offset="1" stop-color="#6B90B8"/>
</linearGradient>
<linearGradient id="paint9_linear_1514_9701" x1="376.323" y1="265.702" x2="415.401" y2="228.214" gradientUnits="userSpaceOnUse">
<stop stop-color="#3B3B3B"/>
<stop offset="1"/>
</linearGradient>
<linearGradient id="paint10_linear_1514_9701" x1="372.397" y1="294.74" x2="402.301" y2="266.047" gradientUnits="userSpaceOnUse">
<stop stop-color="#99B4FF"/>
<stop offset="1" stop-color="#BDCEFF"/>
</linearGradient>
<linearGradient id="paint11_linear_1514_9701" x1="357.836" y1="279.775" x2="377.12" y2="279.775" gradientUnits="userSpaceOnUse">
<stop stop-color="#94B0FF"/>
<stop offset="1" stop-color="#5C75E0"/>
</linearGradient>
<linearGradient id="paint12_linear_1514_9701" x1="377.12" y1="269.945" x2="377.12" y2="249.848" gradientUnits="userSpaceOnUse">
<stop stop-color="#F0F4FF"/>
<stop offset="1" stop-color="#BDCEFF"/>
</linearGradient>
<linearGradient id="paint13_linear_1514_9701" x1="332.425" y1="196.057" x2="392.435" y2="196.057" gradientUnits="userSpaceOnUse">
<stop stop-color="#99B4FF"/>
<stop offset="1" stop-color="#BDCEFF"/>
</linearGradient>
<linearGradient id="paint14_linear_1514_9701" x1="375.557" y1="218.94" x2="349.959" y2="173.009" gradientUnits="userSpaceOnUse">
<stop/>
<stop offset="1" stop-color="white"/>
</linearGradient>
<linearGradient id="paint15_linear_1514_9701" x1="385.261" y1="174.899" x2="390.938" y2="163.227" gradientUnits="userSpaceOnUse">
<stop stop-color="#5C75E0"/>
<stop offset="0.24" stop-color="#355ACC"/>
<stop offset="1" stop-color="#7E9FFF"/>
</linearGradient>
<linearGradient id="paint16_linear_1514_9701" x1="386.518" y1="170.665" x2="396.228" y2="170.665" gradientUnits="userSpaceOnUse">
<stop stop-color="#99B4FF"/>
<stop offset="1" stop-color="#BDCEFF"/>
</linearGradient>
<linearGradient id="paint17_linear_1514_9701" x1="357.65" y1="227.759" x2="363.32" y2="216.079" gradientUnits="userSpaceOnUse">
<stop stop-color="#5C75E0"/>
<stop offset="0.24" stop-color="#355ACC"/>
<stop offset="1" stop-color="#7E9FFF"/>
</linearGradient>
<linearGradient id="paint18_linear_1514_9701" x1="358.905" y1="223.525" x2="368.622" y2="223.525" gradientUnits="userSpaceOnUse">
<stop stop-color="#99B4FF"/>
<stop offset="1" stop-color="#BDCEFF"/>
</linearGradient>
<linearGradient id="paint19_linear_1514_9701" x1="330.038" y1="222.915" x2="335.708" y2="211.235" gradientUnits="userSpaceOnUse">
<stop stop-color="#5C75E0"/>
<stop offset="0.24" stop-color="#355ACC"/>
<stop offset="1" stop-color="#7E9FFF"/>
</linearGradient>
<linearGradient id="paint20_linear_1514_9701" x1="331.292" y1="218.681" x2="341.008" y2="218.681" gradientUnits="userSpaceOnUse">
<stop stop-color="#99B4FF"/>
<stop offset="1" stop-color="#BDCEFF"/>
</linearGradient>
<linearGradient id="paint21_linear_1514_9701" x1="338.029" y1="302.079" x2="382.015" y2="259.874" gradientUnits="userSpaceOnUse">
<stop stop-color="#5073D9"/>
<stop offset="1" stop-color="#99B4FF"/>
</linearGradient>
<linearGradient id="paint22_linear_1514_9701" x1="323.56" y1="297.057" x2="357.509" y2="264.482" gradientUnits="userSpaceOnUse">
<stop stop-color="#5C75E0"/>
<stop offset="1" stop-color="#294BB0"/>
</linearGradient>
<linearGradient id="paint23_linear_1514_9701" x1="349.503" y1="256.136" x2="349.503" y2="236.031" gradientUnits="userSpaceOnUse">
<stop stop-color="#BBCBF9"/>
<stop offset="1" stop-color="#4973ED"/>
</linearGradient>
</defs>
</svg>
