<svg preserveAspectRatio="none" width="100%" height="100%" overflow="visible" style="display: block;" viewBox="0 0 139.088 139.088" fill="none" xmlns="http://www.w3.org/2000/svg">
<g id="Brutalism 22">
<path id="Vector" d="M120.981 31.7404C120.973 31.5947 120.936 31.4527 120.864 31.3158C120.854 31.2973 120.854 31.2759 120.843 31.258C120.84 31.2534 120.84 31.2477 120.837 31.2431C120.746 31.0974 120.62 30.9902 120.481 30.9056C120.467 30.8973 120.462 30.8819 120.448 30.8742L103.663 21.4382C103.326 21.246 102.902 21.246 102.565 21.4382L86.3305 30.566L70.0947 21.4385C70.0789 21.4293 70.0593 21.433 70.0429 21.4248C69.8918 21.3487 69.7275 21.2951 69.5457 21.2951C69.3638 21.2951 69.1996 21.3487 69.0485 21.4248C69.0321 21.4328 69.0128 21.4293 68.9967 21.4382L52.7617 30.5654L36.5265 21.4382C36.1863 21.246 35.7687 21.246 35.4284 21.4382L18.6445 30.8742C18.6296 30.8825 18.6234 30.8999 18.6091 30.909C18.465 30.9982 18.3353 31.1103 18.2439 31.264C18.2427 31.2659 18.2425 31.2677 18.2413 31.2697C18.1523 31.4216 18.1174 31.5847 18.1095 31.7484C18.1086 31.7666 18.0955 31.7817 18.0955 31.8V50.6706C18.0955 51.0521 18.3042 51.4056 18.6445 51.5964L34.8794 60.7236V78.977C34.8794 78.9952 34.8926 79.0103 34.8935 79.0286C34.9014 79.192 34.9359 79.3548 35.0249 79.5067C35.1198 79.669 35.2569 79.8075 35.4284 79.9045L51.6634 89.0317V107.282C51.6634 107.664 51.8721 108.017 52.2124 108.209L68.9964 117.645C69.0136 117.655 69.0341 117.651 69.0517 117.66C69.2019 117.735 69.365 117.787 69.5454 117.787C69.7258 117.787 69.8892 117.735 70.0391 117.66C70.0564 117.651 70.0774 117.655 70.0944 117.645L86.8798 108.209C87.2201 108.017 87.4289 107.664 87.4289 107.282V89.0309L103.662 79.9045C103.804 79.8246 103.907 79.704 103.997 79.5777C104.016 79.5512 104.048 79.5404 104.066 79.5119C104.157 79.3576 104.191 79.1914 104.198 79.0249C104.199 79.0081 104.211 78.9944 104.211 78.9773V60.7239L120.448 51.5966C120.788 51.4059 120.997 51.0524 120.997 50.6709V31.8C120.997 31.7786 120.982 31.7615 120.981 31.7404ZM103.114 23.599L117.747 31.8242C111.411 35.5728 104.837 39.3528 103.24 40.0725L88.5261 31.8002L103.114 23.599ZM86.3317 87.1773L70.6437 78.3586V61.9581L100.916 78.977L86.3317 87.1773ZM69.5457 96.6154L54.9581 88.4133L69.5457 80.2104L84.1341 88.413L69.5457 96.6154ZM38.1754 78.9773L68.4476 61.9587V78.3586L52.7603 87.1779L38.1754 78.9773ZM102.016 41.8527V58.2543L87.4295 50.0539V33.6526L102.016 41.8527ZM85.233 50.0533L70.6437 58.2543V24.216L85.233 32.4178V50.0533ZM68.4476 58.254L53.8598 50.0536V32.4172L68.4476 24.2163V58.254ZM37.0755 60.7236L52.7614 51.9051L67.3493 60.1063L37.0755 77.1238V60.7236ZM37.0755 58.2543V41.8527L51.6634 33.6518V50.0539L37.0755 58.2543ZM71.743 60.1063L86.3314 51.9051L102.016 60.7236V77.1241L71.743 60.1063ZM35.9775 23.599L50.5662 31.8L35.9775 40.0015L21.3891 31.8L35.9775 23.599ZM20.2916 50.0539V33.6518L34.8794 41.853V58.2543L20.2916 50.0539ZM53.8598 90.266L68.4476 98.4672V114.867L53.8598 106.664V90.266ZM85.233 106.664L70.6437 114.867V98.4672L85.233 90.2651V106.664ZM104.212 58.2543V41.9493C105.843 41.2323 109.578 39.1718 118.801 33.7031V50.0539L104.212 58.2543Z" fill="var(--fill-0, white)" fill-opacity="0.14"/>
</g>
</svg>
