<svg width="242" height="51" viewBox="0 0 242 51" fill="none" xmlns="http://www.w3.org/2000/svg">
<g clip-path="url(#clip0_1514_9639)">
<mask id="mask0_1514_9639" style="mask-type:luminance" maskUnits="userSpaceOnUse" x="0" y="0" width="242" height="27">
<path d="M241.645 0.0234375H0V26.5552H241.645V0.0234375Z" fill="white"/>
</mask>
<g mask="url(#mask0_1514_9639)">
<path d="M11.9753 5.68299H0V0.464844H11.9753V5.68299Z" fill="white"/>
<path d="M11.9766 11.6824C11.9766 5.48199 16.9894 0.46875 23.1888 0.46875H29.1689V5.67939H17.187V26.5437H11.9766V11.6824Z" fill="white"/>
<path d="M154.812 6.85671V26.5532H160.032V0.578125C159.653 0.647835 159.275 0.75228 158.902 0.8964C156.365 1.87163 154.812 4.28941 154.812 6.85671Z" fill="white"/>
<path d="M160.027 0.577761C162.993 0.0205521 166.028 1.63749 167.152 4.55779L175.635 26.5528C172.268 26.5528 169.249 24.4815 168.036 21.3405L160.027 0.577761Z" fill="white"/>
<path d="M196.457 6.85671V26.5532H191.238V0.578125C191.616 0.647835 191.994 0.75228 192.367 0.8964C194.905 1.87163 196.457 4.28941 196.457 6.85671Z" fill="white"/>
<path d="M191.24 0.577761C188.275 0.0205521 185.241 1.63749 184.116 4.55779L175.633 26.5528C179 26.5528 182.02 24.4815 183.232 21.3405L191.24 0.577761Z" fill="white"/>
<path d="M49.9039 0.464844C46.1577 0.464844 42.9188 2.64908 41.3963 5.80809L36.2422 16.1216H42.0781L49.9039 0.464844ZM58.2621 5.5147C56.685 2.51459 53.5307 0.464844 49.9039 0.464844L57.4563 15.5694L62.9488 26.5547H68.7845L58.2621 5.5147Z" fill="white"/>
<path d="M31.0195 26.5551C34.2182 20.158 40.7564 16.1172 47.9086 16.1172H57.7261L55.1143 21.3361H39.4673L36.8554 26.5551H31.0195Z" fill="white"/>
<path d="M128.509 0.464844C124.763 0.464844 121.524 2.64908 120.001 5.80809L114.848 16.1216H120.683L128.509 0.464844ZM136.867 5.5147C135.29 2.51459 132.136 0.464844 128.509 0.464844L136.062 15.5694L141.554 26.5547H147.39L136.867 5.5147Z" fill="white"/>
<path d="M109.625 26.5551C112.824 20.158 119.362 16.1172 126.514 16.1172H136.332L133.72 21.3361H118.073L115.461 26.5551H109.625Z" fill="white"/>
<path d="M222.768 0.464844C219.022 0.464844 215.783 2.64908 214.26 5.80809L209.105 16.1216H214.942L222.768 0.464844ZM231.126 5.5147C229.549 2.51459 226.394 0.464844 222.768 0.464844L230.32 15.5694L235.813 26.5547H241.648L231.126 5.5147Z" fill="white"/>
<path d="M203.883 26.5551C207.081 20.158 213.619 16.1172 220.771 16.1172H230.589L227.977 21.3361H212.331L209.718 26.5551H203.883Z" fill="white"/>
<path d="M82.4427 0.464844H101.93V5.68369H76.1641C76.234 5.30557 76.3379 4.92745 76.482 4.55449C77.4578 2.017 79.875 0.464844 82.4427 0.464844Z" fill="white"/>
<path d="M98.2682 14.207C101.189 15.3316 102.806 18.3662 102.248 21.3316L80.1439 12.8039C77.2236 11.6797 75.6063 8.64482 76.1638 5.67969L98.2682 14.207Z" fill="white"/>
<path d="M95.9678 26.5548H76.4805V21.3359H102.246C102.177 21.714 102.073 22.0922 101.928 22.4651C100.953 25.0026 98.5355 26.5548 95.9678 26.5548Z" fill="white"/>
</g>
<path d="M16.1367 46.7337V39.4844H19.2642C20.0721 39.4844 20.6969 39.6466 21.1388 39.9711C21.5875 40.2956 21.8119 40.7547 21.8119 41.3485C21.8119 41.742 21.7187 42.0734 21.5323 42.3427C21.3528 42.6119 21.1042 42.8156 20.7866 42.9537C20.4759 43.0918 20.1342 43.1608 19.7614 43.1608L19.9375 42.9123C20.4 42.9123 20.797 42.9848 21.1284 43.1297C21.4667 43.2678 21.729 43.4784 21.9155 43.7615C22.1019 44.0376 22.1951 44.3828 22.1951 44.7971C22.1951 45.4116 21.9673 45.888 21.5115 46.2263C21.0628 46.5646 20.3827 46.7337 19.4714 46.7337H16.1367ZM16.9031 46.102H19.461C20.0962 46.102 20.583 45.9949 20.9213 45.7809C21.2596 45.56 21.4287 45.2113 21.4287 44.735C21.4287 44.2655 21.2596 43.9237 20.9213 43.7097C20.583 43.4887 20.0962 43.3783 19.461 43.3783H16.8202V42.7466H19.2125C19.7925 42.7466 20.2412 42.6361 20.5588 42.4152C20.8833 42.1943 21.0456 41.8663 21.0456 41.4313C21.0456 40.9895 20.8833 40.6615 20.5588 40.4475C20.2412 40.2265 19.7925 40.1161 19.2125 40.1161H16.9031V46.102ZM26.0362 46.7855C25.5737 46.7855 25.1698 46.6992 24.8246 46.5265C24.4794 46.354 24.2101 46.095 24.0168 45.7499C23.8304 45.4047 23.7372 44.9732 23.7372 44.4553V41.2967H24.4725V44.3725C24.4725 44.9525 24.614 45.3908 24.8971 45.6877C25.1871 45.9777 25.591 46.1227 26.1087 46.1227C26.4885 46.1227 26.8164 46.0467 27.0926 45.8949C27.3757 45.736 27.5897 45.5082 27.7347 45.2113C27.8866 44.9144 27.9625 44.5589 27.9625 44.1446V41.2967H28.6978V46.7337H27.9936V45.2424L28.1075 45.5116C27.9349 45.9121 27.6656 46.2263 27.2997 46.454C26.9407 46.675 26.5195 46.7855 26.0362 46.7855ZM32.2073 46.7855C31.7585 46.7855 31.3339 46.7233 30.9334 46.599C30.533 46.4679 30.2189 46.3057 29.991 46.1124L30.3225 45.5324C30.5434 45.6981 30.8264 45.8431 31.1717 45.9674C31.5168 46.0847 31.8793 46.1434 32.2591 46.1434C32.7768 46.1434 33.1497 46.064 33.3775 45.9052C33.6054 45.7395 33.7193 45.522 33.7193 45.2528C33.7193 45.0525 33.6537 44.8972 33.5225 44.7867C33.3982 44.6693 33.2325 44.5831 33.0254 44.5278C32.8182 44.4657 32.587 44.4139 32.3316 44.3725C32.0761 44.331 31.8206 44.2827 31.5652 44.2275C31.3167 44.1723 31.0888 44.0929 30.8817 43.9893C30.6745 43.8788 30.5054 43.7304 30.3742 43.544C30.25 43.3576 30.1878 43.109 30.1878 42.7984C30.1878 42.5015 30.2707 42.2357 30.4364 42.0009C30.602 41.7661 30.8437 41.5832 31.1613 41.452C31.4858 41.3139 31.8793 41.2449 32.3419 41.2449C32.694 41.2449 33.0461 41.2932 33.3982 41.3899C33.7503 41.4796 34.0403 41.6005 34.2681 41.7524L33.9471 42.3427C33.7055 42.1769 33.4465 42.0596 33.1704 41.9905C32.8942 41.9146 32.6181 41.8767 32.3419 41.8767C31.8517 41.8767 31.4892 41.9629 31.2545 42.1355C31.0267 42.3012 30.9127 42.5152 30.9127 42.7777C30.9127 42.9848 30.9749 43.147 31.0992 43.2643C31.2303 43.3818 31.3995 43.475 31.6066 43.544C31.8206 43.6061 32.0519 43.6579 32.3005 43.6993C32.5559 43.7408 32.8079 43.7926 33.0565 43.8547C33.3119 43.9099 33.5432 43.9893 33.7503 44.0929C33.9644 44.1895 34.1335 44.331 34.2578 44.5175C34.3889 44.697 34.4546 44.9352 34.4546 45.232C34.4546 45.5496 34.3648 45.8258 34.1853 46.0606C34.0127 46.2884 33.7573 46.4679 33.419 46.599C33.0875 46.7233 32.6836 46.7855 32.2073 46.7855ZM35.8038 46.7337V41.2967H36.5391V46.7337H35.8038ZM36.1766 40.0954C36.0247 40.0954 35.897 40.0436 35.7934 39.94C35.6899 39.8365 35.6381 39.7122 35.6381 39.5672C35.6381 39.4222 35.6899 39.3014 35.7934 39.2047C35.897 39.1012 36.0247 39.0494 36.1766 39.0494C36.3284 39.0494 36.4562 39.0977 36.5598 39.1944C36.6634 39.2911 36.7151 39.4119 36.7151 39.5569C36.7151 39.7088 36.6634 39.8365 36.5598 39.94C36.4631 40.0436 36.3354 40.0954 36.1766 40.0954ZM38.585 46.7337V41.2967H39.2892V42.788L39.1753 42.5084C39.3479 42.1148 39.6241 41.8076 40.0038 41.5867C40.3835 41.3588 40.8358 41.2449 41.3605 41.2449C41.8023 41.2449 42.189 41.3312 42.5203 41.5038C42.8586 41.6695 43.121 41.925 43.3074 42.2702C43.5007 42.6154 43.5974 43.0503 43.5974 43.5751V46.7337H42.8621V43.6476C42.8621 43.0745 42.7171 42.643 42.4271 42.353C42.144 42.0561 41.7436 41.9077 41.2258 41.9077C40.8391 41.9077 40.5008 41.9871 40.2109 42.1459C39.9278 42.2978 39.7069 42.5222 39.5481 42.8191C39.3962 43.109 39.3202 43.4611 39.3202 43.8754V46.7337H38.585ZM47.8929 46.7855C47.3268 46.7855 46.8297 46.6681 46.4016 46.4333C45.9736 46.1917 45.6388 45.8638 45.3971 45.4495C45.1555 45.0283 45.0346 44.5485 45.0346 44.01C45.0346 43.4715 45.1485 42.9951 45.3763 42.5809C45.6111 42.1666 45.9287 41.8421 46.3291 41.6074C46.7365 41.3657 47.1921 41.2449 47.6961 41.2449C48.207 41.2449 48.6593 41.3623 49.0528 41.597C49.4533 41.8249 49.7674 42.1494 49.9952 42.5705C50.2231 42.9848 50.337 43.4646 50.337 44.01C50.337 44.0445 50.3335 44.0825 50.3267 44.1239C50.3267 44.1584 50.3267 44.1964 50.3267 44.2378H45.5938V43.689H49.9331L49.6431 43.9065C49.6431 43.5129 49.5568 43.1643 49.3843 42.8605C49.2185 42.5498 48.9907 42.3081 48.7007 42.1355C48.4107 41.9629 48.0759 41.8767 47.6961 41.8767C47.3233 41.8767 46.9885 41.9629 46.6916 42.1355C46.3947 42.3081 46.1635 42.5498 45.9978 42.8605C45.8321 43.1711 45.7492 43.5268 45.7492 43.9272V44.0411C45.7492 44.4553 45.8389 44.8213 46.0185 45.1389C46.2049 45.4495 46.4604 45.6946 46.7848 45.8741C47.1162 46.0467 47.4925 46.1331 47.9136 46.1331C48.2451 46.1331 48.5523 46.0743 48.8353 45.957C49.1253 45.8396 49.3739 45.6601 49.581 45.4184L49.9952 45.8949C49.7536 46.1848 49.4498 46.4057 49.0839 46.5576C48.7249 46.7095 48.3279 46.7855 47.8929 46.7855ZM53.2939 46.7855C52.8451 46.7855 52.4205 46.7233 52.02 46.599C51.6196 46.4679 51.3055 46.3057 51.0776 46.1124L51.409 45.5324C51.6299 45.6981 51.913 45.8431 52.2582 45.9674C52.6034 46.0847 52.9659 46.1434 53.3456 46.1434C53.8634 46.1434 54.2363 46.064 54.4641 45.9052C54.692 45.7395 54.8058 45.522 54.8058 45.2528C54.8058 45.0525 54.7403 44.8972 54.6091 44.7867C54.4848 44.6693 54.3191 44.5831 54.112 44.5278C53.9048 44.4657 53.6736 44.4139 53.4181 44.3725C53.1627 44.331 52.9072 44.2827 52.6517 44.2275C52.4032 44.1723 52.1754 44.0929 51.9682 43.9893C51.7611 43.8788 51.592 43.7304 51.4608 43.544C51.3366 43.3576 51.2744 43.109 51.2744 42.7984C51.2744 42.5015 51.3573 42.2357 51.5229 42.0009C51.6886 41.7661 51.9303 41.5832 52.2479 41.452C52.5723 41.3139 52.9659 41.2449 53.4285 41.2449C53.7806 41.2449 54.1327 41.2932 54.4848 41.3899C54.8369 41.4796 55.1269 41.6005 55.3547 41.7524L55.0337 42.3427C54.7921 42.1769 54.5331 42.0596 54.257 41.9905C53.9808 41.9146 53.7047 41.8767 53.4285 41.8767C52.9383 41.8767 52.5758 41.9629 52.3411 42.1355C52.1132 42.3012 51.9993 42.5152 51.9993 42.7777C51.9993 42.9848 52.0615 43.147 52.1857 43.2643C52.3169 43.3818 52.4861 43.475 52.6932 43.544C52.9072 43.6061 53.1385 43.6579 53.3871 43.6993C53.6425 43.7408 53.8945 43.7926 54.143 43.8547C54.3985 43.9099 54.6298 43.9893 54.8369 44.0929C55.051 44.1895 55.2201 44.331 55.3444 44.5175C55.4755 44.697 55.5412 44.9352 55.5412 45.232C55.5412 45.5496 55.4514 45.8258 55.2719 46.0606C55.0993 46.2884 54.8438 46.4679 54.5055 46.599C54.1741 46.7233 53.7702 46.7855 53.2939 46.7855ZM58.3506 46.7855C57.9018 46.7855 57.4772 46.7233 57.0767 46.599C56.6763 46.4679 56.3622 46.3057 56.1343 46.1124L56.4658 45.5324C56.6867 45.6981 56.9698 45.8431 57.315 45.9674C57.6601 46.0847 58.0226 46.1434 58.4024 46.1434C58.9202 46.1434 59.293 46.064 59.5208 45.9052C59.7487 45.7395 59.8626 45.522 59.8626 45.2528C59.8626 45.0525 59.797 44.8972 59.6658 44.7867C59.5415 44.6693 59.3758 44.5831 59.1687 44.5278C58.9616 44.4657 58.7303 44.4139 58.4749 44.3725C58.2194 44.331 57.964 44.2827 57.7085 44.2275C57.46 44.1723 57.2321 44.0929 57.025 43.9893C56.8179 43.8788 56.6487 43.7304 56.5176 43.544C56.3933 43.3576 56.3311 43.109 56.3311 42.7984C56.3311 42.5015 56.414 42.2357 56.5797 42.0009C56.7454 41.7661 56.987 41.5832 57.3046 41.452C57.6291 41.3139 58.0226 41.2449 58.4852 41.2449C58.8374 41.2449 59.1894 41.2932 59.5415 41.3899C59.8937 41.4796 60.1836 41.6005 60.4114 41.7524L60.0904 42.3427C59.8488 42.1769 59.5898 42.0596 59.3137 41.9905C59.0375 41.9146 58.7614 41.8767 58.4852 41.8767C57.995 41.8767 57.6325 41.9629 57.3978 42.1355C57.17 42.3012 57.056 42.5152 57.056 42.7777C57.056 42.9848 57.1182 43.147 57.2425 43.2643C57.3736 43.3818 57.5428 43.475 57.75 43.544C57.964 43.6061 58.1952 43.6579 58.4438 43.6993C58.6992 43.7408 58.9513 43.7926 59.1998 43.8547C59.4552 43.9099 59.6865 43.9893 59.8937 44.0929C60.1077 44.1895 60.2768 44.331 60.4011 44.5175C60.5323 44.697 60.5979 44.9352 60.5979 45.232C60.5979 45.5496 60.5081 45.8258 60.3286 46.0606C60.156 46.2884 59.9006 46.4679 59.5623 46.599C59.2308 46.7233 58.827 46.7855 58.3506 46.7855ZM66.8116 46.7958C66.2731 46.7958 65.7552 46.7095 65.2582 46.5369C64.768 46.3574 64.3882 46.1296 64.119 45.8534L64.4193 45.2631C64.6748 45.5116 65.0165 45.7223 65.4446 45.8949C65.8795 46.0606 66.3352 46.1434 66.8116 46.1434C67.2673 46.1434 67.6366 46.0882 67.9197 45.9777C68.2097 45.8603 68.4202 45.7049 68.5515 45.5116C68.6895 45.3183 68.7586 45.1043 68.7586 44.8696C68.7586 44.5865 68.6757 44.3587 68.51 44.1861C68.3512 44.0134 68.1407 43.8788 67.8783 43.7822C67.6159 43.6786 67.3259 43.5889 67.0083 43.5129C66.6908 43.437 66.3732 43.3576 66.0556 43.2747C65.738 43.185 65.4446 43.0676 65.1753 42.9226C64.913 42.7777 64.6989 42.5877 64.5332 42.353C64.3744 42.1114 64.2951 41.7972 64.2951 41.4106C64.2951 41.0516 64.3883 40.7237 64.5746 40.4268C64.768 40.123 65.0614 39.8813 65.455 39.7019C65.8484 39.5155 66.3525 39.4222 66.9669 39.4222C67.3743 39.4222 67.7782 39.4809 68.1786 39.5983C68.579 39.7088 68.9242 39.8641 69.2142 40.0643L68.9553 40.6754C68.6447 40.4682 68.3132 40.3163 67.9611 40.2196C67.6159 40.123 67.2811 40.0746 66.9566 40.0746C66.5217 40.0746 66.1626 40.1333 65.8795 40.2507C65.5965 40.3681 65.3859 40.5269 65.2478 40.7271C65.1167 40.9204 65.051 41.1413 65.051 41.3899C65.051 41.673 65.1304 41.9008 65.2893 42.0734C65.455 42.246 65.669 42.3806 65.9313 42.4773C66.2006 42.574 66.494 42.6602 66.8116 42.7362C67.1292 42.8121 67.4433 42.895 67.754 42.9848C68.0716 43.0745 68.3615 43.1918 68.624 43.3368C68.8932 43.475 69.1072 43.6614 69.266 43.8961C69.4317 44.1309 69.5146 44.4381 69.5146 44.8178C69.5146 45.1699 69.4179 45.4979 69.2246 45.8016C69.0313 46.0985 68.7344 46.3402 68.334 46.5265C67.9404 46.7061 67.433 46.7958 66.8116 46.7958ZM73.3381 46.7855C72.7721 46.7855 72.2754 46.6681 71.8472 46.4333C71.419 46.1917 71.0841 45.8638 70.8425 45.4495C70.6009 45.0283 70.4801 44.5485 70.4801 44.01C70.4801 43.4715 70.594 42.9951 70.822 42.5809C71.0566 42.1666 71.3745 41.8421 71.7745 41.6074C72.1821 41.3657 72.6379 41.2449 73.1417 41.2449C73.6525 41.2449 74.1047 41.3623 74.4982 41.597C74.8989 41.8249 75.2126 42.1494 75.4408 42.5705C75.6683 42.9848 75.7828 43.4646 75.7828 44.01C75.7828 44.0445 75.7793 44.0825 75.7722 44.1239C75.7722 44.1584 75.7722 44.1964 75.7722 44.2378H71.0396V43.689H75.3786L75.0889 43.9065C75.0889 43.5129 75.002 43.1643 74.8296 42.8605C74.6643 42.5498 74.4361 42.3081 74.1464 42.1355C73.856 41.9629 73.5211 41.8767 73.1417 41.8767C72.7686 41.8767 72.4337 41.9629 72.1369 42.1355C71.8402 42.3081 71.6091 42.5498 71.4431 42.8605C71.2777 43.1711 71.1944 43.5268 71.1944 43.9272V44.0411C71.1944 44.4553 71.2841 44.8213 71.4643 45.1389C71.6501 45.4495 71.9059 45.6946 72.2302 45.8741C72.5616 46.0467 72.9382 46.1331 73.3593 46.1331C73.6907 46.1331 73.998 46.0743 74.2806 45.957C74.571 45.8396 74.819 45.6601 75.0268 45.4184L75.4408 45.8949C75.1992 46.1848 74.8953 46.4057 74.5293 46.5576C74.1704 46.7095 73.7733 46.7855 73.3381 46.7855ZM77.2793 46.7337V41.2967H77.983V42.7777L77.9109 42.5187C78.0629 42.1044 78.3179 41.7903 78.6769 41.5763C79.0365 41.3553 79.4816 41.2449 80.013 41.2449V41.9595C79.9854 41.9595 79.9579 41.9595 79.9303 41.9595C79.9028 41.9526 79.8752 41.9491 79.8476 41.9491C79.2746 41.9491 78.826 42.1252 78.5009 42.4773C78.1766 42.8225 78.0141 43.3161 78.0141 43.9583V46.7337H77.2793ZM82.9855 46.7337L80.5726 41.2967H81.3392L83.555 46.3401H83.1925L85.4401 41.2967H86.165L83.7415 46.7337H82.9855ZM87.2001 46.7337V41.2967H87.9357V46.7337H87.2001ZM87.5732 40.0954C87.4213 40.0954 87.2934 40.0436 87.1902 39.94C87.0864 39.8365 87.0348 39.7122 87.0348 39.5672C87.0348 39.4222 87.0864 39.3014 87.1902 39.2047C87.2934 39.1012 87.4213 39.0494 87.5732 39.0494C87.7251 39.0494 87.853 39.0977 87.9562 39.1944C88.06 39.2911 88.1116 39.4119 88.1116 39.5569C88.1116 39.7088 88.06 39.8365 87.9562 39.94C87.8601 40.0436 87.7322 40.0954 87.5732 40.0954ZM92.2393 46.7855C91.7009 46.7855 91.2176 46.6681 90.7895 46.4333C90.3684 46.1917 90.037 45.8638 89.7953 45.4495C89.5537 45.0283 89.4329 44.5485 89.4329 44.01C89.4329 43.4646 89.5537 42.9848 89.7953 42.5705C90.037 42.1562 90.3684 41.8318 90.7895 41.597C91.2176 41.3623 91.7009 41.2449 92.2393 41.2449C92.7021 41.2449 93.1197 41.3346 93.4921 41.5142C93.8651 41.6937 94.1584 41.9629 94.3725 42.3219L93.8234 42.6948C93.6376 42.4186 93.4059 42.215 93.1296 42.0837C92.854 41.9526 92.5538 41.887 92.2287 41.887C91.8422 41.887 91.4939 41.9768 91.183 42.1562C90.8721 42.3289 90.627 42.574 90.4475 42.8916C90.268 43.2092 90.1783 43.5819 90.1783 44.01C90.1783 44.4381 90.268 44.8109 90.4475 45.1285C90.627 45.4461 90.8721 45.6946 91.183 45.8741C91.4939 46.0467 91.8422 46.1331 92.2287 46.1331C92.5538 46.1331 92.854 46.0674 93.1296 45.9363C93.4059 45.8051 93.6376 45.6049 93.8234 45.3356L94.3725 45.7084C94.1584 46.0606 93.8651 46.3298 93.4921 46.5162C93.1197 46.6957 92.7021 46.7855 92.2393 46.7855ZM98.0353 46.7855C97.4693 46.7855 96.9726 46.6681 96.5444 46.4333C96.1162 46.1917 95.7813 45.8638 95.5397 45.4495C95.298 45.0283 95.1772 44.5485 95.1772 44.01C95.1772 43.4715 95.291 42.9951 95.5192 42.5809C95.7538 42.1666 96.071 41.8421 96.4716 41.6074C96.8793 41.3657 97.3351 41.2449 97.8388 41.2449C98.3497 41.2449 98.8019 41.3623 99.1954 41.597C99.5961 41.8249 99.9098 42.1494 100.138 42.5705C100.366 42.9848 100.479 43.4646 100.479 44.01C100.479 44.0445 100.476 44.0825 100.469 44.1239C100.469 44.1584 100.469 44.1964 100.469 44.2378H95.7361V43.689H100.076L99.7854 43.9065C99.7854 43.5129 99.6992 43.1643 99.5268 42.8605C99.3608 42.5498 99.1333 42.3081 98.8436 42.1355C98.5532 41.9629 98.2183 41.8767 97.8388 41.8767C97.4658 41.8767 97.1309 41.9629 96.8341 42.1355C96.5374 42.3081 96.3063 42.5498 96.1403 42.8605C95.9749 43.1711 95.8916 43.5268 95.8916 43.9272V44.0411C95.8916 44.4553 95.9813 44.8213 96.1608 45.1389C96.3473 45.4495 96.6031 45.6946 96.9274 45.8741C97.2588 46.0467 97.6354 46.1331 98.0565 46.1331C98.3878 46.1331 98.6952 46.0743 98.9778 45.957C99.2682 45.8396 99.5162 45.6601 99.7233 45.4184L100.138 45.8949C99.8964 46.1848 99.5925 46.4057 99.2265 46.5576C98.8676 46.7095 98.4705 46.7855 98.0353 46.7855ZM103.436 46.7855C102.988 46.7855 102.563 46.7233 102.162 46.599C101.762 46.4679 101.448 46.3057 101.22 46.1124L101.552 45.5324C101.772 45.6981 102.056 45.8431 102.401 45.9674C102.746 46.0847 103.108 46.1434 103.489 46.1434C104.006 46.1434 104.379 46.064 104.607 45.9052C104.835 45.7395 104.948 45.522 104.948 45.2528C104.948 45.0525 104.883 44.8972 104.752 44.7867C104.628 44.6693 104.461 44.5831 104.254 44.5278C104.047 44.4657 103.816 44.4139 103.561 44.3725C103.306 44.331 103.05 44.2827 102.795 44.2275C102.546 44.1723 102.318 44.0929 102.111 43.9893C101.904 43.8788 101.735 43.7304 101.603 43.544C101.479 43.3576 101.417 43.109 101.417 42.7984C101.417 42.5015 101.5 42.2357 101.666 42.0009C101.831 41.7661 102.073 41.5832 102.391 41.452C102.715 41.3139 103.108 41.2449 103.571 41.2449C103.923 41.2449 104.275 41.2932 104.628 41.3899C104.979 41.4796 105.27 41.6005 105.497 41.7524L105.176 42.3427C104.935 42.1769 104.676 42.0596 104.399 41.9905C104.124 41.9146 103.847 41.8767 103.571 41.8767C103.081 41.8767 102.718 41.9629 102.484 42.1355C102.256 42.3012 102.142 42.5152 102.142 42.7777C102.142 42.9848 102.204 43.147 102.328 43.2643C102.46 43.3818 102.629 43.475 102.836 43.544C103.05 43.6061 103.281 43.6579 103.53 43.6993C103.785 43.7408 104.037 43.7926 104.286 43.8547C104.541 43.9099 104.772 43.9893 104.979 44.0929C105.193 44.1895 105.362 44.331 105.487 44.5175C105.618 44.697 105.684 44.9352 105.684 45.232C105.684 45.5496 105.594 45.8258 105.415 46.0606C105.242 46.2884 104.986 46.4679 104.648 46.599C104.317 46.7233 103.912 46.7855 103.436 46.7855ZM111.739 46.744C111.739 46.5783 111.753 46.4023 111.781 46.2159C111.815 46.0226 111.863 45.8189 111.926 45.6049C111.995 45.384 112.078 45.1526 112.174 44.911L112.92 45.201C112.85 45.3943 112.788 45.5773 112.733 45.7499C112.685 45.9224 112.647 46.0847 112.619 46.2366C112.599 46.3885 112.588 46.5335 112.588 46.6715C112.588 47.003 112.675 47.2895 112.847 47.5311C113.027 47.7728 113.272 47.9592 113.582 48.0904C113.893 48.2215 114.256 48.2872 114.67 48.2872C115.174 48.2872 115.588 48.2147 115.913 48.0697C116.244 47.9247 116.5 47.7037 116.679 47.4069C116.865 47.11 116.99 46.7337 117.052 46.278C117.114 45.8155 117.135 45.2735 117.114 44.6521L116.917 39.3394H117.777L117.953 44.8696C117.967 45.3322 117.946 45.7774 117.891 46.2056C117.842 46.6267 117.746 47.0133 117.601 47.3654C117.456 47.7245 117.256 48.0351 117 48.2975C116.744 48.5667 116.424 48.7738 116.037 48.9188C115.651 49.0638 115.184 49.1363 114.639 49.1363C114.273 49.1363 113.917 49.088 113.572 48.9913C113.227 48.8947 112.916 48.7497 112.64 48.5564C112.364 48.363 112.143 48.1145 111.977 47.8107C111.819 47.5139 111.739 47.1583 111.739 46.744ZM121.643 46.7855C121.09 46.7855 120.666 46.7233 120.369 46.599C120.079 46.4748 119.879 46.2815 119.768 46.0191C119.658 45.7567 119.596 45.4184 119.582 45.0042L119.375 39.3394H120.224L120.431 44.6728C120.445 45.0111 120.476 45.2735 120.524 45.4599C120.58 45.6394 120.697 45.7637 120.876 45.8327C121.063 45.9017 121.353 45.9363 121.747 45.9363C121.892 45.9363 121.995 45.9777 122.057 46.0606C122.126 46.1365 122.161 46.2297 122.161 46.3401C122.161 46.4507 122.112 46.5542 122.016 46.6508C121.919 46.7406 121.795 46.7855 121.643 46.7855ZM121.643 46.7855L121.747 45.9363C121.94 45.9363 122.092 45.8949 122.203 45.812C122.32 45.7291 122.43 45.5911 122.534 45.3977C122.644 45.2044 122.782 44.9455 122.948 44.621C123.114 44.2896 123.279 44.0204 123.445 43.8133C123.618 43.5993 123.783 43.4335 123.942 43.3161C124.108 43.1918 124.263 43.1056 124.408 43.0572C124.553 43.0089 124.688 42.9848 124.812 42.9848C125.04 42.9848 125.244 43.0365 125.423 43.1401C125.603 43.2368 125.772 43.4059 125.93 43.6476C126.089 43.8823 126.252 44.2068 126.417 44.621C126.576 45.0008 126.717 45.2873 126.842 45.4806C126.973 45.667 127.108 45.7913 127.246 45.8534C127.391 45.9087 127.553 45.9363 127.733 45.9363C127.878 45.9363 127.981 45.9777 128.043 46.0606C128.112 46.1365 128.147 46.2297 128.147 46.3401C128.147 46.4507 128.098 46.5542 128.002 46.6508C127.905 46.7406 127.781 46.7855 127.629 46.7855C127.36 46.7855 127.111 46.7406 126.884 46.6508C126.662 46.5611 126.476 46.4196 126.324 46.2263L126.469 46.0088C126.393 46.2228 126.289 46.3989 126.159 46.5369C126.034 46.6681 125.893 46.7648 125.734 46.8269C125.575 46.8959 125.406 46.9305 125.227 46.9305C124.998 46.9305 124.764 46.8822 124.522 46.7855C124.288 46.6888 124.059 46.5507 123.839 46.3712C123.618 46.1917 123.424 45.9811 123.259 45.7395C123.079 46.0571 122.906 46.2918 122.741 46.4437C122.582 46.5887 122.417 46.6819 122.244 46.7233C122.071 46.7648 121.871 46.7855 121.643 46.7855ZM123.652 44.9525C123.77 45.1458 123.894 45.3149 124.025 45.4599C124.163 45.6049 124.301 45.7257 124.44 45.8224C124.577 45.9121 124.712 45.9811 124.843 46.0295C124.981 46.0709 125.106 46.0916 125.216 46.0916C125.458 46.0916 125.634 46.0053 125.744 45.8327C125.862 45.6601 125.858 45.4184 125.734 45.1078C125.672 44.949 125.606 44.7936 125.537 44.6417C125.475 44.4899 125.406 44.3517 125.33 44.2275C125.254 44.0963 125.168 43.9962 125.071 43.9272C124.974 43.8512 124.867 43.8133 124.75 43.8133C124.647 43.8133 124.536 43.8478 124.418 43.9168C124.308 43.9859 124.187 44.1032 124.056 44.2689C123.932 44.4346 123.797 44.6625 123.652 44.9525ZM127.63 46.7855L127.733 45.9363C128.168 45.9363 128.504 45.9328 128.738 45.9259C128.98 45.919 129.156 45.9121 129.267 45.9052C129.377 45.8914 129.453 45.8845 129.494 45.8845C129.37 45.8155 129.225 45.7084 129.06 45.5634C128.894 45.4116 128.749 45.2217 128.625 44.9939C128.5 44.7591 128.438 44.4829 128.438 44.1653C128.438 43.7718 128.528 43.4266 128.707 43.1297C128.894 42.8328 129.146 42.6016 129.463 42.4359C129.787 42.2702 130.157 42.1873 130.572 42.1873C130.73 42.1873 130.9 42.2011 131.079 42.2287C131.259 42.2564 131.431 42.2978 131.597 42.353L131.42 43.1504C131.283 43.116 131.138 43.0883 130.986 43.0676C130.834 43.0469 130.695 43.0365 130.572 43.0365C130.323 43.0365 130.102 43.0849 129.908 43.1815C129.715 43.2713 129.564 43.399 129.453 43.5647C129.342 43.7304 129.287 43.9306 129.287 44.1653C129.287 44.3449 129.325 44.5106 129.401 44.6625C129.477 44.8075 129.577 44.9386 129.701 45.056C129.826 45.1733 129.964 45.27 130.116 45.3459C130.268 45.4219 130.416 45.4806 130.561 45.522C130.713 45.5634 130.847 45.5807 130.965 45.5738C131.048 45.5462 131.124 45.522 131.193 45.5013C131.262 45.4806 131.338 45.4565 131.42 45.4288C131.51 45.3943 131.618 45.3494 131.742 45.2942C131.873 45.239 132.039 45.1665 132.239 45.0767L132.529 45.8327C132.066 46.0191 131.593 46.1849 131.11 46.3298C130.633 46.4748 130.113 46.5887 129.546 46.6715C128.987 46.7475 128.348 46.7855 127.63 46.7855ZM136.909 41.1828C136.909 41.0309 136.898 40.8479 136.878 40.6339C136.857 40.4199 136.833 40.2058 136.805 39.9918C136.778 39.7778 136.75 39.5948 136.722 39.443L137.613 39.3394C137.634 39.4774 137.654 39.6604 137.675 39.8882C137.702 40.1092 137.724 40.3301 137.737 40.5511C137.751 40.772 137.758 40.9549 137.758 41.0999C137.758 41.4313 137.734 41.7558 137.685 42.0734C137.644 42.3841 137.575 42.6913 137.478 42.9951C137.382 43.292 137.254 43.5819 137.095 43.8651L136.971 44.0929C136.778 44.4174 136.539 44.7315 136.256 45.0353C135.973 45.3322 135.642 45.6152 135.262 45.8845H136.567C136.802 45.8845 136.981 45.8569 137.105 45.8016C137.23 45.7395 137.312 45.6601 137.354 45.5634C137.402 45.4668 137.426 45.3633 137.426 45.2528C137.426 45.0664 137.312 44.835 137.085 44.5589C136.864 44.2759 136.556 43.9651 136.163 43.6268C135.769 43.2817 135.324 42.9192 134.827 42.5394C134.33 42.1597 133.805 41.7731 133.253 41.3795L133.74 40.6961C134.375 41.1655 134.934 41.5901 135.417 41.9698C135.908 42.3496 136.325 42.6982 136.671 43.0158C137.023 43.3265 137.309 43.6165 137.53 43.8858C137.758 44.1481 137.924 44.4001 138.027 44.6417C138.138 44.8765 138.193 45.1078 138.193 45.3356C138.193 45.4875 138.165 45.6463 138.11 45.812C138.061 45.9708 137.972 46.1227 137.841 46.2677C137.717 46.4057 137.537 46.5197 137.303 46.6094C137.074 46.6923 136.778 46.7337 136.412 46.7337H134.03V45.8949C134.741 45.384 135.304 44.8868 135.718 44.4035C136.139 43.9202 136.443 43.4163 136.629 42.8916C136.816 42.3669 136.909 41.7972 136.909 41.1828ZM133.108 40.1471L132.984 39.588C133.163 39.5465 133.308 39.512 133.419 39.4844C133.529 39.4567 133.653 39.4257 133.792 39.3912L133.74 39.6087C133.56 39.5534 133.387 39.436 133.222 39.2565C133.063 39.077 132.984 38.8733 132.984 38.6455C132.984 38.4384 133.032 38.2658 133.129 38.1277C133.232 37.9827 133.363 37.8757 133.522 37.8066C133.688 37.7376 133.864 37.7031 134.05 37.7031C134.127 37.7031 134.206 37.71 134.288 37.7238C134.378 37.7376 134.461 37.7583 134.537 37.7859L134.454 38.3038C134.385 38.2899 134.319 38.2761 134.257 38.2623C134.195 38.2485 134.127 38.2416 134.05 38.2416C133.892 38.2416 133.768 38.2761 133.678 38.3452C133.588 38.4073 133.543 38.4971 133.543 38.6145C133.543 38.7594 133.588 38.8837 133.678 38.9872C133.774 39.0908 133.881 39.1737 133.999 39.2358C134.123 39.2911 134.223 39.3187 134.299 39.3187L133.874 39.3601C134.061 39.3118 134.233 39.2634 134.392 39.2151C134.558 39.1598 134.707 39.1081 134.837 39.0597L135.003 39.588C134.837 39.6501 134.641 39.7156 134.413 39.7847C134.192 39.8538 133.968 39.9193 133.74 39.9814C133.512 40.0436 133.301 40.0988 133.108 40.1471ZM139.819 46.7337L139.612 39.3394H140.451L140.658 46.7337H139.819ZM148.083 46.9512L148.352 46.102C149.16 46.102 149.855 46.0813 150.434 46.0399C151.021 45.9984 151.501 45.9328 151.874 45.8431C152.253 45.7464 152.533 45.6187 152.713 45.4599C152.899 45.2942 152.992 45.094 152.992 44.8592C152.992 44.5968 152.944 44.2931 152.847 43.9479C152.751 43.6026 152.626 43.2333 152.475 42.8398L153.272 42.5602C153.361 42.7811 153.445 43.0193 153.52 43.2747C153.603 43.5233 153.672 43.7718 153.727 44.0204C153.782 44.262 153.811 44.4864 153.811 44.6935C153.811 45.1008 153.717 45.4495 153.531 45.7395C153.344 46.0226 153.033 46.2539 152.599 46.4333C152.164 46.6129 151.576 46.744 150.838 46.8269C150.106 46.9098 149.188 46.9512 148.083 46.9512ZM148.083 46.9512C147.469 46.9512 146.927 46.9098 146.457 46.8269C145.995 46.7509 145.608 46.6301 145.297 46.4644C144.987 46.2987 144.752 46.0847 144.594 45.8224C144.435 45.5531 144.355 45.2286 144.355 44.8489C144.355 44.6763 144.369 44.5002 144.396 44.3207C144.424 44.1343 144.459 43.9479 144.5 43.7615C144.548 43.5751 144.597 43.3956 144.645 43.2229L145.422 43.4197C145.394 43.5233 145.363 43.6476 145.328 43.7926C145.294 43.9306 145.263 44.0722 145.235 44.2171C145.215 44.3621 145.204 44.4933 145.204 44.6107C145.204 44.9697 145.294 45.2597 145.474 45.4806C145.66 45.6946 145.981 45.8534 146.437 45.957C146.893 46.0536 147.531 46.102 148.352 46.102L148.559 46.6198L148.083 46.9512ZM149.813 42.5809C149.668 42.5809 149.544 42.5326 149.44 42.4359C149.343 42.3323 149.295 42.2115 149.295 42.0734C149.295 41.9353 149.343 41.8145 149.44 41.711C149.544 41.6074 149.668 41.5556 149.813 41.5556C149.951 41.5556 150.068 41.6074 150.165 41.711C150.269 41.8145 150.32 41.9353 150.32 42.0734C150.32 42.2115 150.269 42.3323 150.165 42.4359C150.068 42.5326 149.951 42.5809 149.813 42.5809ZM148.394 42.5809C148.249 42.5809 148.125 42.5326 148.021 42.4359C147.924 42.3323 147.876 42.2115 147.876 42.0734C147.876 41.9353 147.924 41.8145 148.021 41.711C148.125 41.6074 148.249 41.5556 148.394 41.5556C148.532 41.5556 148.649 41.6074 148.746 41.711C148.85 41.8145 148.901 41.9353 148.901 42.0734C148.901 42.2115 148.85 42.3323 148.746 42.4359C148.649 42.5326 148.532 42.5809 148.394 42.5809ZM157.343 46.7855C156.791 46.7855 156.366 46.7233 156.07 46.599C155.78 46.4748 155.579 46.2815 155.469 46.0191C155.359 45.7567 155.297 45.4184 155.282 45.0042L155.075 39.3394H155.925L156.132 44.6728C156.146 45.0111 156.177 45.2735 156.225 45.4599C156.28 45.6394 156.397 45.7637 156.577 45.8327C156.763 45.9017 157.054 45.9363 157.447 45.9363C157.592 45.9363 157.695 45.9777 157.758 46.0606C157.827 46.1365 157.861 46.2297 157.861 46.3401C157.861 46.4507 157.813 46.5542 157.717 46.6508C157.62 46.7406 157.495 46.7855 157.343 46.7855ZM157.343 46.7855L157.447 45.9363C157.64 45.9363 157.803 45.8949 157.934 45.812C158.065 45.7291 158.193 45.5911 158.317 45.3977C158.441 45.2044 158.576 44.9455 158.721 44.621C158.921 44.1792 159.118 43.8443 159.311 43.6165C159.511 43.3886 159.708 43.2333 159.902 43.1504C160.102 43.0676 160.298 43.0262 160.492 43.0262C160.726 43.0262 160.944 43.0883 161.144 43.2126C161.345 43.33 161.521 43.4887 161.673 43.689C161.824 43.8892 161.942 44.1101 162.024 44.3517C162.114 44.5865 162.159 44.8213 162.159 45.056C162.159 45.4702 162.087 45.8016 161.942 46.0502C161.797 46.2918 161.61 46.4679 161.383 46.5783C161.162 46.6819 160.931 46.7337 160.689 46.7337C160.475 46.7337 160.199 46.6923 159.86 46.6094C159.529 46.5265 159.108 46.316 158.597 45.9777L159 45.3252C159.339 45.5393 159.643 45.6877 159.912 45.7706C160.188 45.8465 160.416 45.8845 160.596 45.8845C160.796 45.8845 160.955 45.8569 161.072 45.8016C161.189 45.7395 161.275 45.6532 161.331 45.5427C161.386 45.4323 161.414 45.308 161.414 45.1699C161.414 44.9697 161.365 44.7695 161.268 44.5692C161.172 44.3691 161.048 44.2034 160.896 44.0722C160.751 43.9409 160.596 43.8754 160.43 43.8754C160.305 43.8754 160.185 43.9099 160.067 43.979C159.95 44.048 159.829 44.1757 159.705 44.3621C159.58 44.5485 159.439 44.8178 159.28 45.1699C159.115 45.5427 158.956 45.8396 158.804 46.0606C158.659 46.2746 158.511 46.4333 158.359 46.5369C158.207 46.6405 158.048 46.7061 157.882 46.7337C157.724 46.7682 157.544 46.7855 157.343 46.7855ZM165.011 45.9363C165.357 45.9363 165.629 45.9017 165.829 45.8327C166.036 45.7637 166.185 45.6635 166.274 45.5324C166.371 45.3943 166.42 45.2355 166.42 45.056C166.42 44.9179 166.382 44.7522 166.305 44.5589C166.237 44.3656 166.14 44.1516 166.016 43.9168C165.891 43.6751 165.747 43.4232 165.581 43.1608C165.422 42.8916 165.249 42.6188 165.063 42.3427L165.778 41.8767C166.047 42.284 166.281 42.6706 166.482 43.0365C166.682 43.3955 166.851 43.7339 166.989 44.0515C167.127 44.3621 167.238 44.6556 167.321 44.9317C167.418 45.2355 167.524 45.4599 167.642 45.6049C167.766 45.7499 167.894 45.8431 168.025 45.8845C168.156 45.919 168.277 45.9363 168.388 45.9363C168.533 45.9363 168.639 45.9777 168.709 46.0606C168.778 46.1365 168.812 46.2297 168.812 46.3401C168.812 46.4507 168.764 46.5542 168.667 46.6508C168.57 46.7406 168.446 46.7855 168.294 46.7855C168.066 46.7855 167.842 46.744 167.621 46.6612C167.407 46.5715 167.221 46.4299 167.062 46.2366C166.903 46.0364 166.792 45.7706 166.73 45.4391L167.145 45.1078C167.145 45.384 167.086 45.6532 166.968 45.9156C166.851 46.171 166.637 46.3816 166.327 46.5473C166.023 46.713 165.584 46.7958 165.011 46.7958C164.763 46.7958 164.521 46.7751 164.286 46.7337C164.059 46.6923 163.848 46.6336 163.654 46.5576C163.462 46.4748 163.292 46.3782 163.147 46.2677L163.561 45.5531C163.7 45.6428 163.893 45.7291 164.141 45.812C164.39 45.8949 164.68 45.9363 165.011 45.9363ZM174.894 46.7855C174.603 46.7855 174.338 46.7682 174.096 46.7337C173.854 46.6923 173.637 46.6198 173.444 46.5162C173.25 46.4126 173.088 46.2642 172.957 46.0709C172.826 45.8707 172.725 45.6083 172.657 45.2838L173.267 44.9214C173.357 45.1975 173.468 45.4081 173.599 45.5531C173.73 45.6981 173.906 45.7982 174.127 45.8534C174.355 45.9087 174.645 45.9363 174.997 45.9363C175.142 45.9363 175.246 45.9777 175.308 46.0606C175.377 46.1365 175.411 46.2297 175.411 46.3401C175.411 46.4507 175.363 46.5542 175.266 46.6508C175.169 46.7406 175.045 46.7855 174.894 46.7855ZM168.297 46.7855L168.39 45.9363C168.749 45.9363 169.101 45.9087 169.446 45.8534C169.791 45.7982 170.129 45.7188 170.461 45.6152C170.792 45.5116 171.11 45.3874 171.414 45.2424C171.724 45.0905 172.018 44.9179 172.294 44.7246C172.115 44.5658 171.907 44.4277 171.673 44.3103C171.438 44.193 171.179 44.1032 170.896 44.0411C170.62 43.972 170.327 43.9376 170.016 43.9376C169.905 43.9376 169.802 43.9409 169.705 43.9479C169.608 43.9548 169.512 43.9686 169.415 43.9893C169.318 44.0031 169.208 44.0238 169.084 44.0515L168.918 43.2643C169.104 43.2092 169.291 43.1677 169.477 43.1401C169.664 43.1056 169.843 43.0883 170.016 43.0883C170.375 43.0883 170.699 43.1332 170.989 43.2229C171.279 43.3058 171.541 43.4093 171.776 43.5336C172.018 43.6579 172.242 43.7822 172.449 43.9065C172.663 44.0308 172.87 44.1377 173.071 44.2275C173.271 44.3103 173.478 44.3517 173.692 44.3517H173.91L173.982 45.0974C173.686 45.0974 173.413 45.1389 173.164 45.2217C172.915 45.3045 172.67 45.4116 172.429 45.5427C172.194 45.667 171.945 45.8016 171.683 45.9466C171.42 46.0847 171.131 46.2193 170.813 46.3505C170.495 46.4748 170.129 46.5783 169.715 46.6612C169.308 46.744 168.835 46.7855 168.297 46.7855ZM169.922 42.0216C169.778 42.0216 169.653 41.9733 169.549 41.8767C169.453 41.7731 169.404 41.6522 169.404 41.5142C169.404 41.3761 169.453 41.2553 169.549 41.1517C169.653 41.0481 169.778 40.9963 169.922 40.9963C170.061 40.9963 170.178 41.0481 170.274 41.1517C170.378 41.2553 170.43 41.3761 170.43 41.5142C170.43 41.6522 170.378 41.7731 170.274 41.8767C170.178 41.9733 170.061 42.0216 169.922 42.0216ZM174.89 46.7855L174.984 45.9363C175.377 45.9363 175.653 45.8983 175.812 45.8224C175.971 45.7464 176.061 45.6118 176.082 45.4184C176.109 45.2251 176.116 44.9559 176.102 44.6107L175.906 39.3394H176.744L176.951 44.5175C176.965 44.8834 176.951 45.2079 176.91 45.4909C176.876 45.7741 176.786 46.0122 176.64 46.2056C176.503 46.3989 176.292 46.5439 176.009 46.6405C175.733 46.7372 175.36 46.7855 174.89 46.7855ZM180.602 46.744C180.602 46.5783 180.616 46.4023 180.643 46.2159C180.678 46.0226 180.726 45.8189 180.788 45.6049C180.857 45.384 180.94 45.1526 181.037 44.911L181.782 45.201C181.714 45.3943 181.651 45.5773 181.596 45.7499C181.547 45.9224 181.51 46.0847 181.482 46.2366C181.461 46.3885 181.451 46.5335 181.451 46.6715C181.451 46.9615 181.513 47.2066 181.637 47.4069C181.769 47.6139 181.948 47.7831 182.176 47.9143C182.404 48.0455 182.662 48.1422 182.953 48.2043C183.25 48.2664 183.564 48.2975 183.895 48.2975C184.295 48.2975 184.668 48.263 185.014 48.1939C185.366 48.1249 185.673 48.0247 185.935 47.8936C186.204 47.7693 186.415 47.6243 186.567 47.4586C186.719 47.2998 186.795 47.1273 186.795 46.9408C186.795 46.8511 186.76 46.7682 186.691 46.6923C186.622 46.6163 186.519 46.5439 186.38 46.4748C186.243 46.4057 186.077 46.3402 185.884 46.278C185.69 46.209 185.469 46.1399 185.221 46.0709L185.417 45.2113C185.776 45.3494 186.094 45.4668 186.37 45.5634C186.646 45.6532 186.888 45.7257 187.095 45.7809C187.302 45.8362 187.482 45.8776 187.634 45.9052C187.786 45.9259 187.914 45.9363 188.017 45.9363C188.162 45.9363 188.265 45.9777 188.328 46.0606C188.397 46.1365 188.431 46.2297 188.431 46.3401C188.431 46.4507 188.383 46.5542 188.286 46.6508C188.189 46.7406 188.065 46.7855 187.914 46.7855C187.872 46.7855 187.83 46.7855 187.789 46.7855C187.748 46.7855 187.702 46.7855 187.654 46.7855C187.613 46.7855 187.572 46.7855 187.53 46.7855C187.544 46.8476 187.554 46.8959 187.561 46.9305C187.568 46.9719 187.572 47.0237 187.572 47.0858C187.572 47.3413 187.482 47.5898 187.302 47.8314C187.129 48.0731 186.874 48.2905 186.536 48.4839C186.197 48.6841 185.787 48.8429 185.304 48.9603C184.827 49.0777 184.282 49.1363 183.667 49.1363C183.122 49.1363 182.614 49.0466 182.145 48.8671C181.682 48.6945 181.309 48.4321 181.027 48.08C180.743 47.7279 180.602 47.2826 180.602 46.744ZM187.916 46.7855L188.02 45.9363C188.214 45.9363 188.376 45.8949 188.507 45.812C188.638 45.7291 188.766 45.5911 188.89 45.3977C189.014 45.2044 189.149 44.9455 189.294 44.621C189.494 44.1792 189.691 43.8443 189.884 43.6165C190.085 43.3886 190.281 43.2333 190.475 43.1504C190.675 43.0676 190.872 43.0262 191.065 43.0262C191.299 43.0262 191.517 43.0883 191.718 43.2126C191.918 43.33 192.094 43.4887 192.246 43.689C192.397 43.8892 192.515 44.1101 192.597 44.3517C192.687 44.5865 192.732 44.8213 192.732 45.056C192.732 45.4702 192.66 45.8016 192.515 46.0502C192.37 46.2918 192.183 46.4679 191.956 46.5783C191.735 46.6819 191.504 46.7337 191.262 46.7337C191.048 46.7337 190.772 46.6923 190.433 46.6094C190.102 46.5265 189.681 46.316 189.17 45.9777L189.573 45.3252C189.912 45.5393 190.216 45.6877 190.485 45.7706C190.761 45.8465 190.989 45.8845 191.169 45.8845C191.369 45.8845 191.528 45.8569 191.645 45.8016C191.762 45.7395 191.848 45.6532 191.904 45.5427C191.959 45.4323 191.987 45.308 191.987 45.1699C191.987 44.9697 191.938 44.7695 191.841 44.5692C191.745 44.3691 191.621 44.2034 191.469 44.0722C191.324 43.9409 191.169 43.8754 191.003 43.8754C190.878 43.8754 190.758 43.9099 190.64 43.979C190.523 44.048 190.402 44.1757 190.278 44.3621C190.153 44.5485 190.012 44.8178 189.853 45.1699C189.688 45.5427 189.529 45.8396 189.377 46.0606C189.232 46.2746 189.084 46.4333 188.932 46.5369C188.78 46.6405 188.621 46.7061 188.456 46.7337C188.297 46.7682 188.117 46.7855 187.916 46.7855ZM196.371 46.7855C195.819 46.7855 195.395 46.7233 195.097 46.599C194.808 46.4748 194.608 46.2815 194.497 46.0191C194.386 45.7567 194.324 45.4184 194.311 45.0042L194.103 39.3394H194.952L195.159 44.6728C195.174 45.0111 195.205 45.2735 195.253 45.4599C195.308 45.6394 195.426 45.7637 195.605 45.8327C195.791 45.9017 196.081 45.9363 196.475 45.9363C196.62 45.9363 196.724 45.9777 196.786 46.0606C196.854 46.1365 196.889 46.2297 196.889 46.3401C196.889 46.4507 196.841 46.5542 196.744 46.6508C196.647 46.7406 196.523 46.7855 196.371 46.7855ZM196.372 46.7855L196.475 45.9363C196.696 45.9363 196.876 45.9224 197.013 45.8949C197.152 45.8603 197.266 45.7809 197.355 45.6566C197.452 45.5255 197.542 45.3218 197.625 45.0457C197.707 44.7695 197.804 44.3828 197.914 43.8858L198.692 44.1032C198.65 44.2759 198.602 44.4829 198.547 44.7246C198.491 44.9662 198.463 45.1872 198.463 45.3874C198.463 45.4979 198.491 45.5945 198.547 45.6774C198.602 45.7602 198.695 45.8258 198.826 45.8741C198.964 45.9156 199.147 45.9363 199.375 45.9363C199.582 45.9363 199.751 45.919 199.882 45.8845C200.014 45.8499 200.12 45.7671 200.204 45.6359C200.293 45.5048 200.372 45.2942 200.442 45.0042C200.51 44.7142 200.583 44.3173 200.659 43.8133L201.446 43.9583C201.425 44.0825 201.401 44.2344 201.374 44.4139C201.346 44.5934 201.319 44.7729 201.291 44.9525C201.27 45.125 201.26 45.27 201.26 45.3874C201.26 45.4841 201.28 45.5773 201.322 45.667C201.37 45.7499 201.46 45.8155 201.591 45.8638C201.729 45.9121 201.933 45.9363 202.202 45.9363C202.547 45.9363 202.796 45.8638 202.948 45.7188C203.107 45.5738 203.186 45.3529 203.186 45.056C203.186 44.8972 203.182 44.7315 203.175 44.5589C203.168 44.3794 203.155 44.1826 203.134 43.9686C203.12 43.7476 203.096 43.4957 203.062 43.2126L203.818 43.1608C203.859 43.7201 203.904 44.1792 203.953 44.5382C204.008 44.8972 204.083 45.1803 204.18 45.3874C204.284 45.5876 204.422 45.7291 204.594 45.812C204.767 45.8949 204.995 45.9363 205.278 45.9363C205.423 45.9363 205.526 45.9777 205.588 46.0606C205.658 46.1365 205.692 46.2297 205.692 46.3401C205.692 46.4507 205.644 46.5542 205.547 46.6508C205.451 46.7406 205.326 46.7855 205.174 46.7855C204.94 46.7855 204.729 46.7544 204.543 46.6923C204.363 46.6232 204.204 46.5335 204.066 46.423C203.935 46.3057 203.825 46.1745 203.735 46.0295C203.652 45.8776 203.593 45.7188 203.559 45.5531L203.745 45.6152C203.669 45.9259 203.548 46.1675 203.382 46.3401C203.224 46.5058 203.034 46.6232 202.813 46.6923C202.592 46.7544 202.357 46.7855 202.109 46.7855C201.805 46.7855 201.557 46.7475 201.363 46.6715C201.17 46.5956 201.018 46.4817 200.907 46.3298C200.804 46.171 200.735 45.9708 200.7 45.7291H201.053C200.921 46.026 200.783 46.2504 200.638 46.4023C200.493 46.5542 200.314 46.6578 200.1 46.713C199.886 46.7613 199.603 46.7855 199.25 46.7855C199.078 46.7855 198.891 46.7579 198.692 46.7026C198.498 46.6474 198.329 46.5404 198.184 46.3816C198.039 46.2159 197.952 45.9708 197.925 45.6463L198.236 45.5841C198.118 45.9363 197.973 46.1986 197.801 46.3712C197.635 46.5369 197.435 46.6474 197.2 46.7026C196.965 46.7579 196.689 46.7855 196.372 46.7855ZM205.17 46.7855L205.274 45.9363C205.681 45.9363 205.999 45.9224 206.226 45.8949C206.455 45.8603 206.616 45.7809 206.713 45.6566C206.81 45.5255 206.858 45.3218 206.858 45.0457C206.858 44.873 206.83 44.6693 206.775 44.4346C206.72 44.193 206.647 43.9376 206.558 43.6683C206.468 43.399 206.372 43.1332 206.268 42.8709L207.107 42.5602C207.196 42.7811 207.28 43.0331 207.355 43.3161C207.438 43.5993 207.507 43.8788 207.562 44.155C207.618 44.4312 207.645 44.6728 207.645 44.88C207.645 45.2251 207.597 45.5186 207.5 45.7602C207.411 46.0018 207.266 46.1986 207.066 46.3505C206.865 46.5024 206.606 46.6129 206.288 46.6819C205.978 46.7509 205.605 46.7855 205.17 46.7855ZM207.428 41.4831C207.283 41.4831 207.159 41.4348 207.055 41.3381C206.958 41.2345 206.91 41.1137 206.91 40.9756C206.91 40.8376 206.958 40.7168 207.055 40.6132C207.159 40.5096 207.283 40.4579 207.428 40.4579C207.566 40.4579 207.683 40.5096 207.78 40.6132C207.884 40.7168 207.935 40.8376 207.935 40.9756C207.935 41.1137 207.884 41.2345 207.78 41.3381C207.683 41.4348 207.566 41.4831 207.428 41.4831ZM206.009 41.4831C205.864 41.4831 205.739 41.4348 205.636 41.3381C205.54 41.2345 205.491 41.1137 205.491 40.9756C205.491 40.8376 205.54 40.7168 205.636 40.6132C205.739 40.5096 205.864 40.4579 206.009 40.4579C206.147 40.4579 206.264 40.5096 206.361 40.6132C206.464 40.7168 206.517 40.8376 206.517 40.9756C206.517 41.1137 206.464 41.2345 206.361 41.3381C206.264 41.4348 206.147 41.4831 206.009 41.4831Z" fill="white"/>
</g>
<defs>
<clipPath id="clip0_1514_9639">
<rect width="241.645" height="50.2118" fill="white"/>
</clipPath>
</defs>
</svg>
