<svg preserveAspectRatio="none" width="100%" height="100%" overflow="visible" style="display: block;" viewBox="0 0 17.499 19.0114" fill="none" xmlns="http://www.w3.org/2000/svg">
<g id="Group">
<g id="Vector">
<mask id="path-1-inside-1_0_4" fill="white">
<path d="M8.8201 18.5497L8.8301 18.548C8.83677 18.5491 8.84121 18.5541 8.84344 18.563L8.8576 18.9189L8.85427 18.933L8.84427 18.9464L8.7576 19.008L8.7476 19.0114L8.7351 19.008L8.64844 18.9464L8.6401 18.9355L8.63594 18.9189L8.6501 18.5622L8.65344 18.5539C8.65788 18.5483 8.66455 18.5466 8.67344 18.5489L8.7326 18.5789L8.74427 18.5822L8.76094 18.5789L8.8201 18.5497Z"/>
<path d="M9.03844 18.4555L9.0501 18.4539C9.05844 18.4555 9.06399 18.4616 9.06677 18.4722L9.0951 18.9839L9.09177 18.9955C9.08622 19.0028 9.07816 19.005 9.0676 19.0022L8.9001 18.9255L8.89344 18.9189L8.88927 18.9089L8.87427 18.5505L8.87677 18.5414L8.8851 18.533L9.03844 18.4555Z"/>
<path d="M8.44202 18.4535C8.44621 18.4526 8.4506 18.4533 8.45427 18.4555L8.6076 18.5322L8.61594 18.5405L8.61844 18.5505L8.60344 18.9089L8.60094 18.918L8.5926 18.9247L8.4251 19.0022L8.4126 19.0039C8.40372 19.0005 8.39899 18.9939 8.39844 18.9839L8.42677 18.4722L8.43177 18.4605C8.43415 18.457 8.43783 18.4545 8.44202 18.4535Z"/>
</mask>
<path d="M8.8301 18.548L8.89586 18.1535L8.83009 18.1425L8.76432 18.1535L8.8301 18.548ZM8.8201 18.5497L8.75432 18.1552L8.69614 18.1649L8.64324 18.1909L8.8201 18.5497ZM8.76094 18.5789L8.83938 18.9711L8.89078 18.9608L8.9378 18.9376L8.76094 18.5789ZM8.74427 18.5822L8.63439 18.9668L8.72763 18.9935L8.82271 18.9744L8.74427 18.5822ZM8.7326 18.5789L8.55171 18.9356L8.58588 18.953L8.62272 18.9635L8.7326 18.5789ZM8.67344 18.5489L8.85433 18.1921L8.81415 18.1717L8.77045 18.1608L8.67344 18.5489ZM8.65344 18.5539L8.34109 18.304L8.30406 18.3503L8.28204 18.4053L8.65344 18.5539ZM8.6501 18.5622L8.27871 18.4137L8.25315 18.4776L8.25042 18.5463L8.6501 18.5622ZM8.63594 18.9189L8.23625 18.903L8.23398 18.9603L8.24788 19.0159L8.63594 18.9189ZM8.6401 18.9355L8.25205 19.0326L8.27225 19.1134L8.32305 19.1794L8.6401 18.9355ZM8.64844 18.9464L8.33139 19.1903L8.36783 19.2376L8.41654 19.2723L8.64844 18.9464ZM8.7351 19.008L8.5032 19.334L8.56215 19.3759L8.63205 19.3945L8.7351 19.008ZM8.7476 19.0114L8.64455 19.3979L8.76037 19.4287L8.87409 19.3908L8.7476 19.0114ZM8.7576 19.008L8.88409 19.3875L8.9408 19.3686L8.9895 19.334L8.7576 19.008ZM8.84427 18.9464L9.07617 19.2723L9.12691 19.2362L9.16428 19.1864L8.84427 18.9464ZM8.85427 18.933L9.17428 19.173L9.22448 19.1061L9.24364 19.0246L8.85427 18.933ZM8.8576 18.9189L9.24697 19.0105L9.25946 18.9574L9.25729 18.903L8.8576 18.9189ZM8.84344 18.563L9.24312 18.5471L9.24148 18.506L9.23149 18.466L8.84344 18.563ZM9.0501 18.4539L9.12855 18.0616L9.06138 18.0482L8.99357 18.0579L9.0501 18.4539ZM9.03844 18.4555L8.9819 18.0596L8.91674 18.0689L8.858 18.0985L9.03844 18.4555ZM8.8851 18.533L8.70467 18.176L8.64753 18.2049L8.60226 18.2502L8.8851 18.533ZM8.87677 18.5414L8.59393 18.2585L8.51881 18.3336L8.49086 18.4361L8.87677 18.5414ZM8.87427 18.5505L8.48836 18.4453L8.47202 18.5052L8.47462 18.5673L8.87427 18.5505ZM8.88927 18.9089L8.48962 18.9256L8.4926 18.9969L8.52005 19.0627L8.88927 18.9089ZM8.89344 18.9189L8.52421 19.0727L8.55464 19.1458L8.61058 19.2017L8.89344 18.9189ZM8.9001 18.9255L8.61724 19.2084L8.66816 19.2593L8.73363 19.2893L8.9001 18.9255ZM9.0676 19.0022L8.90113 19.3659L8.93247 19.3803L8.96581 19.389L9.0676 19.0022ZM9.09177 18.9955L9.40882 19.2394L9.4554 19.1789L9.47638 19.1054L9.09177 18.9955ZM9.0951 18.9839L9.47972 19.0938L9.49822 19.029L9.49449 18.9618L9.0951 18.9839ZM9.06677 18.4722L9.46616 18.4501L9.46392 18.4096L9.4536 18.3704L9.06677 18.4722ZM8.45427 18.4555L8.24696 18.7976L8.26085 18.806L8.27538 18.8133L8.45427 18.4555ZM8.44202 18.4535L8.35525 18.063H8.35525L8.44202 18.4535ZM8.43177 18.4605L8.09909 18.2385L8.07863 18.2691L8.06412 18.303L8.43177 18.4605ZM8.42677 18.4722L8.05912 18.3146L8.03129 18.3796L8.02738 18.4501L8.42677 18.4722ZM8.39844 18.9839L7.99905 18.9618L7.99782 18.9839L7.99905 19.0061L8.39844 18.9839ZM8.4126 19.0039L8.27216 19.3784L8.36607 19.4136L8.46549 19.4004L8.4126 19.0039ZM8.4251 19.0022L8.47799 19.3987L8.53807 19.3907L8.59307 19.3652L8.4251 19.0022ZM8.5926 18.9247L8.76057 19.2877L8.80459 19.2674L8.84247 19.2371L8.5926 18.9247ZM8.60094 18.918L8.8508 19.2304L8.95257 19.149L8.98685 19.0233L8.60094 18.918ZM8.60344 18.9089L8.98935 19.0141L9.0012 18.9706L9.00309 18.9256L8.60344 18.9089ZM8.61844 18.5505L9.01809 18.5673L9.0205 18.5096L9.00649 18.4535L8.61844 18.5505ZM8.61594 18.5405L9.00399 18.4435L8.97712 18.336L8.89878 18.2577L8.61594 18.5405ZM8.6076 18.5322L8.89045 18.2494L8.84455 18.2035L8.78649 18.1744L8.6076 18.5322ZM8.8301 18.548L8.76432 18.1535L8.75432 18.1552L8.8201 18.5497L8.88589 18.9443L8.89589 18.9426L8.8301 18.548ZM8.8201 18.5497L8.64324 18.1909L8.58408 18.2201L8.76094 18.5789L8.9378 18.9376L8.99696 18.9085L8.8201 18.5497ZM8.76094 18.5789L8.68249 18.1866L8.66583 18.19L8.74427 18.5822L8.82271 18.9744L8.83938 18.9711L8.76094 18.5789ZM8.74427 18.5822L8.85415 18.1976L8.84249 18.1943L8.7326 18.5789L8.62272 18.9635L8.63439 18.9668L8.74427 18.5822ZM8.7326 18.5789L8.91349 18.2221L8.85433 18.1921L8.67344 18.5489L8.49255 18.9056L8.55171 18.9356L8.7326 18.5789ZM8.67344 18.5489L8.77045 18.1608C8.72273 18.1489 8.64949 18.1392 8.56479 18.1604C8.47331 18.1833 8.39596 18.2354 8.34109 18.304L8.65344 18.5539L8.96578 18.8037C8.91536 18.8668 8.84356 18.9153 8.75875 18.9365C8.68072 18.956 8.61526 18.9466 8.57642 18.9369L8.67344 18.5489ZM8.65344 18.5539L8.28204 18.4053L8.27871 18.4137L8.6501 18.5622L9.0215 18.7107L9.02483 18.7024L8.65344 18.5539ZM8.6501 18.5622L8.25042 18.5463L8.23625 18.903L8.63594 18.9189L9.03562 18.9347L9.04979 18.5781L8.6501 18.5622ZM8.63594 18.9189L8.24788 19.0159L8.25205 19.0326L8.6401 18.9355L9.02816 18.8385L9.02399 18.8219L8.63594 18.9189ZM8.6401 18.9355L8.32305 19.1794L8.33139 19.1903L8.64844 18.9464L8.96549 18.7025L8.95716 18.6917L8.6401 18.9355ZM8.64844 18.9464L8.41654 19.2723L8.5032 19.334L8.7351 19.008L8.96701 18.6821L8.88034 18.6205L8.64844 18.9464ZM8.7351 19.008L8.63205 19.3945L8.64455 19.3979L8.7476 19.0114L8.85066 18.6249L8.83816 18.6215L8.7351 19.008ZM8.7476 19.0114L8.87409 19.3908L8.88409 19.3875L8.7576 19.008L8.63112 18.6286L8.62112 18.6319L8.7476 19.0114ZM8.7576 19.008L8.9895 19.334L9.07617 19.2723L8.84427 18.9464L8.61237 18.6205L8.5257 18.6821L8.7576 19.008ZM8.84427 18.9464L9.16428 19.1864L9.17428 19.173L8.85427 18.933L8.53427 18.693L8.52427 18.7064L8.84427 18.9464ZM8.85427 18.933L9.24364 19.0246L9.24697 19.0105L8.8576 18.9189L8.46824 18.8273L8.4649 18.8414L8.85427 18.933ZM8.8576 18.9189L9.25729 18.903L9.24312 18.5471L8.84344 18.563L8.44375 18.5789L8.45792 18.9348L8.8576 18.9189ZM8.84344 18.563L9.23149 18.466C9.20703 18.3682 9.11691 18.1903 8.89586 18.1535L8.8301 18.548L8.76434 18.9426C8.67852 18.9283 8.59866 18.885 8.53947 18.8184C8.48594 18.7581 8.46442 18.6962 8.45538 18.6601L8.84344 18.563ZM9.0501 18.4539L8.99357 18.0579L8.9819 18.0596L9.03844 18.4555L9.09498 18.8515L9.10664 18.8499L9.0501 18.4539ZM9.03844 18.4555L8.858 18.0985L8.70467 18.176L8.8851 18.533L9.06554 18.89L9.21887 18.8125L9.03844 18.4555ZM8.8851 18.533L8.60226 18.2502L8.59393 18.2585L8.87677 18.5414L9.15961 18.8242L9.16795 18.8159L8.8851 18.533ZM8.87677 18.5414L8.49086 18.4361L8.48836 18.4453L8.87427 18.5505L9.26018 18.6558L9.26268 18.6466L8.87677 18.5414ZM8.87427 18.5505L8.47462 18.5673L8.48962 18.9256L8.88927 18.9089L9.28892 18.8921L9.27392 18.5338L8.87427 18.5505ZM8.88927 18.9089L8.52005 19.0627L8.52421 19.0727L8.89344 18.9189L9.26266 18.765L9.2585 18.755L8.88927 18.9089ZM8.89344 18.9189L8.61058 19.2017L8.61724 19.2084L8.9001 18.9255L9.18296 18.6427L9.1763 18.636L8.89344 18.9189ZM8.9001 18.9255L8.73363 19.2893L8.90113 19.3659L9.0676 19.0022L9.23408 18.6385L9.06658 18.5618L8.9001 18.9255ZM9.0676 19.0022L8.96581 19.389C9.01899 19.403 9.09806 19.413 9.18792 19.3882C9.28338 19.3619 9.35813 19.3053 9.40882 19.2394L9.09177 18.9955L8.77472 18.7517C8.81985 18.693 8.8878 18.6411 8.9752 18.617C9.05701 18.5945 9.12677 18.6042 9.1694 18.6154L9.0676 19.0022ZM9.09177 18.9955L9.47638 19.1054L9.47972 19.0938L9.0951 18.9839L8.71049 18.874L8.70716 18.8857L9.09177 18.9955ZM9.0951 18.9839L9.49449 18.9618L9.46616 18.4501L9.06677 18.4722L8.66738 18.4943L8.69572 19.006L9.0951 18.9839ZM9.06677 18.4722L9.4536 18.3704C9.4251 18.2621 9.33148 18.1022 9.12855 18.0616L9.0501 18.4539L8.97166 18.8461C8.89464 18.8307 8.82103 18.7909 8.76456 18.7288C8.71236 18.6714 8.68987 18.6117 8.67994 18.574L9.06677 18.4722ZM8.45427 18.4555L8.66159 18.1135C8.56973 18.0578 8.45999 18.0398 8.35525 18.063L8.44202 18.4535L8.52879 18.844C8.43243 18.8654 8.33147 18.8488 8.24696 18.7976L8.45427 18.4555ZM8.44202 18.4535L8.35525 18.063C8.25048 18.0863 8.1587 18.1491 8.09909 18.2385L8.43177 18.4605L8.76446 18.6826C8.70961 18.7648 8.62517 18.8226 8.52879 18.844L8.44202 18.4535ZM8.43177 18.4605L8.06412 18.303L8.05912 18.3146L8.42677 18.4722L8.79442 18.6298L8.79942 18.6181L8.43177 18.4605ZM8.42677 18.4722L8.02738 18.4501L7.99905 18.9618L8.39844 18.9839L8.79783 19.006L8.82616 18.4943L8.42677 18.4722ZM8.39844 18.9839L7.99905 19.0061C8.00256 19.0692 8.02122 19.1503 8.07599 19.2276C8.13174 19.3063 8.20525 19.3533 8.27216 19.3784L8.4126 19.0039L8.55305 18.6293C8.61107 18.6511 8.67777 18.6931 8.72881 18.7652C8.77885 18.8358 8.79487 18.9085 8.79782 18.9617L8.39844 18.9839ZM8.4126 19.0039L8.46549 19.4004L8.47799 19.3987L8.4251 19.0022L8.37221 18.6057L8.35971 18.6074L8.4126 19.0039ZM8.4251 19.0022L8.59307 19.3652L8.76057 19.2877L8.5926 18.9247L8.42464 18.5617L8.25714 18.6392L8.4251 19.0022ZM8.5926 18.9247L8.84247 19.2371L8.8508 19.2304L8.60094 18.918L8.35107 18.6057L8.34274 18.6123L8.5926 18.9247ZM8.60094 18.918L8.98685 19.0233L8.98935 19.0141L8.60344 18.9089L8.21753 18.8036L8.21503 18.8128L8.60094 18.918ZM8.60344 18.9089L9.00309 18.9256L9.01809 18.5673L8.61844 18.5505L8.21879 18.5338L8.20379 18.8921L8.60344 18.9089ZM8.61844 18.5505L9.00649 18.4535L9.00399 18.4435L8.61594 18.5405L8.22788 18.6376L8.23038 18.6476L8.61844 18.5505ZM8.61594 18.5405L8.89878 18.2577L8.89045 18.2494L8.6076 18.5322L8.32476 18.815L8.33309 18.8234L8.61594 18.5405ZM8.6076 18.5322L8.78649 18.1744L8.63316 18.0978L8.45427 18.4555L8.27538 18.8133L8.42872 18.89L8.6076 18.5322Z" fill="var(--stroke-0, #303889)" mask="url(#path-1-inside-1_0_4)"/>
</g>
<path id="Vector_2" d="M8.33301 1.0332C8.6386 1.0332 8.93991 1.04953 9.23633 1.08203C9.40323 1.10049 9.55607 1.18446 9.66113 1.31543C9.76621 1.44664 9.81536 1.61515 9.79688 1.78223C9.7783 1.94913 9.6936 2.10205 9.5625 2.20703C9.43151 2.31179 9.26439 2.36007 9.09766 2.3418C8.13741 2.2343 7.16459 2.33106 6.24414 2.625C5.32384 2.91894 4.47598 3.40382 3.75586 4.04785C3.03564 4.692 2.4589 5.48121 2.06445 6.36328C1.67013 7.24524 1.46672 8.20089 1.4668 9.16699V16.0332H8.33301C10.154 16.0332 11.9008 15.31 13.1885 14.0225C14.4761 12.7348 15.2001 10.988 15.2002 9.16699C15.2002 9.03792 15.1965 8.90945 15.1895 8.78223L15.1582 8.40234C15.1492 8.31997 15.1566 8.23682 15.1797 8.15723C15.2029 8.07738 15.241 8.00241 15.293 7.9375C15.3979 7.8064 15.5508 7.7226 15.7178 7.7041C15.8847 7.68562 16.0525 7.73387 16.1836 7.83887C16.2485 7.89084 16.3027 7.95548 16.3428 8.02832C16.3628 8.06479 16.3791 8.10309 16.3916 8.14258L16.417 8.26367C16.45 8.56003 16.4668 8.86145 16.4668 9.16699C16.4666 13.6589 12.8249 17.2998 8.33301 17.2998H1.66699C1.27801 17.2998 0.904936 17.1452 0.629883 16.8701C0.354829 16.5951 0.200195 16.222 0.200195 15.833V9.16699C0.200195 4.67506 3.84111 1.03338 8.33301 1.0332ZM5.83301 11.0332H8.33301C8.50098 11.0332 8.66248 11.1 8.78125 11.2188C8.90002 11.3375 8.9668 11.499 8.9668 11.667C8.96671 11.8348 8.89984 11.9956 8.78125 12.1143C8.66248 12.233 8.50098 12.2998 8.33301 12.2998H5.83301C5.66515 12.2997 5.50444 12.233 5.38574 12.1143C5.26705 11.9956 5.20028 11.8348 5.2002 11.667C5.2002 11.499 5.26697 11.3375 5.38574 11.2188C5.50442 11.1002 5.66523 11.0333 5.83301 11.0332ZM5.83301 7.7002H10.833C11.001 7.7002 11.1625 7.76697 11.2812 7.88574C11.3998 8.00442 11.4667 8.16523 11.4668 8.33301C11.4668 8.50098 11.4 8.66248 11.2812 8.78125C11.1625 8.90002 11.001 8.9668 10.833 8.9668H5.83301C5.66523 8.96671 5.50442 8.89984 5.38574 8.78125C5.26697 8.66248 5.2002 8.50098 5.2002 8.33301C5.20028 8.16515 5.26705 8.00444 5.38574 7.88574C5.50444 7.76705 5.66515 7.70028 5.83301 7.7002ZM14.167 0.200195C14.299 0.200332 14.4278 0.241555 14.5352 0.318359C14.6156 0.375946 14.6809 0.451384 14.7266 0.538086L14.7656 0.628906L14.874 0.944336C15.1441 1.73501 15.7649 2.35691 16.5566 2.62695L16.8711 2.73438C16.9958 2.77713 17.104 2.85766 17.1807 2.96484C17.2573 3.07218 17.2988 3.2011 17.2988 3.33301C17.2988 3.46501 17.2574 3.59376 17.1807 3.70117C17.1039 3.80858 16.996 3.88982 16.8711 3.93262L16.5557 4.04102C15.8144 4.29421 15.2214 4.85551 14.9277 5.57715L14.873 5.72363L14.7656 6.03809C14.7228 6.1627 14.6423 6.27101 14.5352 6.34766C14.4278 6.42434 14.2989 6.46575 14.167 6.46582C14.0351 6.46582 13.9062 6.42431 13.7988 6.34766C13.6915 6.27098 13.6102 6.16284 13.5674 6.03809V6.03711L13.459 5.72266C13.3257 5.3323 13.1052 4.97722 12.8135 4.68555C12.5582 4.43027 12.2544 4.22932 11.9209 4.09375L11.7764 4.04004L11.4619 3.93262C11.3372 3.88979 11.229 3.8085 11.1523 3.70117C11.0757 3.59379 11.0342 3.46495 11.0342 3.33301C11.0342 3.2011 11.0757 3.07218 11.1523 2.96484C11.229 2.85766 11.3373 2.77718 11.4619 2.73438H11.4629L11.7773 2.62598C12.5681 2.35601 13.1899 1.73515 13.46 0.943359L13.5625 0.642578L13.6094 0.530273C13.6633 0.431217 13.7431 0.348156 13.8398 0.290039C13.9385 0.230843 14.052 0.200103 14.167 0.200195ZM14.0098 2.53906C13.8221 2.77514 13.6082 2.98916 13.3721 3.17676L13.1748 3.33398L13.373 3.49023C13.6103 3.67783 13.8222 3.89029 14.0098 4.12695L14.166 4.32422L14.3232 4.12695C14.5115 3.89063 14.7237 3.67849 14.96 3.49023L15.1572 3.33301L14.96 3.17676C14.7242 2.9891 14.5106 2.7751 14.3232 2.53906L14.167 2.3418L14.0098 2.53906Z" fill="var(--fill-0, white)" stroke="var(--stroke-0, #303889)" stroke-width="0.4"/>
</g>
</svg>
