<svg width="502" height="365" viewBox="0 0 502 365" fill="none" xmlns="http://www.w3.org/2000/svg">
<path d="M501.253 264.486V264.07L499.598 263.115L501.253 262.16V261.744L499.235 262.904L470.145 246.151L499.42 229.29L501.253 230.347V229.931L499.782 229.085L501.253 228.239V227.823L499.42 228.88L470.329 212.128L499.42 195.375L501.253 196.433V196.017L499.782 195.171L501.253 194.325V193.909L499.42 194.966L470.548 178.336L499.42 161.707L501.253 162.764V162.348L499.782 161.502L501.253 160.656V160.24L499.42 161.297L470.329 144.545L499.42 127.792L501.253 128.85V128.434L499.782 127.588L501.253 126.742V126.326L499.42 127.383L470.329 110.631L499.42 93.8781L501.253 94.9354V94.5193L499.782 93.6735L501.253 92.8277V92.4116L499.42 93.4689L470.582 76.8596L501.253 59.1999V58.7838L470.22 76.655L441.13 59.9025L501.253 25.2788V24.8627L440.774 59.691L411.684 42.9385L486.242 0H485.517L411.321 42.7339L382.231 25.9814L427.337 0.0068173H426.612L381.868 25.7767L352.593 8.91511L368.062 0.0068173H367.337L352.231 8.71048L337.125 0.0068173H336.4L351.868 8.91511L322.778 25.6676L293.687 8.91511L309.156 0.0068173H308.431L293.325 8.71048L278.219 0.0068173H277.494L292.963 8.91511L263.872 25.6676L235.001 9.03789L250.688 0.0068173H249.963L234.638 8.83326L219.313 0.0068173H218.589L234.276 9.03789L205.404 25.6676L176.314 8.91511L191.782 0.0068173H191.057L175.951 8.71048L160.845 0.0068173H160.12L175.589 8.91511L146.498 25.6676L101.94 0.0068173H101.215L146.136 25.8791L116.861 42.7407L42.6646 0.0068173H41.9397L116.498 42.9453L87.4081 59.6978L0.00683853 9.32438V9.74046L87.0456 59.8684L57.9552 76.6209L0.00683853 43.2455V43.6616L57.5928 76.8255L28.5023 93.578L0.00683853 77.1666V77.5826L28.1399 93.7826L0.00683853 109.983V110.399L28.5023 93.9873L57.5928 110.74L28.7553 127.349L0.00683853 110.788V111.204L28.3929 127.554L0.00683853 143.904V144.32L28.7553 127.765L57.627 144.395L28.5365 161.147L0 144.715V145.132L28.1741 161.359L0 177.586V178.002L28.5365 161.57L57.627 178.323L28.5365 195.075L0 178.643V179.059L28.1741 195.287L0 211.514V211.93L28.5365 195.498L57.8116 212.36L28.94 228.99L0.00683853 212.326V212.742L28.5776 229.194L0.00683853 245.647V246.063L28.94 229.399L58.0304 246.151L28.94 262.904L0.00683853 246.24V246.656L28.5776 263.108L0.00683853 279.561V279.977L28.94 263.313L58.0304 280.066L28.94 296.818L0.00683853 280.154V280.57L28.5844 297.03L0.00683853 313.482V313.898L28.94 297.234L58.0304 313.987L0.00683853 347.403V347.819L58.3928 314.191L87.2234 330.801L29.3503 364.128H30.0752L87.5858 331.005L116.676 347.758L88.256 364.128H88.9809L117.039 347.969L145.097 364.128H145.821L117.401 347.758L146.492 331.005L175.582 347.758L147.162 364.128H147.887L175.944 347.969L204.002 364.128H204.727L176.307 347.758L205.397 331.005L234.269 347.635L205.63 364.128H206.355L234.631 347.84L262.908 364.128H263.633L234.994 347.635L263.865 331.005L292.956 347.758L264.536 364.128H265.26L293.318 347.969L321.376 364.128H322.101L293.681 347.758L322.771 331.005L351.862 347.758L323.441 364.128H324.166L352.231 347.969L380.289 364.128H381.014L352.593 347.758L381.684 331.005L439.194 364.128H439.919L382.046 330.801L410.877 314.191L497.587 364.128H498.312L411.239 313.987L440.33 297.234L501.253 332.322V331.906L440.692 297.03L469.782 280.277L501.253 298.401V297.984L470.145 280.072L499.235 263.32L501.253 264.479V264.486ZM499.057 229.092L469.782 245.953L440.692 229.201L469.967 212.339L499.057 229.092ZM204.823 195.546L175.985 212.155L146.895 195.403L175.732 178.793L204.823 195.546ZM146.642 161.618L175.732 144.865L204.823 161.618L175.732 178.37L146.642 161.618ZM176.095 178.582L205.185 161.829L234.276 178.582L205.185 195.334L176.095 178.582ZM205.548 161.618L234.638 144.865L263.729 161.618L234.638 178.37L205.548 161.618ZM234.638 178.793L263.729 195.546L234.638 212.298L205.548 195.546L234.638 178.793ZM235.001 178.582L264.091 161.829L293.181 178.582L264.091 195.334L235.001 178.582ZM264.453 161.618L293.544 144.865L322.634 161.618L293.544 178.37L264.453 161.618ZM293.544 178.793L322.381 195.403L293.291 212.155L264.453 195.546L293.544 178.793ZM293.906 178.582L322.997 161.829L351.834 178.439L322.744 195.191L293.906 178.582ZM323.352 161.618L352.627 144.756L381.465 161.366L352.19 178.227L323.352 161.618ZM352.19 178.643L381.28 195.396L352.19 212.148L323.099 195.396L352.19 178.643ZM352.552 178.439L381.827 161.577L410.918 178.33L381.643 195.191L352.552 178.439ZM352.99 144.552L382.08 127.799L410.918 144.408L381.827 161.161L352.99 144.552ZM352.627 144.347L323.537 127.595L352.627 110.842L381.718 127.595L352.627 144.347ZM352.272 144.552L322.997 161.413L293.906 144.661L323.181 127.799L352.272 144.552ZM293.544 144.449L264.453 127.697L293.729 110.835L322.819 127.588L293.544 144.449ZM293.181 144.661L264.091 161.413L235.001 144.661L264.091 127.908L293.181 144.661ZM234.638 144.449L205.548 127.697L234.638 110.944L263.729 127.697L234.638 144.449ZM234.276 144.661L205.185 161.413L176.095 144.661L205.185 127.908L234.276 144.661ZM175.732 144.449L146.457 127.588L175.548 110.835L204.823 127.697L175.732 144.449ZM175.37 144.661L146.28 161.413L117.005 144.552L146.095 127.799L175.37 144.661ZM146.28 161.829L175.37 178.582L146.533 195.191L117.442 178.439L146.28 161.829ZM146.539 195.607L175.63 212.36L146.539 229.112L117.449 212.36L146.539 195.607ZM175.985 212.564L205.076 229.317L175.985 246.069L146.895 229.317L175.985 212.564ZM176.348 212.36L205.185 195.751L234.276 212.503L205.438 229.112L176.348 212.36ZM234.638 212.714L263.476 229.324L234.638 245.933L205.801 229.324L234.638 212.714ZM235.001 212.503L264.091 195.751L292.928 212.36L263.838 229.112L235.001 212.503ZM293.284 212.564L322.374 229.317L293.284 246.069L264.194 229.317L293.284 212.564ZM293.646 212.36L322.737 195.607L351.827 212.36L322.737 229.112L293.646 212.36ZM352.19 212.564L381.28 229.317L352.19 246.069L323.099 229.317L352.19 212.564ZM352.552 212.36L381.643 195.607L410.733 212.36L381.643 229.112L352.552 212.36ZM382.005 195.396L411.28 178.534L440.371 195.287L411.095 212.148L382.005 195.396ZM382.19 161.366L411.28 144.613L440.371 161.366L411.28 178.118L382.19 161.366ZM382.443 127.595L411.314 110.965L440.152 127.574L411.28 144.204L382.443 127.595ZM382.08 127.383L352.99 110.631L381.861 94.0009L410.952 110.753L382.08 127.383ZM352.634 110.419L323.544 93.6667L352.415 77.037L381.506 93.7895L352.634 110.419ZM352.272 110.631L323.181 127.383L294.091 110.631L323.181 93.8781L352.272 110.631ZM293.729 110.419L264.638 93.6667L293.729 76.9142L322.819 93.6667L293.729 110.419ZM293.366 110.631L264.091 127.492L235.001 110.74L264.276 93.8781L293.366 110.631ZM234.638 110.528L205.363 93.6667L234.638 76.805L263.913 93.6667L234.638 110.528ZM234.276 110.733L205.185 127.485L175.91 110.624L205.001 93.8713L234.276 110.733ZM175.548 110.419L146.457 93.6667L175.548 76.9142L204.638 93.6667L175.548 110.419ZM175.185 110.631L146.095 127.383L117.005 110.631L146.095 93.8781L175.185 110.631ZM145.733 127.595L116.642 144.347L87.5517 127.595L116.642 110.842L145.733 127.595ZM145.917 161.618L117.08 178.227L87.8047 161.366L116.642 144.756L145.917 161.618ZM146.177 195.396L117.087 212.148L87.9962 195.396L117.087 178.643L146.177 195.396ZM117.087 212.564L146.177 229.317L117.087 246.069L87.9962 229.317L117.087 212.564ZM146.177 263.245L117.305 279.875L88.215 263.122L117.087 246.492L146.177 263.245ZM117.449 246.281L146.539 229.528L175.63 246.281L146.539 263.033L117.449 246.281ZM175.985 246.492L204.816 263.102L175.726 279.854L146.888 263.245L175.979 246.492H175.985ZM176.348 246.281L205.438 229.528L234.276 246.138L205.185 262.89L176.348 246.281ZM234.638 246.342L263.729 263.095L234.638 279.847L205.548 263.095L234.638 246.342ZM235.001 246.138L263.838 229.528L292.928 246.281L264.091 262.89L235.001 246.138ZM293.284 246.492L322.374 263.245L293.537 279.854L264.447 263.102L293.284 246.492ZM293.646 246.281L322.737 229.528L351.827 246.281L322.737 263.033L293.646 246.281ZM352.19 246.492L381.061 263.122L351.971 279.875L323.099 263.245L352.19 246.492ZM352.552 246.281L381.643 229.528L410.514 246.158L381.424 262.911L352.552 246.281ZM382.005 229.324L411.095 212.571L439.967 229.201L410.877 245.953L382.005 229.324ZM411.458 212.36L440.733 195.498L469.605 212.128L440.33 228.99L411.458 212.36ZM411.643 178.33L440.733 161.577L469.823 178.33L440.733 195.082L411.643 178.33ZM411.643 144.408L440.514 127.779L469.605 144.531L440.733 161.161L411.643 144.408ZM411.677 110.753L440.767 94.0009L469.605 110.61L440.514 127.363L411.677 110.753ZM411.314 110.549L382.224 93.7963L411.314 77.0438L440.405 93.7963L411.314 110.549ZM381.868 93.5848L352.778 76.8323L381.868 60.0798L410.959 76.8323L381.868 93.5848ZM352.415 76.6209L323.325 59.8684L352.415 43.1159L381.506 59.8684L352.415 76.6209ZM352.053 76.8323L323.181 93.462L294.091 76.7095L322.963 60.0798L352.053 76.8323ZM293.729 76.4981L264.453 59.6365L293.325 43.0067L322.6 59.8684L293.729 76.4981ZM293.366 76.7095L264.276 93.462L235.001 76.6004L264.091 59.8479L293.366 76.7095ZM234.638 76.389L205.548 59.6365L234.638 42.884L263.729 59.6365L234.638 76.389ZM234.276 76.6004L205.001 93.462L175.91 76.7095L205.185 59.8479L234.276 76.6004ZM175.548 76.4981L146.676 59.8684L175.951 43.0067L204.823 59.6365L175.548 76.4981ZM175.185 76.7095L146.095 93.462L117.223 76.8323L146.314 60.0798L175.185 76.7095ZM145.733 93.6667L116.642 110.419L87.7705 93.7895L116.861 77.037L145.733 93.6667ZM116.286 110.631L87.1961 127.383L58.3245 110.753L87.4149 94.0009L116.286 110.631ZM116.286 144.552L87.4491 161.161L58.3587 144.408L87.1961 127.799L116.286 144.552ZM116.724 178.439L87.6337 195.191L58.3587 178.33L87.4491 161.577L116.724 178.439ZM87.6337 195.607L116.724 212.36L87.6337 229.112L58.5433 212.36L87.6337 195.607ZM87.6337 229.528L116.724 246.281L87.8525 262.911L58.7621 246.158L87.6337 229.528ZM116.943 280.079L87.8525 296.832L58.7621 280.079L87.8525 263.327L116.943 280.079ZM117.299 280.291L146.129 296.9L117.039 313.652L88.2082 297.05L117.299 280.297V280.291ZM117.661 280.079L146.533 263.449L175.363 280.059L146.492 296.688L117.654 280.086L117.661 280.079ZM175.732 280.27L204.823 297.023L175.951 313.652L146.861 296.9L175.732 280.27ZM176.095 280.059L205.185 263.306L234.276 280.059L205.185 296.811L176.095 280.059ZM234.638 280.27L263.729 297.023L234.638 313.775L205.548 297.023L234.638 280.27ZM235.001 280.059L264.091 263.306L293.181 280.059L264.091 296.811L235.001 280.059ZM293.544 280.27L322.415 296.9L293.325 313.652L264.453 297.023L293.544 280.27ZM293.906 280.059L322.744 263.449L351.615 280.079L322.778 296.682L293.906 280.052V280.059ZM351.971 280.291L381.061 297.043L352.224 313.646L323.134 296.893L351.971 280.284V280.291ZM352.333 280.079L381.424 263.327L410.514 280.079L381.424 296.832L352.333 280.079ZM381.786 263.122L410.877 246.37L439.967 263.122L410.877 279.875L381.786 263.122ZM411.239 246.158L440.33 229.406L469.42 246.158L440.33 262.911L411.239 246.158ZM499.057 195.164L469.967 211.916L441.095 195.287L470.186 178.534L499.057 195.164ZM499.057 161.495L470.186 178.125L441.095 161.372L469.967 144.743L499.057 161.495ZM499.057 127.567L469.967 144.32L440.877 127.567L469.967 110.815L499.057 127.567ZM499.057 93.6462L469.967 110.399L441.13 93.7895L470.22 77.037L499.057 93.6462ZM469.864 76.8323L440.774 93.5848L411.684 76.8323L440.774 60.0798L469.864 76.8323ZM440.412 59.8684L411.321 76.6209L382.231 59.8684L411.321 43.1159L440.412 59.8684ZM410.959 42.9112L381.868 59.6637L352.778 42.9112L381.868 26.1587L410.959 42.9112ZM352.231 9.08564L381.506 25.9473L352.415 42.6998L323.14 25.8381L352.231 9.08564ZM352.053 42.9112L322.963 59.6637L293.687 42.8021L322.778 26.0496L352.053 42.9112ZM293.325 9.08564L322.415 25.8381L293.325 42.5906L264.235 25.8381L293.325 9.08564ZM292.963 42.8021L264.091 59.4318L235.001 42.6793L263.872 26.0496L292.963 42.8021ZM234.638 9.20842L263.51 25.8381L234.638 42.4679L205.767 25.8381L234.638 9.20842ZM234.276 42.6793L205.185 59.4318L176.314 42.8021L205.404 26.0496L234.276 42.6793ZM175.951 9.08564L205.042 25.8381L175.951 42.5906L146.861 25.8381L175.951 9.08564ZM146.498 26.0496L175.589 42.8021L146.314 59.6637L117.223 42.9112L146.498 26.0496ZM116.861 43.1159L145.951 59.8684L116.861 76.6209L87.7705 59.8684L116.861 43.1159ZM87.4081 60.0798L116.498 76.8323L87.4081 93.5848L58.3176 76.8323L87.4081 60.0798ZM28.8648 93.7963L57.9552 77.0438L87.0456 93.7963L57.9552 110.549L28.8648 93.7963ZM29.1246 127.567L57.962 110.958L86.8336 127.588L57.9962 144.197L29.1246 127.567ZM28.9058 161.366L57.9962 144.613L87.0867 161.366L57.9962 178.118L28.9058 161.366ZM28.9058 195.294L57.9962 178.541L87.2713 195.403L58.1809 212.155L28.9058 195.294ZM29.3093 229.194L58.1809 212.564L87.2713 229.317L58.3997 245.947L29.3093 229.194ZM29.3093 263.122L58.3997 246.37L87.4901 263.122L58.3997 279.875L29.3093 263.122ZM58.3997 313.796L29.3093 297.043L58.3997 280.291L87.4901 297.043L58.3997 313.796ZM58.7621 314.007L87.8525 297.255L116.69 313.864L87.5995 330.616L58.7621 314.014V314.007ZM117.046 347.573L87.9551 330.821L117.046 314.068L146.136 330.821L117.046 347.573ZM117.408 313.857L146.498 297.105L175.589 313.857L146.498 330.61L117.408 313.857ZM175.951 347.573L146.861 330.821L175.951 314.068L205.042 330.821L175.951 347.573ZM176.314 313.857L205.185 297.227L234.276 313.98L205.404 330.61L176.314 313.857ZM234.638 347.444L205.767 330.814L234.638 314.184L263.51 330.814L234.638 347.444ZM263.872 330.61L235.001 313.98L264.091 297.227L292.963 313.857L263.872 330.61ZM293.325 347.573L264.235 330.821L293.325 314.068L322.415 330.821L293.325 347.573ZM293.687 313.857L322.778 297.105L351.868 313.857L322.778 330.61L293.687 313.857ZM352.231 347.573L323.14 330.821L352.231 314.068L381.321 330.821L352.231 347.573ZM381.684 330.61L352.593 313.857L381.431 297.255L410.521 314.007L381.684 330.61ZM410.877 313.796L381.786 297.043L410.877 280.291L439.967 297.043L410.877 313.796ZM440.33 296.832L411.239 280.079L440.33 263.327L469.42 280.079L440.33 296.832ZM469.782 279.875L440.692 263.122L469.782 246.37L498.873 263.122L469.782 279.875Z" fill="url(#paint0_radial_2409_3002)" style="mix-blend-mode:color-dodge"/>
<path d="M333.138 165.487L261.851 201.05L190.567 165.487L261.851 129.928L333.138 165.487Z" fill="url(#paint1_linear_2409_3002)"/>
<path d="M333.139 172.929L261.852 208.487V201.049L333.139 165.487V172.929Z" fill="url(#paint2_linear_2409_3002)"/>
<path d="M261.851 208.487L190.567 172.929V165.487L261.851 201.049V208.487Z" fill="url(#paint3_linear_2409_3002)"/>
<path d="M244.703 158.365H215.61V165.779H244.703V158.365Z" fill="url(#paint4_linear_2409_3002)" style="mix-blend-mode:multiply"/>
<path d="M235.266 136.525V160.363C235.266 160.831 235.459 161.16 235.766 161.314L244.707 165.779L244.148 140.955L235.266 136.525Z" fill="url(#paint5_linear_2409_3002)"/>
<path d="M258.141 122.391L252.302 115.004L247.093 112.404C245.042 111.379 242.546 112.152 241.431 114.155L228.698 137.079C228.115 138.131 228.3 139.027 228.923 139.266L237.714 143.657L251.578 128.388L256.795 125.784C258.2 125.081 258.995 123.078 258.141 122.391Z" fill="url(#paint6_linear_2409_3002)"/>
<path d="M252.304 115.006L237.582 141.512C236.728 143.051 237.523 144.261 238.929 143.562L244.146 140.958V164.797C244.146 165.731 244.905 166.108 245.842 165.641L258.765 159.196C259.702 158.729 260.462 157.594 260.462 156.659V132.821L265.678 130.217C267.084 129.514 267.879 127.511 267.025 126.824L252.304 115.006Z" fill="url(#paint7_linear_2409_3002)"/>
<path opacity="0.6" d="M247.251 164.939L258.767 159.194C259.705 158.726 260.464 157.592 260.464 156.657V132.818L265.681 130.214C267.087 129.511 267.882 127.508 267.028 126.821L259.523 120.797L247.255 164.939H247.251Z" fill="url(#paint8_linear_2409_3002)" style="mix-blend-mode:screen"/>
<path d="M279.662 174.62H250.569V182.035H279.662V174.62Z" fill="url(#paint9_linear_2409_3002)" style="mix-blend-mode:multiply"/>
<path d="M288.227 165.452L294.374 153.442L285.432 148.977C285.133 148.784 284.692 148.78 284.164 149.044L278.947 151.647L288.227 165.452Z" fill="url(#paint10_linear_2409_3002)"/>
<path d="M262.628 159.789L257.411 162.392C256.005 163.095 255.21 165.098 256.064 165.786L270.428 177.316C270.664 177.509 270.924 177.674 271.195 177.807L279.723 182.064L271.565 164.254L262.624 159.789H262.628Z" fill="url(#paint11_linear_2409_3002)"/>
<path d="M271.502 164.219L262.628 159.789L257.411 162.392C256.663 162.765 256.088 163.504 255.844 164.219H271.502Z" fill="url(#paint12_linear_2409_3002)" style="mix-blend-mode:multiply"/>
<path d="M287.409 131.335L278.468 126.87C278.16 126.705 277.727 126.724 277.251 126.96L264.329 133.405C263.392 133.872 262.632 135.007 262.632 135.942V159.78L271.573 164.246L287.409 131.331V131.335Z" fill="url(#paint13_linear_2409_3002)"/>
<path d="M279.667 182.028L264.945 170.21C264.091 169.523 264.886 167.52 266.292 166.817L271.509 164.213V140.375C271.509 139.44 272.269 138.305 273.206 137.838L286.128 131.393C287.065 130.926 287.825 131.303 287.825 132.237V156.076L293.042 153.472C294.447 152.769 295.243 153.983 294.388 155.522L279.667 182.028Z" fill="url(#paint14_linear_2409_3002)"/>
<path opacity="0.6" d="M287.439 168.037L294.388 155.528C295.242 153.989 294.447 152.779 293.041 153.478L287.825 156.082V132.243C287.825 131.308 287.065 130.931 286.128 131.399L275.017 136.94L287.439 168.041V168.037Z" fill="url(#paint15_linear_2409_3002)" style="mix-blend-mode:screen"/>
<defs>
<radialGradient id="paint0_radial_2409_3002" cx="0" cy="0" r="1" gradientUnits="userSpaceOnUse" gradientTransform="translate(250.633 172.104) scale(128.001 103.776)">
<stop stop-color="#5CCFFF" stop-opacity="0.34"/>
<stop offset="0.62" stop-color="#5CCFFF" stop-opacity="0.16"/>
<stop offset="1" stop-color="#5CCFFF" stop-opacity="0"/>
</radialGradient>
<linearGradient id="paint1_linear_2409_3002" x1="190.567" y1="165.487" x2="333.138" y2="165.487" gradientUnits="userSpaceOnUse">
<stop stop-color="#1053D2"/>
<stop offset="1" stop-color="#4481EA"/>
</linearGradient>
<linearGradient id="paint2_linear_2409_3002" x1="297.497" y1="208.487" x2="297.497" y2="165.487" gradientUnits="userSpaceOnUse">
<stop stop-color="#1F227D"/>
<stop offset="1" stop-color="#0C5FE7"/>
</linearGradient>
<linearGradient id="paint3_linear_2409_3002" x1="256.007" y1="218.013" x2="196.834" y2="156.088" gradientUnits="userSpaceOnUse">
<stop stop-color="#1F227D"/>
<stop offset="0.07" stop-color="#1F207B"/>
<stop offset="1" stop-color="#26126B"/>
</linearGradient>
<linearGradient id="paint4_linear_2409_3002" x1="215.61" y1="162.072" x2="244.703" y2="162.072" gradientUnits="userSpaceOnUse">
<stop stop-color="white"/>
<stop offset="1" stop-color="#8C9BD0"/>
</linearGradient>
<linearGradient id="paint5_linear_2409_3002" x1="235.482" y1="161.235" x2="242.641" y2="145.116" gradientUnits="userSpaceOnUse">
<stop stop-color="#5C75E0"/>
<stop offset="0.17" stop-color="#7E9FFF"/>
<stop offset="1" stop-color="#5C75E0"/>
</linearGradient>
<linearGradient id="paint6_linear_2409_3002" x1="237.911" y1="143.111" x2="250.583" y2="114.571" gradientUnits="userSpaceOnUse">
<stop stop-color="#5C75E0"/>
<stop offset="0.11" stop-color="#7E9FFF"/>
<stop offset="1" stop-color="#5C75E0"/>
</linearGradient>
<linearGradient id="paint7_linear_2409_3002" x1="235.751" y1="156.934" x2="266.408" y2="126.2" gradientUnits="userSpaceOnUse">
<stop stop-color="#99B4FF"/>
<stop offset="1" stop-color="#BDCEFF"/>
</linearGradient>
<linearGradient id="paint8_linear_2409_3002" x1="250.267" y1="133.179" x2="261.044" y2="153.098" gradientUnits="userSpaceOnUse">
<stop stop-color="#AFC4FF"/>
<stop offset="1" stop-color="#294BB0"/>
</linearGradient>
<linearGradient id="paint9_linear_2409_3002" x1="250.569" y1="178.327" x2="279.662" y2="178.327" gradientUnits="userSpaceOnUse">
<stop stop-color="white"/>
<stop offset="1" stop-color="#8C9BD0"/>
</linearGradient>
<linearGradient id="paint10_linear_2409_3002" x1="282.448" y1="159.687" x2="291.516" y2="150.595" gradientUnits="userSpaceOnUse">
<stop/>
<stop offset="1" stop-color="#40556B"/>
</linearGradient>
<linearGradient id="paint11_linear_2409_3002" x1="267.124" y1="174.41" x2="272.085" y2="164.546" gradientUnits="userSpaceOnUse">
<stop stop-color="#25313D"/>
<stop offset="0.33" stop-color="#0D1115"/>
<stop offset="0.43" stop-color="#1F2933"/>
<stop offset="0.48" stop-color="#25313D"/>
<stop offset="1" stop-color="#416386"/>
</linearGradient>
<linearGradient id="paint12_linear_2409_3002" x1="269.931" y1="162.004" x2="256.21" y2="162.004" gradientUnits="userSpaceOnUse">
<stop/>
<stop offset="1" stop-color="white"/>
</linearGradient>
<linearGradient id="paint13_linear_2409_3002" x1="262.569" y1="159.18" x2="278.136" y2="126.98" gradientUnits="userSpaceOnUse">
<stop stop-color="#243444"/>
<stop offset="0.24" stop-color="#0D1115"/>
<stop offset="0.51" stop-color="#0D1115"/>
<stop offset="0.65" stop-color="#3D5C7C"/>
<stop offset="1" stop-color="#416386"/>
</linearGradient>
<linearGradient id="paint14_linear_2409_3002" x1="265.485" y1="170.756" x2="296.141" y2="140.022" gradientUnits="userSpaceOnUse">
<stop stop-color="#374A5D"/>
<stop offset="1" stop-color="#466E99"/>
</linearGradient>
<linearGradient id="paint15_linear_2409_3002" x1="282.375" y1="140.298" x2="293.106" y2="160.126" gradientUnits="userSpaceOnUse">
<stop stop-color="#AFC4FF"/>
<stop offset="1" stop-color="#0D1115"/>
</linearGradient>
</defs>
</svg>
