<svg width="790" height="576" viewBox="0 0 790 576" fill="none" xmlns="http://www.w3.org/2000/svg">
<g opacity="0.82" mask="url(#gridFadeMask1514_9664)">
<path d="M789.607 417.695V417.038L787.001 415.53L789.607 414.021V413.364L786.43 415.196L740.604 388.739L786.721 362.11L789.607 363.78V363.122L787.292 361.787L789.607 360.451V359.794L786.721 361.464L740.895 335.007L786.721 308.55L789.607 310.22V309.563L787.292 308.227L789.607 306.891V306.234L786.721 307.904L741.24 281.641L786.721 255.378L789.607 257.048V256.391L787.292 255.055L789.607 253.719V253.062L786.721 254.732L740.895 228.275L786.721 201.819L789.607 203.488V202.831L787.292 201.495L789.607 200.16V199.502L786.721 201.172L740.895 174.715L786.721 148.259L789.607 149.928V149.271L787.292 147.936L789.607 146.6V145.943L786.721 147.612L741.294 121.382L789.607 93.4925V92.8354L740.723 121.059L694.898 94.6021L789.607 39.922V39.2649L694.337 94.2682L648.512 67.8114L765.962 0H764.82L647.941 67.4883L602.116 41.0316L673.17 0.0107664H672.028L601.545 40.7084L555.429 14.0794L579.796 0.0107664H578.654L554.858 13.7562L531.062 0.0107664H529.92L554.287 14.0794L508.462 40.5361L462.637 14.0794L487.004 0.0107664H485.862L462.066 13.7562L438.27 0.0107664H437.128L461.495 14.0794L415.67 40.5361L370.189 14.2733L394.901 0.0107664H393.759L369.618 13.9501L345.477 0.0107664H344.336L369.047 14.2733L323.567 40.5361L277.741 14.0794L302.108 0.0107664H300.966L277.171 13.7562L253.375 0.0107664H252.233L276.6 14.0794L230.774 40.5361L160.582 0.0107664H159.44L230.203 40.87L184.087 67.499L67.2082 0.0107664H66.0663L183.516 67.8222L137.691 94.2789L0.0107725 14.7257V15.3828L137.12 94.5482L91.295 121.005L0.0107725 68.2962V68.9533L90.7241 121.328L44.8988 147.785L0.0107725 121.867V122.524L44.3279 148.108L0.0107725 173.692V174.349L44.8988 148.431L90.7241 174.888L45.2974 201.118L0.0107725 174.963V175.62L44.7265 201.441L0.0107725 227.263V227.92L45.2974 201.775L90.7779 228.038L44.9527 254.495L0 228.545V229.202L44.3818 254.829L0 280.456V281.113L44.9527 255.163L90.7779 281.619L44.9527 308.076L0 282.126V282.783L44.3818 308.41L0 334.037V334.694L44.9527 308.744L91.0688 335.373L45.5882 361.636L0.0107725 335.319V335.976L45.0173 361.959L0.0107725 387.942V388.599L45.5882 362.282L91.4135 388.739L45.5882 415.196L0.0107725 388.879V389.536L45.0173 415.519L0.0107725 441.501V442.159L45.5882 415.842L91.4135 442.299L45.5882 468.755L0.0107725 442.439V443.096L45.0281 469.089L0.0107725 495.072V495.729L45.5882 469.412L91.4135 495.869L0.0107725 548.643V549.3L91.9844 496.192L137.4 522.423L46.2346 575.056H47.3764L137.971 522.746L183.796 549.203L139.027 575.056H140.169L184.367 549.537L228.566 575.056H229.708L184.938 549.203L230.764 522.746L276.589 549.203L231.819 575.056H232.961L277.16 549.537L321.358 575.056H322.5L277.731 549.203L323.556 522.746L369.036 549.009L323.922 575.056H325.064L369.607 549.332L414.151 575.056H415.293L370.178 549.009L415.659 522.746L461.484 549.203L416.715 575.056H417.856L462.055 549.537L506.254 575.056H507.396L462.626 549.203L508.451 522.746L554.276 549.203L509.507 575.056H510.649L554.858 549.537L599.057 575.056H600.199L555.429 549.203L601.254 522.746L691.849 575.056H692.991L601.825 522.423L647.241 496.192L783.834 575.056H784.975L647.812 495.869L693.637 469.412L789.607 524.825V524.168L694.208 469.089L740.034 442.633L789.607 471.255V470.597L740.604 442.309L786.43 415.853L789.607 417.684V417.695ZM786.15 361.797L740.034 388.427L694.208 361.97L740.324 335.341L786.15 361.797ZM322.651 308.819L277.224 335.05L231.399 308.593L276.826 282.363L322.651 308.819ZM231.001 255.238L276.826 228.781L322.651 255.238L276.826 281.695L231.001 255.238ZM277.397 282.029L323.222 255.572L369.047 282.029L323.222 308.486L277.397 282.029ZM323.793 255.238L369.618 228.781L415.443 255.238L369.618 281.695L323.793 255.238ZM369.618 282.363L415.443 308.819L369.618 335.276L323.793 308.819L369.618 282.363ZM370.189 282.029L416.014 255.572L461.84 282.029L416.014 308.486L370.189 282.029ZM416.585 255.238L462.41 228.781L508.236 255.238L462.41 281.695L416.585 255.238ZM462.41 282.363L507.837 308.593L462.012 335.05L416.585 308.819L462.41 282.363ZM462.981 282.029L508.807 255.572L554.233 281.803L508.408 308.259L462.981 282.029ZM509.367 255.238L555.483 228.609L600.91 254.84L554.794 281.469L509.367 255.238ZM554.794 282.126L600.619 308.582L554.794 335.039L508.968 308.582L554.794 282.126ZM555.364 281.803L601.481 255.174L647.306 281.63L601.19 308.259L555.364 281.803ZM556.054 228.286L601.879 201.829L647.306 228.06L601.481 254.516L556.054 228.286ZM555.483 227.963L509.658 201.506L555.483 175.049L601.308 201.506L555.483 227.963ZM554.923 228.286L508.807 254.915L462.981 228.458L509.098 201.829L554.923 228.286ZM462.41 228.124L416.585 201.668L462.701 175.039L508.527 201.495L462.41 228.124ZM461.84 228.458L416.014 254.915L370.189 228.458L416.014 202.002L461.84 228.458ZM369.618 228.124L323.793 201.668L369.618 175.211L415.443 201.668L369.618 228.124ZM369.047 228.458L323.222 254.915L277.397 228.458L323.222 202.002L369.047 228.458ZM276.826 228.124L230.71 201.495L276.535 175.039L322.651 201.668L276.826 228.124ZM276.255 228.458L230.43 254.915L184.314 228.286L230.139 201.829L276.255 228.458ZM230.43 255.572L276.255 282.029L230.828 308.259L185.003 281.803L230.43 255.572ZM230.839 308.916L276.664 335.373L230.839 361.83L185.014 335.373L230.839 308.916ZM277.224 335.696L323.05 362.153L277.224 388.61L231.399 362.153L277.224 335.696ZM277.795 335.373L323.222 309.143L369.047 335.599L323.621 361.83L277.795 335.373ZM369.618 335.933L415.045 362.164L369.618 388.394L324.191 362.164L369.618 335.933ZM370.189 335.599L416.014 309.143L461.441 335.373L415.616 361.83L370.189 335.599ZM462.001 335.696L507.826 362.153L462.001 388.61L416.176 362.153L462.001 335.696ZM462.572 335.373L508.397 308.916L554.223 335.373L508.397 361.83L462.572 335.373ZM554.794 335.696L600.619 362.153L554.794 388.61L508.968 362.153L554.794 335.696ZM555.364 335.373L601.19 308.916L647.015 335.373L601.19 361.83L555.364 335.373ZM601.761 308.582L647.877 281.953L693.702 308.41L647.586 335.039L601.761 308.582ZM602.051 254.84L647.877 228.383L693.702 254.84L647.877 281.296L602.051 254.84ZM602.45 201.506L647.931 175.243L693.357 201.474L647.877 227.737L602.45 201.506ZM601.879 201.172L556.054 174.715L601.534 148.453L647.36 174.909L601.879 201.172ZM555.494 174.382L509.668 147.925L555.149 121.662L600.974 148.119L555.494 174.382ZM554.923 174.715L509.098 201.172L463.272 174.715L509.098 148.259L554.923 174.715ZM462.701 174.382L416.876 147.925L462.701 121.468L508.527 147.925L462.701 174.382ZM462.13 174.715L416.014 201.345L370.189 174.888L416.305 148.259L462.13 174.715ZM369.618 174.554L323.502 147.925L369.618 121.296L415.734 147.925L369.618 174.554ZM369.047 174.877L323.222 201.334L277.106 174.705L322.931 148.248L369.047 174.877ZM276.535 174.382L230.71 147.925L276.535 121.468L322.36 147.925L276.535 174.382ZM275.964 174.715L230.139 201.172L184.314 174.715L230.139 148.259L275.964 174.715ZM229.568 201.506L183.743 227.963L137.917 201.506L183.743 175.049L229.568 201.506ZM229.859 255.238L184.432 281.469L138.316 254.84L183.743 228.609L229.859 255.238ZM230.268 308.582L184.443 335.039L138.618 308.582L184.443 282.126L230.268 308.582ZM184.443 335.696L230.268 362.153L184.443 388.61L138.618 362.153L184.443 335.696ZM230.268 415.734L184.788 441.997L138.962 415.54L184.443 389.278L230.268 415.734ZM185.014 388.944L230.839 362.487L276.664 388.944L230.839 415.4L185.014 388.944ZM277.224 389.278L322.64 415.508L276.815 441.965L231.388 415.734L277.214 389.278H277.224ZM277.795 388.944L323.621 362.487L369.047 388.717L323.222 415.174L277.795 388.944ZM369.618 389.041L415.443 415.497L369.618 441.954L323.793 415.497L369.618 389.041ZM370.189 388.717L415.616 362.487L461.441 388.944L416.014 415.174L370.189 388.717ZM462.001 389.278L507.826 415.734L462.4 441.965L416.574 415.508L462.001 389.278ZM462.572 388.944L508.397 362.487L554.223 388.944L508.397 415.4L462.572 388.944ZM554.794 389.278L600.274 415.54L554.449 441.997L508.968 415.734L554.794 389.278ZM555.364 388.944L601.19 362.487L646.67 388.75L600.845 415.206L555.364 388.944ZM601.761 362.164L647.586 335.707L693.066 361.97L647.241 388.427L601.761 362.164ZM648.157 335.373L694.273 308.744L739.753 335.007L693.637 361.636L648.157 335.373ZM648.448 281.63L694.273 255.174L740.098 281.63L694.273 308.087L648.448 281.63ZM648.448 228.06L693.928 201.797L739.753 228.254L694.273 254.516L648.448 228.06ZM648.502 174.909L694.327 148.453L739.753 174.683L693.928 201.14L648.502 174.909ZM647.931 174.586L602.105 148.13L647.931 121.673L693.756 148.13L647.931 174.586ZM601.545 147.796L555.72 121.339L601.545 94.8822L647.37 121.339L601.545 147.796ZM555.149 121.005L509.324 94.5482L555.149 68.0915L600.974 94.5482L555.149 121.005ZM554.578 121.339L509.098 147.602L463.272 121.145L508.753 94.8822L554.578 121.339ZM462.701 120.811L416.585 94.182L462.066 67.9192L508.182 94.5482L462.701 120.811ZM462.13 121.145L416.305 147.602L370.189 120.973L416.014 94.5159L462.13 121.145ZM369.618 120.639L323.793 94.182L369.618 67.7253L415.443 94.182L369.618 120.639ZM369.047 120.973L322.931 147.602L277.106 121.145L323.222 94.5159L369.047 120.973ZM276.535 120.811L231.054 94.5482L277.171 67.9192L322.651 94.182L276.535 120.811ZM275.964 121.145L230.139 147.602L184.658 121.339L230.484 94.8822L275.964 121.145ZM229.568 147.925L183.743 174.382L138.262 148.119L184.087 121.662L229.568 147.925ZM183.182 174.715L137.357 201.172L91.8767 174.909L137.702 148.453L183.182 174.715ZM183.182 228.286L137.756 254.516L91.9306 228.06L137.357 201.829L183.182 228.286ZM183.872 281.803L138.047 308.259L91.9306 281.63L137.756 255.174L183.872 281.803ZM138.047 308.916L183.872 335.373L138.047 361.83L92.2214 335.373L138.047 308.916ZM138.047 362.487L183.872 388.944L138.391 415.206L92.5661 388.75L138.047 362.487ZM184.217 442.32L138.391 468.777L92.5661 442.32L138.391 415.864L184.217 442.32ZM184.777 442.654L230.193 468.885L184.367 495.341L138.952 469.122L184.777 442.665V442.654ZM185.348 442.32L230.828 416.057L276.244 442.288L230.764 468.551L185.337 442.331L185.348 442.32ZM276.826 442.622L322.651 469.079L277.171 495.341L231.345 468.885L276.826 442.622ZM277.397 442.288L323.222 415.831L369.047 442.288L323.222 468.745L277.397 442.288ZM369.618 442.622L415.443 469.079L369.618 495.535L323.793 469.079L369.618 442.622ZM370.189 442.288L416.014 415.831L461.84 442.288L416.014 468.745L370.189 442.288ZM462.41 442.622L507.891 468.885L462.066 495.341L416.585 469.079L462.41 442.622ZM462.981 442.288L508.408 416.057L553.889 442.32L508.462 468.54L462.981 442.277V442.288ZM554.449 442.654L600.274 469.111L554.847 495.331L509.022 468.874L554.449 442.643V442.654ZM555.02 442.32L600.845 415.864L646.67 442.32L600.845 468.777L555.02 442.32ZM601.416 415.54L647.241 389.084L693.066 415.54L647.241 441.997L601.416 415.54ZM647.812 388.75L693.637 362.293L739.463 388.75L693.637 415.206L647.812 388.75ZM786.15 308.216L740.324 334.673L694.844 308.41L740.669 281.953L786.15 308.216ZM786.15 255.044L740.669 281.307L694.844 254.85L740.324 228.588L786.15 255.044ZM786.15 201.463L740.324 227.92L694.499 201.463L740.324 175.006L786.15 201.463ZM786.15 147.893L740.324 174.349L694.898 148.119L740.723 121.662L786.15 147.893ZM740.163 121.339L694.337 147.796L648.512 121.339L694.337 94.8822L740.163 121.339ZM693.767 94.5482L647.941 121.005L602.116 94.5482L647.941 68.0915L693.767 94.5482ZM647.37 67.7684L601.545 94.2251L555.72 67.7684L601.545 41.3117L647.37 67.7684ZM554.858 14.3487L600.974 40.9777L555.149 67.4344L509.033 40.8054L554.858 14.3487ZM554.578 67.7684L508.753 94.2251L462.637 67.596L508.462 41.1393L554.578 67.7684ZM462.066 14.3487L507.891 40.8054L462.066 67.2621L416.241 40.8054L462.066 14.3487ZM461.495 67.596L416.014 93.8588L370.189 67.4021L415.67 41.1393L461.495 67.596ZM369.618 14.5426L415.099 40.8054L369.618 67.0682L324.138 40.8054L369.618 14.5426ZM369.047 67.4021L323.222 93.8588L277.741 67.596L323.567 41.1393L369.047 67.4021ZM277.171 14.3487L322.996 40.8054L277.171 67.2621L231.345 40.8054L277.171 14.3487ZM230.774 41.1393L276.6 67.596L230.484 94.2251L184.658 67.7684L230.774 41.1393ZM184.087 68.0915L229.913 94.5482L184.087 121.005L138.262 94.5482L184.087 68.0915ZM137.691 94.8822L183.516 121.339L137.691 147.796L91.8659 121.339L137.691 94.8822ZM45.4698 148.13L91.295 121.673L137.12 148.13L91.295 174.586L45.4698 148.13ZM45.8791 201.463L91.3058 175.233L136.786 201.495L91.3596 227.726L45.8791 201.463ZM45.5344 254.84L91.3596 228.383L137.185 254.84L91.3596 281.296L45.5344 254.84ZM45.5344 308.421L91.3596 281.964L137.476 308.593L91.6505 335.05L45.5344 308.421ZM46.17 361.959L91.6505 335.696L137.476 362.153L91.9952 388.416L46.17 361.959ZM46.17 415.54L91.9952 389.084L137.82 415.54L91.9952 441.997L46.17 415.54ZM91.9952 495.568L46.17 469.111L91.9952 442.654L137.82 469.111L91.9952 495.568ZM92.5661 495.902L138.391 469.445L183.818 495.675L137.993 522.132L92.5661 495.912V495.902ZM184.378 548.912L138.553 522.455L184.378 495.998L230.203 522.455L184.378 548.912ZM184.949 495.664L230.774 469.208L276.6 495.664L230.774 522.121L184.949 495.664ZM277.171 548.912L231.345 522.455L277.171 495.998L322.996 522.455L277.171 548.912ZM277.741 495.664L323.222 469.402L369.047 495.858L323.567 522.121L277.741 495.664ZM369.618 548.707L324.138 522.444L369.618 496.182L415.099 522.444L369.618 548.707ZM415.67 522.121L370.189 495.858L416.014 469.402L461.495 495.664L415.67 522.121ZM462.066 548.912L416.241 522.455L462.066 495.998L507.891 522.455L462.066 548.912ZM462.637 495.664L508.462 469.208L554.287 495.664L508.462 522.121L462.637 495.664ZM554.858 548.912L509.033 522.455L554.858 495.998L600.683 522.455L554.858 548.912ZM601.254 522.121L555.429 495.664L600.856 469.445L646.681 495.902L601.254 522.121ZM647.241 495.568L601.416 469.111L647.241 442.654L693.066 469.111L647.241 495.568ZM693.637 468.777L647.812 442.32L693.637 415.864L739.463 442.32L693.637 468.777ZM740.034 441.997L694.208 415.54L740.034 389.084L785.859 415.54L740.034 441.997Z" fill="#5ccfff" opacity="0.2"/>
</g>
<path d="M524.782 261.349L412.486 317.511L300.195 261.349L412.486 205.191L524.782 261.349Z" fill="url(#paint1_linear_1514_9664)"/>
<path d="M524.785 273.1L412.488 329.257V317.511L524.785 261.348V273.1Z" fill="url(#paint2_linear_1514_9664)"/>
<path d="M412.486 329.257L300.195 273.1V261.348L412.486 317.511V329.257Z" fill="url(#paint3_linear_1514_9664)"/>
<path d="M385.929 272.734H336.898V288.367H385.929V272.734Z" fill="url(#paint4_linear_1514_9664)" style="mix-blend-mode:multiply"/>
<path d="M385.93 288.375V282.733L462.136 244.621V250.264L385.93 288.375Z" fill="url(#paint5_linear_1514_9664)"/>
<path d="M385.93 288.373V282.731L365.949 272.734V278.377L385.93 288.373Z" fill="url(#paint6_linear_1514_9664)"/>
<path d="M385.93 282.731L365.949 272.735L442.156 234.629L462.137 244.619L385.93 282.731Z" fill="url(#paint7_linear_1514_9664)"/>
<path d="M385.93 278.257H376.994L366.195 272.734H385.93V278.257Z" fill="url(#paint8_linear_1514_9664)" style="mix-blend-mode:multiply"/>
<path d="M404.666 263.363H384.938V268.886H404.666V263.363Z" fill="url(#paint9_linear_1514_9664)" style="mix-blend-mode:multiply"/>
<path d="M423.413 253.988H403.684V259.511H423.413V253.988Z" fill="url(#paint10_linear_1514_9664)" style="mix-blend-mode:multiply"/>
<path d="M442.159 244.621H422.43V250.143H442.159V244.621Z" fill="url(#paint11_linear_1514_9664)" style="mix-blend-mode:multiply"/>
<path d="M442.156 250.145L431.117 244.622V210.051L442.156 215.573V250.145Z" fill="url(#paint12_linear_1514_9664)"/>
<path d="M442.156 250.145L453.201 244.622V210.051L442.156 215.573V250.145Z" fill="url(#paint13_linear_1514_9664)"/>
<path d="M453.199 210.051L450.53 211.38L445.242 248.598L453.199 244.622V210.051Z" fill="url(#paint14_linear_1514_9664)"/>
<path d="M431.117 210.05L442.156 204.527L453.201 210.05L442.156 215.572L431.117 210.05Z" fill="url(#paint15_linear_1514_9664)"/>
<path d="M423.414 259.514L412.375 253.992V178.473L423.414 183.995V259.514Z" fill="url(#paint16_linear_1514_9664)"/>
<path d="M423.414 259.514L434.459 253.992V178.473L423.414 183.995V259.514Z" fill="url(#paint17_linear_1514_9664)"/>
<path d="M434.463 178.473L432.039 179.687L426.07 258.191L434.463 253.992V178.473Z" fill="url(#paint18_linear_1514_9664)"/>
<path d="M412.375 178.472L423.414 172.949L434.458 178.472L423.414 183.994L412.375 178.472Z" fill="url(#paint19_linear_1514_9664)"/>
<path d="M404.673 268.884L393.629 263.362V208.316L404.673 213.839V268.884Z" fill="url(#paint20_linear_1514_9664)"/>
<path d="M404.672 268.884L415.711 263.362V208.316L404.672 213.839V268.884Z" fill="url(#paint21_linear_1514_9664)"/>
<path d="M404.672 213.838V268.883L413.843 264.295L406.866 212.738L404.672 213.838Z" fill="url(#paint22_linear_1514_9664)"/>
<path d="M393.629 208.315L404.673 202.793L415.712 208.315L404.673 213.838L393.629 208.315Z" fill="url(#paint23_linear_1514_9664)"/>
<path d="M393.629 208.315L404.673 202.793L415.712 208.315L404.673 213.838L393.629 208.315Z" fill="url(#paint24_linear_1514_9664)"/>
<path d="M385.927 278.256L374.883 272.734V250.043L385.927 255.565V278.256Z" fill="url(#paint25_linear_1514_9664)"/>
<path d="M385.93 278.256L396.969 272.734V250.043L385.93 255.565V278.256Z" fill="url(#paint26_linear_1514_9664)"/>
<path d="M385.93 255.562V278.252L392.827 274.804L388.576 254.238L385.93 255.562Z" fill="url(#paint27_linear_1514_9664)"/>
<path d="M374.883 250.042L385.927 244.52L396.966 250.042L385.927 255.564L374.883 250.042Z" fill="url(#paint28_linear_1514_9664)"/>
<defs>
<mask id="gridFadeMask1514_9664" maskUnits="userSpaceOnUse" x="34" y="42" width="724" height="460">
<rect x="34" y="42" width="724" height="460" fill="url(#gridFade1514_9664)"/>
</mask>
<radialGradient id="gridFade1514_9664" cx="0" cy="0" r="1" gradientUnits="userSpaceOnUse" gradientTransform="translate(408 272) scale(335 244)">
<stop stop-color="white"/>
<stop offset="0.5" stop-color="white" stop-opacity="0.82"/>
<stop offset="0.73" stop-color="white" stop-opacity="0.24"/>
<stop offset="1" stop-color="white" stop-opacity="0"/>
</radialGradient>
<radialGradient id="paint0_radial_1514_9664" cx="0" cy="0" r="1" gradientUnits="userSpaceOnUse" gradientTransform="translate(394.814 271.798) scale(201.636 163.89)">
<stop stop-color="white"/>
<stop offset="1"/>
</radialGradient>
<linearGradient id="paint1_linear_1514_9664" x1="300.195" y1="261.348" x2="524.782" y2="261.348" gradientUnits="userSpaceOnUse">
<stop stop-color="#1053D2"/>
<stop offset="1" stop-color="#4481EA"/>
</linearGradient>
<linearGradient id="paint2_linear_1514_9664" x1="468.639" y1="329.257" x2="468.639" y2="261.348" gradientUnits="userSpaceOnUse">
<stop stop-color="#1F227D"/>
<stop offset="1" stop-color="#0C5FE7"/>
</linearGradient>
<linearGradient id="paint3_linear_1514_9664" x1="403.281" y1="344.301" x2="309.819" y2="246.741" gradientUnits="userSpaceOnUse">
<stop stop-color="#1F227D"/>
<stop offset="0.07" stop-color="#1F207B"/>
<stop offset="1" stop-color="#26126B"/>
</linearGradient>
<linearGradient id="paint4_linear_1514_9664" x1="336.898" y1="280.554" x2="385.929" y2="280.554" gradientUnits="userSpaceOnUse">
<stop stop-color="white"/>
<stop offset="1" stop-color="#8C9BD0"/>
</linearGradient>
<linearGradient id="paint5_linear_1514_9664" x1="385.93" y1="266.498" x2="462.136" y2="266.498" gradientUnits="userSpaceOnUse">
<stop stop-color="#3B3B3B"/>
<stop offset="1" stop-color="#54687D"/>
</linearGradient>
<linearGradient id="paint6_linear_1514_9664" x1="365.949" y1="280.554" x2="385.93" y2="280.554" gradientUnits="userSpaceOnUse">
<stop stop-color="#3B3B3B"/>
<stop offset="1"/>
</linearGradient>
<linearGradient id="paint7_linear_1514_9664" x1="365.949" y1="258.677" x2="462.137" y2="258.677" gradientUnits="userSpaceOnUse">
<stop stop-color="#7793B8"/>
<stop offset="1" stop-color="#363636"/>
</linearGradient>
<linearGradient id="paint8_linear_1514_9664" x1="383.948" y1="275.495" x2="366.659" y2="275.495" gradientUnits="userSpaceOnUse">
<stop/>
<stop offset="1" stop-color="white"/>
</linearGradient>
<linearGradient id="paint9_linear_1514_9664" x1="402.69" y1="266.124" x2="385.402" y2="266.124" gradientUnits="userSpaceOnUse">
<stop/>
<stop offset="1" stop-color="white"/>
</linearGradient>
<linearGradient id="paint10_linear_1514_9664" x1="421.436" y1="256.749" x2="404.148" y2="256.749" gradientUnits="userSpaceOnUse">
<stop/>
<stop offset="1" stop-color="white"/>
</linearGradient>
<linearGradient id="paint11_linear_1514_9664" x1="440.182" y1="247.382" x2="422.894" y2="247.382" gradientUnits="userSpaceOnUse">
<stop/>
<stop offset="1" stop-color="white"/>
</linearGradient>
<linearGradient id="paint12_linear_1514_9664" x1="426.615" y1="240.12" x2="446.659" y2="220.07" gradientUnits="userSpaceOnUse">
<stop stop-color="#7E9FFF"/>
<stop offset="1" stop-color="#5C75E0"/>
</linearGradient>
<linearGradient id="paint13_linear_1514_9664" x1="434.892" y1="242.881" x2="460.465" y2="217.309" gradientUnits="userSpaceOnUse">
<stop stop-color="#99B4FF"/>
<stop offset="1" stop-color="#BDCEFF"/>
</linearGradient>
<linearGradient id="paint14_linear_1514_9664" x1="449.218" y1="248.598" x2="449.218" y2="210.051" gradientUnits="userSpaceOnUse">
<stop stop-color="#99B4FF"/>
<stop offset="1" stop-color="#DBE4FF"/>
</linearGradient>
<linearGradient id="paint15_linear_1514_9664" x1="442.156" y1="215.572" x2="442.156" y2="204.527" gradientUnits="userSpaceOnUse">
<stop stop-color="#F0F4FF"/>
<stop offset="1" stop-color="#BDCEFF"/>
</linearGradient>
<linearGradient id="paint16_linear_1514_9664" x1="397.636" y1="239.252" x2="438.153" y2="198.734" gradientUnits="userSpaceOnUse">
<stop stop-color="#7E9FFF"/>
<stop offset="1" stop-color="#5C75E0"/>
</linearGradient>
<linearGradient id="paint17_linear_1514_9664" x1="405.919" y1="242.013" x2="451.959" y2="195.973" gradientUnits="userSpaceOnUse">
<stop stop-color="#99B4FF"/>
<stop offset="1" stop-color="#BDCEFF"/>
</linearGradient>
<linearGradient id="paint18_linear_1514_9664" x1="430.264" y1="258.191" x2="430.264" y2="178.473" gradientUnits="userSpaceOnUse">
<stop stop-color="#99B4FF"/>
<stop offset="1" stop-color="#DBE4FF"/>
</linearGradient>
<linearGradient id="paint19_linear_1514_9664" x1="423.414" y1="183.994" x2="423.414" y2="172.949" gradientUnits="userSpaceOnUse">
<stop stop-color="#F0F4FF"/>
<stop offset="1" stop-color="#BDCEFF"/>
</linearGradient>
<linearGradient id="paint20_linear_1514_9664" x1="384.011" y1="253.744" x2="414.292" y2="223.463" gradientUnits="userSpaceOnUse">
<stop stop-color="#7E9FFF"/>
<stop offset="1" stop-color="#5C75E0"/>
</linearGradient>
<linearGradient id="paint21_linear_1514_9664" x1="392.287" y1="256.505" x2="428.096" y2="220.701" gradientUnits="userSpaceOnUse">
<stop stop-color="#99B4FF"/>
<stop offset="1" stop-color="#BDCEFF"/>
</linearGradient>
<linearGradient id="paint22_linear_1514_9664" x1="409.255" y1="268.883" x2="409.255" y2="212.738" gradientUnits="userSpaceOnUse">
<stop stop-color="#99B4FF"/>
<stop offset="1" stop-color="#DBE4FF"/>
</linearGradient>
<linearGradient id="paint23_linear_1514_9664" x1="393.629" y1="208.315" x2="415.712" y2="208.315" gradientUnits="userSpaceOnUse">
<stop stop-color="#99B4FF"/>
<stop offset="1" stop-color="#3956AB"/>
</linearGradient>
<linearGradient id="paint24_linear_1514_9664" x1="404.673" y1="213.838" x2="404.673" y2="202.793" gradientUnits="userSpaceOnUse">
<stop stop-color="#F0F4FF"/>
<stop offset="1" stop-color="#BDCEFF"/>
</linearGradient>
<linearGradient id="paint25_linear_1514_9664" x1="373.353" y1="271.204" x2="387.457" y2="257.101" gradientUnits="userSpaceOnUse">
<stop stop-color="#7E9FFF"/>
<stop offset="1" stop-color="#5C75E0"/>
</linearGradient>
<linearGradient id="paint26_linear_1514_9664" x1="381.633" y1="273.965" x2="401.265" y2="254.339" gradientUnits="userSpaceOnUse">
<stop stop-color="#99B4FF"/>
<stop offset="1" stop-color="#BDCEFF"/>
</linearGradient>
<linearGradient id="paint27_linear_1514_9664" x1="389.378" y1="278.252" x2="389.378" y2="254.238" gradientUnits="userSpaceOnUse">
<stop stop-color="#99B4FF"/>
<stop offset="1" stop-color="#DBE4FF"/>
</linearGradient>
<linearGradient id="paint28_linear_1514_9664" x1="385.927" y1="255.564" x2="385.927" y2="244.52" gradientUnits="userSpaceOnUse">
<stop stop-color="#F0F4FF"/>
<stop offset="1" stop-color="#BDCEFF"/>
</linearGradient>
</defs>
</svg>
