<svg preserveAspectRatio="none" width="100%" height="100%" overflow="visible" style="display: block;" viewBox="0 0 109 12" fill="none" xmlns="http://www.w3.org/2000/svg">
<g id="Frame" clip-path="url(#clip0_0_71)">
<path id="Vector" d="M5.40169 2.5607H0V0.200635H5.40169V2.5607Z" fill="var(--fill-0, #10069F)"/>
<path id="Vector_2" d="M5.40041 5.27405C5.40041 2.46972 7.66152 0.202334 10.4579 0.202334H13.1553V2.559H7.75066V11.9955H5.40041V5.27405Z" fill="var(--fill-0, #10069F)"/>
<path id="Vector_3" d="M69.8325 3.09159V11.9999H72.1866V0.251909C72.016 0.283437 71.8455 0.330677 71.6772 0.395856C70.5327 0.836935 69.8325 1.93045 69.8325 3.09159Z" fill="var(--fill-0, #10069F)"/>
<path id="Vector_4" d="M72.1839 0.252015C73.5215 -2.36028e-10 74.8903 0.73131 75.3976 2.0521L79.2239 12C77.7052 12 76.3432 11.0632 75.7964 9.64259L72.1839 0.252015Z" fill="var(--fill-0, #10069F)"/>
<path id="Vector_5" d="M88.6163 3.09159V11.9999H86.2622V0.251909C86.4328 0.283437 86.6034 0.330677 86.7716 0.395856C87.9162 0.836935 88.6163 1.93045 88.6163 3.09159Z" fill="var(--fill-0, #10069F)"/>
<path id="Vector_6" d="M86.2638 0.252015C84.9262 -2.36028e-10 83.5574 0.73131 83.0502 2.0521L79.2238 12C80.7425 12 82.1045 11.0632 82.6514 9.64259L86.2638 0.252015Z" fill="var(--fill-0, #10069F)"/>
<path id="Vector_7" d="M22.5097 0.200104C20.8199 0.200104 19.359 1.18799 18.6722 2.61675L16.3473 7.28136H18.9797L22.5097 0.200104ZM26.2798 2.48405C25.5685 1.12717 24.1457 0.200104 22.5097 0.200104L25.9164 7.03157L28.3939 12H31.0262L26.2798 2.48405Z" fill="var(--fill-0, #10069F)"/>
<path id="Vector_8" d="M13.9932 12C15.436 9.10671 18.3852 7.27913 21.6113 7.27913H26.0397L24.8616 9.63951H17.8037L16.6256 12H13.9932Z" fill="var(--fill-0, #10069F)"/>
<path id="Vector_9" d="M57.9665 0.200104C56.2767 0.200104 54.8158 1.18799 54.129 2.61675L51.8041 7.28136H54.4365L57.9665 0.200104ZM61.7366 2.48405C61.0252 1.12717 59.6024 0.200104 57.9665 0.200104L61.3731 7.03157L63.8507 12H66.4829L61.7366 2.48405Z" fill="var(--fill-0, #10069F)"/>
<path id="Vector_10" d="M49.45 12C50.8928 9.10671 53.842 7.27913 57.0681 7.27913H61.4965L60.3183 9.63951H53.2605L52.0824 12H49.45Z" fill="var(--fill-0, #10069F)"/>
<path id="Vector_11" d="M100.483 0.200104C98.7936 0.200104 97.3327 1.18799 96.6459 2.61675L94.3211 7.28136H96.9535L100.483 0.200104ZM104.254 2.48405C103.542 1.12717 102.119 0.200104 100.483 0.200104L103.89 7.03157L106.368 12H109L104.254 2.48405Z" fill="var(--fill-0, #10069F)"/>
<path id="Vector_12" d="M91.9671 12C93.4099 9.10671 96.3591 7.27913 99.5852 7.27913H104.014L102.836 9.63951H95.7777L94.5995 12H91.9671Z" fill="var(--fill-0, #10069F)"/>
<path id="Vector_13" d="M37.1873 0.200104H45.9775V2.56049H34.3552C34.3866 2.38947 34.4337 2.21845 34.4988 2.04977C34.9387 0.902115 36.0292 0.200104 37.1873 0.200104Z" fill="var(--fill-0, #10069F)"/>
<path id="Vector_14" d="M44.3261 6.4164C45.6435 6.92499 46.3728 8.29749 46.1214 9.63866L36.1507 5.7818C34.8334 5.27331 34.1041 3.90071 34.3554 2.55964L44.3261 6.4164Z" fill="var(--fill-0, #10069F)"/>
<path id="Vector_15" d="M43.2891 11.9999H34.4989V9.63951H46.1211C46.0897 9.81053 46.0426 9.98155 45.9776 10.1502C45.5377 11.2979 44.4471 11.9999 43.2891 11.9999Z" fill="var(--fill-0, #10069F)"/>
</g>
<defs>
<clipPath id="clip0_0_71">
<rect width="109" height="12" fill="white"/>
</clipPath>
</defs>
</svg>
