<svg preserveAspectRatio="none" width="100%" height="100%" overflow="visible" style="display: block;" viewBox="0 0 11.2488 73.9546" fill="none" xmlns="http://www.w3.org/2000/svg">
<g id="Group">
<path id="Vector" d="M7.18006 4.0687V0H4.0687V4.0687H0V7.18006H4.0687V11.2488H7.18006V7.18006H11.2488V4.0687H7.18006Z" fill="var(--fill-0, #ADDC91)"/>
<path id="Vector_2" d="M7.18006 20.8222H4.0687V24.8909H3.70838e-06V28.0022H4.0687V32.0709H7.18006V28.0022H11.2488V24.8909H7.18006V20.8222Z" fill="var(--fill-0, #ADDC91)"/>
<path id="Vector_3" d="M7.18006 41.8837H4.0687V45.9524H3.70838e-06V49.0637H4.0687V53.1324H7.18006V49.0637H11.2488V45.9524H7.18006V41.8837Z" fill="var(--fill-0, #ADDC91)"/>
<path id="Vector_4" d="M7.18006 62.7058H4.0687V66.7745H3.70838e-06V69.8859H4.0687V73.9546H7.18006V69.8859H11.2488V66.7745H7.18006V62.7058Z" fill="var(--fill-0, #ADDC91)"/>
</g>
</svg>
