<svg preserveAspectRatio="none" width="100%" height="100%" overflow="visible" style="display: block;" viewBox="0 0 24 24" fill="none" xmlns="http://www.w3.org/2000/svg">
<g id="solar:folder-path-connect-bold-duotone">
<path id="Vector" d="M2 20C2 19.8011 2.07902 19.6103 2.21967 19.4697C2.36032 19.329 2.55109 19.25 2.75 19.25H11.25V15H12.75V19.25H21.25C21.4489 19.25 21.6397 19.329 21.7803 19.4697C21.921 19.6103 22 19.8011 22 20C22 20.1989 21.921 20.3897 21.7803 20.5303C21.6397 20.671 21.4489 20.75 21.25 20.75H2.75C2.55109 20.75 2.36032 20.671 2.21967 20.5303C2.07902 20.3897 2 20.1989 2 20Z" fill="var(--fill-0, #ADDC91)"/>
<path id="Vector_2" fill-rule="evenodd" clip-rule="evenodd" d="M19 9.8V8.369C19 6.658 19 5.802 18.461 5.246C18.411 5.19467 18.3587 5.146 18.304 5.1C17.706 4.6 16.784 4.6 14.942 4.6H14.68C13.872 4.6 13.469 4.6 13.092 4.5C12.8865 4.44527 12.6874 4.36884 12.498 4.272C12.157 4.095 11.871 3.83 11.3 3.3L10.915 2.942C10.7907 2.8218 10.6612 2.70702 10.527 2.598C10.0852 2.26002 9.55544 2.05626 9.001 2.011C8.87 2 8.736 2 8.465 2C7.847 2 7.538 2 7.281 2.045C6.148 2.244 5.262 3.066 5.049 4.118C5 4.357 5 4.644 5 5.218V9.8C5 12.251 5 13.477 5.82 14.238C6.64 15 7.96 15 10.6 15H13.4C16.04 15 17.36 15 18.18 14.239C19 13.477 19 12.251 19 9.8ZM13.5 6.75C13.3011 6.75 13.1103 6.82902 12.9697 6.96967C12.829 7.11032 12.75 7.30109 12.75 7.5C12.75 7.69891 12.829 7.88968 12.9697 8.03033C13.1103 8.17098 13.3011 8.25 13.5 8.25H16.5C16.6989 8.25 16.8897 8.17098 17.0303 8.03033C17.171 7.88968 17.25 7.69891 17.25 7.5C17.25 7.30109 17.171 7.11032 17.0303 6.96967C16.8897 6.82902 16.6989 6.75 16.5 6.75H13.5Z" fill="var(--fill-0, #10069F)"/>
<path id="Vector_3" d="M12 22C13.1046 22 14 21.1046 14 20C14 18.8954 13.1046 18 12 18C10.8954 18 10 18.8954 10 20C10 21.1046 10.8954 22 12 22Z" fill="var(--fill-0, #10069F)"/>
</g>
</svg>
