<svg preserveAspectRatio="none" width="100%" height="100%" overflow="visible" style="display: block;" viewBox="0 0 24 24" fill="none" xmlns="http://www.w3.org/2000/svg">
<g id="solar:folder-with-files-bold-duotone">
<path id="Vector" d="M2 6.95C2 6.067 2 5.626 2.07 5.258C2.21922 4.46784 2.60314 3.741 3.17165 3.17231C3.74017 2.60361 4.46689 2.21947 5.257 2.07C5.626 2 6.068 2 6.95 2C7.336 2 7.53 2 7.716 2.017C8.51705 2.09223 9.27679 2.40728 9.896 2.921C10.04 3.04 10.176 3.176 10.45 3.45L11 4C11.816 4.816 12.224 5.224 12.712 5.495C12.9802 5.64449 13.2648 5.7626 13.56 5.847C14.098 6 14.675 6 15.828 6H16.202C18.834 6 20.151 6 21.006 6.77C21.0853 6.84 21.16 6.91467 21.23 6.994C22 7.849 22 9.166 22 11.798V14C22 17.771 22 19.657 20.828 20.828C19.656 21.999 17.771 22 14 22H10C6.229 22 4.343 22 3.172 20.828C2.001 19.656 2 17.771 2 14V6.95Z" fill="var(--fill-0, #10069F)"/>
<path id="Vector_2" d="M20 6.238C20 5.94 19.995 5.763 19.975 5.608C19.8886 4.95335 19.5887 4.34548 19.1217 3.87865C18.6547 3.41182 18.0467 3.11211 17.392 3.026C17.197 3 16.965 3 16.5 3H9.988C10.104 3.104 10.235 3.234 10.45 3.45L11 4C11.816 4.816 12.224 5.224 12.712 5.495C12.9805 5.64456 13.2654 5.76268 13.561 5.847C14.098 6 14.675 6 15.829 6H16.202C17.982 6 19.159 6 20 6.238Z" fill="var(--fill-0, #ADDC91)"/>
<path id="Vector_3" fill-rule="evenodd" clip-rule="evenodd" d="M12.25 10C12.25 9.80109 12.329 9.61032 12.4697 9.46967C12.6103 9.32902 12.8011 9.25 13 9.25H18C18.1989 9.25 18.3897 9.32902 18.5303 9.46967C18.671 9.61032 18.75 9.80109 18.75 10C18.75 10.1989 18.671 10.3897 18.5303 10.5303C18.3897 10.671 18.1989 10.75 18 10.75H13C12.8011 10.75 12.6103 10.671 12.4697 10.5303C12.329 10.3897 12.25 10.1989 12.25 10Z" fill="var(--fill-0, #ADDC91)"/>
</g>
</svg>
