<svg preserveAspectRatio="none" width="100%" height="100%" overflow="visible" style="display: block;" viewBox="0 0 24 24" fill="none" xmlns="http://www.w3.org/2000/svg">
<g id="solar:rocket-bold-duotone">
<path id="Vector" fill-rule="evenodd" clip-rule="evenodd" d="M14.447 16.377L20.294 10.547C21.136 9.708 21.557 9.288 21.778 8.755C21.999 8.222 22 7.627 22 6.44V5.873C22 4.047 22 3.134 21.431 2.567C20.862 2 19.947 2 18.116 2H17.546C16.356 2 15.761 2 15.226 2.221C14.69 2.442 14.269 2.862 13.426 3.701L7.58 9.531C6.596 10.511 5.986 11.12 5.75 11.707C5.6769 11.8854 5.63887 12.0762 5.638 12.269C5.638 13.071 6.285 13.717 7.58 15.008L7.754 15.181L9.792 13.112C9.86114 13.0418 9.94343 12.9859 10.0342 12.9475C10.1249 12.9091 10.2223 12.889 10.3208 12.8883C10.4194 12.8875 10.5171 12.9062 10.6084 12.9432C10.6997 12.9802 10.7828 13.0349 10.853 13.104C10.9232 13.1731 10.9791 13.2554 11.0175 13.3462C11.0559 13.4369 11.076 13.5343 11.0767 13.6328C11.0775 13.7314 11.0588 13.8291 11.0218 13.9204C10.9848 14.0117 10.9301 14.0948 10.861 14.165L8.816 16.24L8.953 16.377C10.248 17.667 10.896 18.313 11.7 18.313C11.878 18.313 12.048 18.282 12.219 18.219C12.822 17.997 13.438 17.383 14.447 16.377ZM17.194 9.531C16.8293 9.8944 16.3354 10.0984 15.8205 10.0984C15.3056 10.0984 14.8117 9.8944 14.447 9.531C14.2665 9.35163 14.1232 9.13833 14.0255 8.90338C13.9277 8.66843 13.8774 8.41647 13.8774 8.162C13.8774 7.90753 13.9277 7.65557 14.0255 7.42062C14.1232 7.18567 14.2665 6.97237 14.447 6.793C14.8117 6.4296 15.3056 6.22555 15.8205 6.22555C16.3354 6.22555 16.8293 6.4296 17.194 6.793C17.3745 6.97237 17.5178 7.18567 17.6155 7.42062C17.7133 7.65557 17.7636 7.90753 17.7636 8.162C17.7636 8.41647 17.7133 8.66843 17.6155 8.90338C17.5178 9.13833 17.3745 9.35163 17.194 9.531Z" fill="var(--fill-0, #10069F)"/>
<path id="Vector_2" d="M9.034 5.963L6.491 8.5C6.024 8.966 5.595 9.393 5.256 9.78C5.0266 10.0351 4.81951 10.3095 4.637 10.6L4.613 10.575L4.518 10.481C4.07498 10.053 3.55523 9.7124 2.986 9.477L2.863 9.427L2.484 9.277C2.36597 9.23047 2.26139 9.15527 2.17969 9.05821C2.09799 8.96114 2.04176 8.84525 2.01606 8.72101C1.99035 8.59677 1.996 8.46809 2.03248 8.34657C2.06895 8.22506 2.13512 8.11454 2.225 8.025C3.345 6.907 4.69 5.566 5.34 5.297C5.90454 5.06119 6.52225 4.98207 7.128 5.068C7.674 5.149 8.19 5.43 9.034 5.963ZM13.377 19.313C13.582 19.521 13.717 19.668 13.841 19.825C14.003 20.0323 14.1477 20.2517 14.275 20.483C14.417 20.743 14.528 21.02 14.749 21.575C14.7924 21.68 14.861 21.7726 14.9487 21.8447C15.0365 21.9168 15.1407 21.9661 15.2521 21.9882C15.3635 22.0104 15.4786 22.0047 15.5873 21.9717C15.6959 21.9387 15.7948 21.8794 15.875 21.799L15.959 21.716C17.079 20.599 18.424 19.258 18.694 18.611C18.9312 18.0489 19.0103 17.4328 18.923 16.829C18.842 16.284 18.561 15.769 18.026 14.927L15.474 17.471C14.996 17.948 14.558 18.385 14.161 18.727C13.924 18.933 13.664 19.137 13.377 19.313Z" fill="var(--fill-0, #ADDC91)"/>
</g>
</svg>
