<svg preserveAspectRatio="none" width="100%" height="100%" overflow="visible" style="display: block;" viewBox="0 0 120 120" fill="none" xmlns="http://www.w3.org/2000/svg">
<g id="Brutalism 22">
<path id="Vector" d="M104.376 27.3865C104.369 27.2608 104.337 27.1383 104.275 27.0203C104.267 27.0043 104.266 26.9858 104.257 26.9703C104.254 26.9664 104.254 26.9615 104.252 26.9575C104.173 26.8318 104.064 26.7394 103.944 26.6663C103.933 26.6592 103.928 26.6459 103.916 26.6392L89.4346 18.4982C89.1436 18.3324 88.7783 18.3324 88.4872 18.4982L74.4808 26.3733L60.4732 18.4984C60.4595 18.4905 60.4426 18.4937 60.4285 18.4866C60.2981 18.4209 60.1564 18.3747 59.9995 18.3747C59.8426 18.3747 59.7009 18.4209 59.5705 18.4866C59.5564 18.4935 59.5397 18.4905 59.5258 18.4982L45.5189 26.3728L31.5117 18.4982C31.2182 18.3324 30.8579 18.3324 30.5644 18.4982L16.0838 26.6392C16.0709 26.6464 16.0656 26.6614 16.0532 26.6693C15.9289 26.7462 15.817 26.8429 15.7382 26.9755C15.7372 26.9772 15.7369 26.9787 15.7359 26.9804C15.6591 27.1115 15.6291 27.2522 15.6222 27.3934C15.6215 27.4092 15.6101 27.4222 15.6101 27.438V43.7189C15.6101 44.048 15.7902 44.353 16.0838 44.5176L30.0907 52.3922V68.1406C30.0907 68.1563 30.1021 68.1694 30.1028 68.1851C30.1096 68.3261 30.1395 68.4665 30.2163 68.5976C30.2981 68.7376 30.4163 68.8571 30.5644 68.9408L44.5713 76.8154V92.5613C44.5713 92.8905 44.7514 93.1955 45.045 93.3613L59.5256 101.502C59.5405 101.511 59.5581 101.507 59.5733 101.515C59.7029 101.58 59.8436 101.625 59.9992 101.625C60.1549 101.625 60.2958 101.58 60.4252 101.515C60.4401 101.507 60.4583 101.511 60.4729 101.502L74.9548 93.3613C75.2483 93.1955 75.4285 92.8905 75.4285 92.5613V76.8147L89.4341 68.9408C89.5561 68.8719 89.6448 68.7678 89.7229 68.6589C89.7395 68.636 89.7671 68.6266 89.782 68.602C89.8608 68.469 89.8901 68.3256 89.8964 68.1819C89.8972 68.1674 89.9078 68.1556 89.9078 68.1408V52.3925L103.916 44.5178C104.21 44.3532 104.39 44.0482 104.39 43.7191V27.438C104.39 27.4195 104.377 27.4047 104.376 27.3865ZM88.9609 20.3625L101.586 27.4589C96.1197 30.693 90.4472 33.9543 89.0696 34.5752L76.3751 27.4382L88.9609 20.3625ZM74.4819 75.2156L60.9469 67.607V53.4573L87.0647 68.1406L74.4819 75.2156ZM59.9995 83.3583L47.4139 76.2819L59.9995 69.2047L72.5859 76.2816L59.9995 83.3583ZM32.9343 68.1408L59.0521 53.4578V67.607L45.5176 75.216L32.9343 68.1408ZM88.0136 36.1111V50.2618L75.429 43.1868V29.0364L88.0136 36.1111ZM73.534 43.1863L60.9469 50.2618V20.8948L73.534 27.971V43.1863ZM59.0521 50.2615L46.4663 43.1865V27.9705L59.0521 20.895V50.2615ZM31.9854 52.3922L45.5187 44.784L58.1045 51.8597L31.9854 66.5417V52.3922ZM31.9854 50.2618V36.1111L44.5713 29.0356V43.1868L31.9854 50.2618ZM61.8952 51.8597L74.4816 44.784L88.0136 52.3922V66.5419L61.8952 51.8597ZM31.0381 20.3625L43.6247 27.438L31.0381 34.5139L18.4517 27.438L31.0381 20.3625ZM17.5048 43.1868V29.0356L30.0907 36.1113V50.2618L17.5048 43.1868ZM46.4663 77.8803L59.0521 84.956V99.1052L46.4663 92.0278V77.8803ZM73.534 92.0278L60.9469 99.1052V84.956L73.534 77.8796V92.0278ZM89.9083 50.2618V36.1945C91.3155 35.5758 94.5383 33.7981 102.495 29.0799V43.1868L89.9083 50.2618Z" fill="var(--fill-0, #ADDC91)"/>
</g>
</svg>
