<svg preserveAspectRatio="none" width="100%" height="100%" overflow="visible" style="display: block;" viewBox="0 0 120 120" fill="none" xmlns="http://www.w3.org/2000/svg">
<g id="Brutalism 53">
<path id="Vector" d="M102.602 73.6521C102.602 73.6521 100.041 71.6842 96.0918 69.4704C100.041 67.2565 102.506 65.3624 102.673 65.2394L102.913 64.9935C103.152 64.7475 103.152 64.3785 102.913 64.1325L102.602 63.8373C102.602 63.8373 100.041 61.8695 96.0918 59.6556C99.0834 57.9583 101.214 56.4824 102.123 55.8183C102.243 55.8183 102.362 55.8183 102.482 55.7937C102.697 55.6953 102.841 55.4739 102.841 55.2279V54.9819C102.841 54.7606 102.721 54.5392 102.506 54.4408C102.41 54.3916 102.291 54.367 102.195 54.367C101.573 53.8996 99.2988 52.2515 95.8524 50.3083C99.8014 48.0944 102.267 46.2003 102.434 46.0773L102.673 45.8314C102.673 45.8314 102.841 45.5608 102.841 45.3886C102.841 45.2164 102.769 45.0688 102.673 44.9458L102.434 44.6998C102.291 44.5522 83.1676 30.2606 59.8803 30.2606C36.593 30.2606 17.7095 44.7736 17.5659 44.9212L17.3265 45.1672C17.0872 45.4132 17.0872 45.8068 17.3265 46.0281L17.6377 46.3233C17.6377 46.3233 20.1986 48.2912 24.1476 50.505C20.1986 52.7189 17.7334 54.613 17.5659 54.736L17.3265 54.9819C17.0872 55.2279 17.0872 55.6215 17.3265 55.8429L17.6377 56.1381C17.6377 56.1381 20.1986 58.1059 24.1476 60.3198C21.0602 62.0663 18.8822 63.5914 18.0445 64.2063C17.8052 64.0833 17.5419 64.1325 17.3505 64.3047C17.2308 64.4277 17.1829 64.5753 17.1829 64.7475C17.1829 64.9197 17.2308 65.0673 17.3505 65.1902L17.5898 65.4362C17.5898 65.4362 17.6377 65.4854 17.6616 65.51C17.8291 65.633 20.2704 67.5025 24.1715 69.6917C20.2225 71.9056 17.7573 73.7997 17.5898 73.9227L17.3505 74.1686C17.1829 74.3408 17.1351 74.6114 17.2308 74.8328C17.3265 75.0542 17.5419 75.2018 17.7813 75.2018H17.8291C20.1028 76.8745 38.388 89.4688 60.1436 89.4688C78.4288 89.4688 94.2489 80.6872 102.051 75.4478C102.267 75.3002 102.434 75.2018 102.506 75.1526C102.578 75.128 102.65 75.0788 102.697 75.0296L102.937 74.7836C103.176 74.5376 103.176 74.1686 102.937 73.9227L102.626 73.6275L102.602 73.6521ZM60.1197 87.7961C40.6617 87.7961 24.3391 77.5386 19.7678 74.39C20.9166 73.5783 23.0945 72.127 26.1101 70.6511C33.9843 74.9066 46.2382 79.9247 60.359 79.9247C74.4798 79.9247 86.6619 74.9312 94.56 70.6757C97.3363 72.496 99.251 73.7505 100.4 74.4392C95.7327 77.637 79.4819 87.7961 60.1436 87.7961H60.1197ZM59.8803 32.2039C79.3383 32.2039 95.6609 42.4614 100.232 45.61C99.0595 46.4217 96.9055 47.873 93.8899 49.3489C86.0157 45.0934 73.7618 40.0753 59.641 40.0753C45.5202 40.0753 32.4525 45.8068 25.8947 49.3489C23.9561 48.2174 22.3526 47.2335 21.108 46.4709C20.5097 46.1019 20.0071 45.8068 19.6002 45.5608C24.2673 42.363 40.5181 32.2039 59.8564 32.2039H59.8803ZM60.1197 78.2028C50.0437 78.2028 39.2496 75.3494 27.953 69.7163C30.4421 68.4372 33.4099 66.9859 36.6648 65.7068C45.2091 68.8308 52.9635 70.3313 60.359 70.3313C68.1853 70.3313 75.7961 68.8062 83.5745 65.7068C87.2842 67.1335 90.0605 68.4126 92.3581 69.6917C85.8961 73.0863 73.9054 78.2028 60.0957 78.2028H60.1197ZM59.641 41.7972C69.717 41.7972 80.511 44.6506 91.8077 50.2837C89.2228 51.612 86.3508 53.0387 83.1198 54.2932C76.1551 51.3168 67.922 49.6687 59.8803 49.6687C51.8387 49.6687 44.1321 51.2184 36.1862 54.2932C32.4765 52.8665 29.7002 51.612 27.3786 50.3083C33.8407 46.9137 45.8314 41.7972 59.641 41.7972ZM59.8803 68.6094C53.2029 68.6094 45.975 67.3057 38.9385 64.7967C46.3579 62.2139 53.2268 60.9839 59.8803 60.9839C66.5339 60.9839 73.7857 62.2876 80.8461 64.7967C73.666 67.3549 66.7732 68.6094 59.8803 68.6094ZM59.8803 51.3906C66.5817 51.3906 73.7857 52.6943 80.8461 55.2033C73.666 57.7616 66.7732 59.0161 59.8803 59.0161C52.9875 59.0161 45.9989 57.7124 38.9385 55.2033C46.3579 52.6451 53.2268 51.3906 59.8803 51.3906ZM68.281 59.877C73.2831 59.1391 78.4049 57.8107 83.5745 55.8675C87.2603 57.2942 90.0366 58.5487 92.3581 59.8524C89.7494 61.1807 86.8534 62.632 83.5745 63.9111C78.4288 61.9679 73.307 60.615 68.281 59.9016V59.877ZM36.4255 55.8675C41.5712 57.8107 46.693 59.1637 51.719 59.877C46.7169 60.615 41.5951 61.9433 36.4255 63.8865C32.7397 62.4598 29.9634 61.2053 27.6419 59.9016C30.2506 58.5733 33.1466 57.122 36.4255 55.8429V55.8675ZM100.4 64.8459C99.227 65.6576 97.073 67.0843 94.1292 68.5356C91.9752 67.3549 89.2946 66.125 85.9679 64.7967C89.2946 63.4684 91.9752 62.2384 94.1053 61.0577C96.4986 62.3122 98.4133 63.5422 99.7057 64.3785C99.969 64.5507 100.184 64.6983 100.4 64.8213V64.8459ZM99.7057 55.6215C98.4133 56.4578 96.5226 57.6878 94.1053 58.9423C91.9513 57.7616 89.2707 56.5316 85.9679 55.2033C89.2707 53.8996 91.9513 52.6697 94.0813 51.489C96.02 52.6205 97.6235 53.6044 98.868 54.3424C99.4185 54.6868 99.9211 54.9819 100.304 55.2279C100.113 55.3509 99.9211 55.4739 99.6818 55.6215H99.7057ZM25.8708 51.4644C28.0248 52.6451 30.7054 53.875 34.0321 55.2033C30.7293 56.5316 28.0488 57.7616 25.8947 58.9423C23.5014 57.6878 21.5867 56.4578 20.2943 55.6215C20.031 55.4493 19.8156 55.3017 19.6002 55.1787C20.773 54.367 22.927 52.9403 25.8708 51.489V51.4644ZM25.8708 61.0577C28.0248 62.2384 30.7054 63.4684 34.0321 64.7967C30.7293 66.125 28.0488 67.3303 25.8947 68.5356C22.8791 66.9859 20.7012 65.6084 19.5284 64.8213C20.6772 64.0095 22.8552 62.5582 25.8708 61.0823V61.0577Z" fill="var(--fill-0, #ADDC91)"/>
</g>
</svg>
