<svg preserveAspectRatio="none" width="100%" height="100%" overflow="visible" style="display: block;" viewBox="0 0 120 120" fill="none" xmlns="http://www.w3.org/2000/svg">
<g id="Brutalism 110">
<path id="Vector" d="M101.301 59.1384L64.6983 59.0905L98.521 45.4963C98.9884 45.3048 99.2097 44.7783 99.0376 44.2996C98.8408 43.8449 98.2996 43.6055 97.8076 43.797L63.9849 57.3912L89.887 32.2371C90.256 31.8781 90.256 31.3037 89.887 30.9447C89.518 30.5857 88.9276 30.5857 88.5587 30.9447L62.6566 56.0988L76.7023 23.2142C76.8991 22.7594 76.6777 22.209 76.1857 22.0175C75.7183 21.826 75.1526 22.0414 74.9558 22.5201L60.9101 55.4048L60.9593 19.7917C60.9593 19.2891 60.5412 18.8822 60.0246 18.8822C59.508 18.8822 59.0899 19.2891 59.0899 19.7917L59.0407 55.4048L45.0934 22.4962C44.8966 22.0414 44.3555 21.826 43.8635 21.9936C43.6421 22.0893 43.4453 22.2568 43.3469 22.4962C43.2485 22.7116 43.2485 22.9748 43.3469 23.1903L57.3188 56.0988L31.4905 30.8968C31.3183 30.7293 31.0724 30.6336 30.8264 30.6336C30.5804 30.6336 30.3344 30.7293 30.1622 30.8968C29.99 31.0644 29.8916 31.3037 29.8916 31.543C29.8916 31.7824 29.99 32.0217 30.1622 32.1893L56.0151 57.3912L22.217 43.7252C21.9956 43.6295 21.725 43.6295 21.5036 43.7252C21.2822 43.8209 21.0854 43.9885 20.987 44.2278C20.7902 44.6826 21.0116 45.233 21.5036 45.4245L55.3017 59.0905L18.6994 59.0427C18.1828 59.0427 17.7647 59.4495 17.7647 59.9521C17.7647 60.4547 18.1828 60.8616 18.6994 60.8616L55.3017 60.9095L21.479 74.5037C21.0116 74.6952 20.7657 75.2217 20.9624 75.7004C21.11 76.0355 21.4544 76.2748 21.8234 76.2748L56.0151 62.6088L30.113 87.7629C29.9408 87.9304 29.8424 88.1697 29.8424 88.4091C29.8424 88.6484 29.9408 88.8878 30.113 89.0553C30.4574 89.3904 31.0724 89.4143 31.4413 89.0553L57.3434 63.9012L43.2977 96.7858C43.1009 97.2406 43.3223 97.791 43.7897 97.9825L44.1587 98.0543C44.5276 98.0543 44.872 97.8389 45.0196 97.4799L59.0653 64.5952L59.0161 100.208C59.0161 100.711 59.4342 101.118 59.9508 101.118C60.4674 101.118 60.8855 100.711 60.8855 100.208L60.9347 64.5952L74.9066 97.5038C75.0542 97.8389 75.3986 98.0782 75.7675 98.0782L76.1119 98.0064C76.3333 97.9107 76.5301 97.7432 76.6285 97.5038C76.7269 97.2884 76.7269 97.0252 76.6285 96.8098L62.6566 63.9012L88.4849 89.1032C88.8293 89.4622 89.4688 89.4622 89.8132 89.1032C89.9854 88.9356 90.0838 88.6963 90.0838 88.457C90.0838 88.2176 89.9854 87.9783 89.8132 87.8107L63.9603 62.6088L97.7585 76.2748L98.1028 76.3466C98.4718 76.3466 98.8162 76.1312 98.9638 75.7722C99.1606 75.3174 98.9392 74.7909 98.4472 74.5755L64.6491 60.9095L101.251 60.9573C101.768 60.9573 102.186 60.5505 102.186 60.0479C102.186 59.5453 101.768 59.1384 101.251 59.1384H101.301Z" fill="var(--fill-0, #ADDC91)"/>
</g>
</svg>
