<svg preserveAspectRatio="none" width="100%" height="100%" overflow="visible" style="display: block;" viewBox="0 0 24 24" fill="none" xmlns="http://www.w3.org/2000/svg">
<g id="solar:file-check-bold-duotone">
<path id="Vector" fill-rule="evenodd" clip-rule="evenodd" d="M14 22H10C6.229 22 4.343 22 3.172 20.828C2.001 19.656 2 17.771 2 14V10C2 6.229 2 4.343 3.172 3.172C4.344 2.001 6.239 2 10.03 2C10.636 2 11.121 2 11.53 2.017C11.5167 2.097 11.51 2.17833 11.51 2.261L11.5 5.095C11.5 6.192 11.5 7.162 11.605 7.943C11.719 8.79 11.98 9.637 12.672 10.329C13.362 11.019 14.21 11.281 15.057 11.395C15.838 11.5 16.808 11.5 17.905 11.5H21.957C22 12.034 22 12.69 22 13.563V14C22 17.771 22 19.657 20.828 20.828C19.656 21.999 17.771 22 14 22Z" fill="var(--fill-0, #10069F)"/>
<path id="Vector_2" d="M10.56 15.498C10.6301 15.4253 10.6848 15.3391 10.7207 15.2447C10.7567 15.1503 10.7732 15.0496 10.7693 14.9487C10.7654 14.8478 10.7412 14.7487 10.6981 14.6573C10.6549 14.566 10.5938 14.4843 10.5183 14.4172C10.4428 14.3501 10.3545 14.2989 10.2588 14.2667C10.163 14.2345 10.0618 14.222 9.96108 14.2299C9.86038 14.2379 9.76232 14.266 9.67278 14.3128C9.58323 14.3595 9.50406 14.4239 9.44 14.502L7.333 16.872L6.561 16.002C6.42892 15.8532 6.24315 15.763 6.04455 15.7512C5.84595 15.7394 5.65079 15.8069 5.502 15.939C5.35321 16.0711 5.26299 16.2569 5.25117 16.4555C5.23936 16.6541 5.30692 16.8492 5.439 16.998L6.773 18.498C6.84336 18.577 6.92963 18.6402 7.02614 18.6835C7.12265 18.7267 7.22723 18.7491 7.333 18.7491C7.43877 18.7491 7.54335 18.7267 7.63986 18.6835C7.73637 18.6402 7.82264 18.577 7.893 18.498L10.56 15.498ZM11.51 2.26L11.5 5.095C11.5 6.192 11.5 7.161 11.605 7.943C11.719 8.79 11.98 9.637 12.672 10.328C13.362 11.019 14.21 11.281 15.057 11.395C15.838 11.5 16.808 11.5 17.905 11.5H21.957C21.9703 11.6547 21.9797 11.8213 21.985 12H22C22 11.732 22 11.598 21.99 11.44C21.914 10.4895 21.5831 9.57713 21.032 8.799C20.938 8.671 20.874 8.595 20.747 8.442C19.954 7.494 18.91 6.312 18 5.5C17.19 4.776 16.079 3.985 15.11 3.339C14.278 2.783 13.862 2.505 13.291 2.299C13.1247 2.24025 12.9558 2.18887 12.785 2.145C12.401 2.05 12.027 2.017 11.5 2.005L11.51 2.26Z" fill="var(--fill-0, #ADDC91)"/>
</g>
</svg>
