<svg width="15" height="15" viewBox="0 0 15 15" fill="none" xmlns="http://www.w3.org/2000/svg">
<path d="M5.84223 3.82149C6.08965 3.15286 7.03535 3.15286 7.28277 3.82149L8.21242 6.33381C8.2902 6.54402 8.45595 6.70977 8.66616 6.78755L11.1785 7.71719C11.8471 7.96461 11.8471 8.91032 11.1785 9.15773L8.66616 10.0874C8.45595 10.1652 8.2902 10.3309 8.21242 10.5411L7.28277 13.0534C7.03535 13.7221 6.08965 13.7221 5.84223 13.0534L4.91258 10.5411C4.8348 10.3309 4.66905 10.1652 4.45884 10.0874L1.94651 9.15773C1.27788 8.91031 1.27788 7.96461 1.94651 7.71719L4.45884 6.78755C4.66905 6.70977 4.8348 6.54402 4.91258 6.33381L5.84223 3.82149Z" fill="white"/>
<path d="M11.0186 1.58811C11.141 1.25727 11.609 1.25727 11.7314 1.58811L12.1246 2.65084C12.1631 2.75486 12.2451 2.83687 12.3491 2.87535L13.4119 3.2686C13.7427 3.39102 13.7427 3.85895 13.4119 3.98137L12.3491 4.37461C12.2451 4.4131 12.1631 4.49511 12.1246 4.59912L11.7314 5.66186C11.609 5.9927 11.141 5.9927 11.0186 5.66186L10.6254 4.59912C10.5869 4.49511 10.5049 4.4131 10.4009 4.37461L9.33812 3.98137C9.00728 3.85895 9.00728 3.39102 9.33812 3.2686L10.4009 2.87535C10.5049 2.83687 10.5869 2.75486 10.6254 2.65084L11.0186 1.58811Z" fill="white"/>
</svg>
