<svg preserveAspectRatio="none" width="100%" height="100%" overflow="visible" style="display: block;" viewBox="0 0 1442 406" fill="none" xmlns="http://www.w3.org/2000/svg">
<g id="Structural green line artwork" clip-path="url(#clip0_0_4)">
<path id="Vector" d="M0 367.656H1442" stroke="var(--stroke-0, #2B24AC)"/>
<path id="Vector_2" d="M308.678 0V209.767L448.372 286.456V0" stroke="var(--stroke-0, #2B24AC)"/>
<path id="Vector_3" d="M308.678 209.767L966.591 117.289V0" stroke="var(--stroke-0, #2B24AC)"/>
<path id="Vector_4" d="M966.591 117.289L1108.54 198.489V0" stroke="var(--stroke-0, #2B24AC)"/>
<path id="Vector_5" d="M308.678 209.767L448.372 286.456L1108.54 198.489" stroke="var(--stroke-0, #2B24AC)"/>
<path id="Vector_6" d="M975.603 367.656C991.375 266.156 1034.18 133.078 1155.85 0" stroke="var(--stroke-0, #2B24AC)"/>
<path id="Vector_7" d="M1144.59 367.656C1168.25 266.156 1252.74 133.078 1383.42 0" stroke="var(--stroke-0, #2B24AC)"/>
<path id="Vector_8" d="M1259.5 367.656V90.2222L1403.7 160.144V367.656" stroke="var(--stroke-0, #2B24AC)"/>
<path id="Vector_9" d="M1259.5 90.2222L1442 63.1556" stroke="var(--stroke-0, #2B24AC)"/>
<path id="Vector_10" d="M1259.5 90.2222L1403.7 160.144L1442 153.378" stroke="var(--stroke-0, #2B24AC)"/>
</g>
<defs>
<clipPath id="clip0_0_4">
<rect width="1442" height="406" fill="white"/>
</clipPath>
</defs>
</svg>
