<svg width="220" height="44" viewBox="0 0 220 44" fill="none" xmlns="http://www.w3.org/2000/svg">
<g clip-path="url(#clip0_19_24964)">
<path d="M42.4335 17.2797H35V14.0406H42.4335V17.2797Z" fill="#10069F"/>
<path d="M42.4318 21.0037C42.4318 17.1548 45.5434 14.0429 49.3916 14.0429H53.1036V17.2774H45.666V30.2286H42.4318V21.0037Z" fill="#10069F"/>
<path d="M131.1 18.0083V30.2346H134.339V14.111C134.105 14.1542 133.87 14.2191 133.638 14.3085C132.063 14.9139 131.1 16.4147 131.1 18.0083Z" fill="#10069F"/>
<path d="M134.336 14.1111C136.176 13.7652 138.06 14.7689 138.758 16.5816L144.024 30.2347C141.934 30.2347 140.059 28.949 139.307 26.9993L134.336 14.1111Z" fill="#10069F"/>
<path d="M156.949 18.0083V30.2346H153.709V14.111C153.944 14.1542 154.179 14.2191 154.41 14.3085C155.986 14.9139 156.949 16.4147 156.949 18.0083Z" fill="#10069F"/>
<path d="M153.712 14.1111C151.871 13.7652 149.987 14.7689 149.289 16.5816L144.024 30.2347C146.114 30.2347 147.988 28.949 148.74 26.9993L153.712 14.1111Z" fill="#10069F"/>
<path d="M65.9767 14.0399C63.6512 14.0399 61.6408 15.3957 60.6957 17.3566L57.4963 23.7586H61.1189L65.9767 14.0399ZM71.1649 17.1745C70.1859 15.3122 68.228 14.0399 65.9767 14.0399L70.6647 23.4158L74.0741 30.2347H77.6965L71.1649 17.1745Z" fill="#10069F"/>
<path d="M54.2567 30.2348C56.2422 26.2638 60.3007 23.7556 64.7403 23.7556H70.8344L69.2131 26.9951H59.5005L57.8792 30.2348H54.2567Z" fill="#10069F"/>
<path d="M114.77 14.0399C112.445 14.0399 110.435 15.3957 109.489 17.3566L106.29 23.7586H109.913L114.77 14.0399ZM119.959 17.1745C118.98 15.3122 117.022 14.0399 114.77 14.0399L119.458 23.4158L122.868 30.2347H126.49L119.959 17.1745Z" fill="#10069F"/>
<path d="M103.05 30.2348C105.036 26.2638 109.094 23.7556 113.534 23.7556H119.628L118.007 26.9951H108.294L106.673 30.2348H103.05Z" fill="#10069F"/>
<path d="M173.28 14.0399C170.955 14.0399 168.944 15.3957 167.999 17.3566L164.8 23.7586H168.422L173.28 14.0399ZM178.468 17.1745C177.489 15.3122 175.531 14.0399 173.28 14.0399L177.968 23.4158L181.377 30.2347H185L178.468 17.1745Z" fill="#10069F"/>
<path d="M161.56 30.2348C163.546 26.2638 167.604 23.7556 172.044 23.7556H178.138L176.517 26.9951H166.804L165.183 30.2348H161.56Z" fill="#10069F"/>
<path d="M86.1751 14.0399H98.2717V17.2794H82.2778C82.321 17.0447 82.3859 16.81 82.4753 16.5784C83.0807 15.0033 84.5815 14.0399 86.1751 14.0399Z" fill="#10069F"/>
<path d="M95.9992 22.5715C97.8121 23.2695 98.8158 25.1532 98.4697 26.9939L84.7486 21.7005C82.9359 21.0026 81.9322 19.1188 82.2781 17.2782L95.9992 22.5715Z" fill="#10069F"/>
<path d="M94.5721 30.2346H82.4755V26.9951H98.4694C98.4262 27.2298 98.3613 27.4645 98.2719 27.696C97.6665 29.2711 96.1657 30.2346 94.5721 30.2346Z" fill="#10069F"/>
</g>
<defs>
<clipPath id="clip0_19_24964">
<rect width="150" height="16.4695" fill="white" transform="translate(35 13.7652)"/>
</clipPath>
</defs>
</svg>
