<svg width="342" height="71" viewBox="0 0 342 71" fill="none" xmlns="http://www.w3.org/2000/svg">
<g clip-path="url(#clip0_284_28754)">
<path d="M16.9484 8.01014H0V0.625H16.9484V8.01014Z" fill="white"/>
<path d="M16.9453 16.5033C16.9453 7.72795 24.0398 0.632812 32.8138 0.632812H41.2772V8.00732H24.3195V37.5362H16.9453V16.5033Z" fill="white"/>
<path d="M219.107 9.67501V37.551H226.494V0.789062C225.958 0.887721 225.423 1.03554 224.895 1.23951C221.304 2.61973 219.107 6.04157 219.107 9.67501Z" fill="white"/>
<path d="M226.484 0.787094C230.681 -0.00151277 234.976 2.28691 236.568 6.41995L248.573 37.549C243.808 37.549 239.535 34.6175 237.819 30.1722L226.484 0.787094Z" fill="white"/>
<path d="M278.044 9.67501V37.551H270.658V0.789062C271.193 0.887721 271.728 1.03554 272.256 1.23951C275.848 2.61973 278.044 6.04157 278.044 9.67501Z" fill="white"/>
<path d="M270.663 0.787094C266.466 -0.00151277 262.172 2.28691 260.58 6.41995L248.574 37.549C253.339 37.549 257.613 34.6175 259.329 30.1722L270.663 0.787094Z" fill="white"/>
<path d="M70.6262 0.625C65.3242 0.625 60.7403 3.71631 58.5855 8.18719L51.291 22.7837H59.5505L70.6262 0.625ZM82.4553 7.77196C80.2233 3.52597 75.7591 0.625 70.6262 0.625L81.3149 22.0021L89.0883 37.5494H97.3475L82.4553 7.77196Z" fill="white"/>
<path d="M43.9043 37.5499C48.4313 28.4962 57.6847 22.7773 67.807 22.7773H81.7016L78.0051 30.1635H55.8603L52.1637 37.5499H43.9043Z" fill="white"/>
<path d="M181.876 0.625C176.574 0.625 171.99 3.71631 169.835 8.18719L162.541 22.7837H170.8L181.876 0.625ZM193.705 7.77196C191.473 3.52597 187.009 0.625 181.876 0.625L192.565 22.0021L200.338 37.5494H208.597L193.705 7.77196Z" fill="white"/>
<path d="M155.154 37.5499C159.681 28.4962 168.935 22.7773 179.057 22.7773H192.952L189.255 30.1635H167.11L163.414 37.5499H155.154Z" fill="white"/>
<path d="M315.279 0.625C309.977 0.625 305.393 3.71631 303.238 8.18719L295.943 22.7837H304.203L315.279 0.625ZM327.108 7.77196C324.876 3.52597 320.411 0.625 315.279 0.625L325.967 22.0021L333.741 37.5494H342L327.108 7.77196Z" fill="white"/>
<path d="M288.557 37.5499C293.084 28.4962 302.337 22.7773 312.459 22.7773H326.354L322.657 30.1635H300.513L296.816 37.5499H288.557Z" fill="white"/>
<path d="M116.679 0.625H144.259V8.01113H107.793C107.892 7.47598 108.039 6.94083 108.243 6.41299C109.624 2.82174 113.045 0.625 116.679 0.625Z" fill="white"/>
<path d="M139.077 20.0764C143.211 21.6679 145.499 25.9627 144.71 30.1596L113.426 18.0906C109.293 16.4995 107.004 12.2043 107.793 8.00781L139.077 20.0764Z" fill="white"/>
<path d="M135.824 37.5502H108.244V30.1641H144.71C144.612 30.6992 144.464 31.2344 144.26 31.7622C142.88 35.3535 139.458 37.5502 135.824 37.5502Z" fill="white"/>
</g>
<path d="M22.8428 66.1133V55.8533H27.2692C28.4125 55.8533 29.2968 56.0829 29.9222 56.5422C30.5573 57.0014 30.8749 57.6512 30.8749 58.4916C30.8749 59.0485 30.743 59.5176 30.4792 59.8987C30.2251 60.2797 29.8733 60.568 29.4238 60.7634C28.9841 60.9589 28.5004 61.0566 27.9728 61.0566L28.222 60.7048C28.8766 60.7048 29.4385 60.8074 29.9075 61.0126C30.3863 61.208 30.7576 61.5061 31.0215 61.9067C31.2853 62.2975 31.4172 62.7861 31.4172 63.3724C31.4172 64.2421 31.0948 64.9163 30.4498 65.3951C29.8147 65.8739 28.8522 66.1133 27.5624 66.1133H22.8428ZM23.9274 65.2192H27.5477C28.4467 65.2192 29.1356 65.0677 29.6144 64.7648C30.0932 64.4521 30.3326 63.9587 30.3326 63.2845C30.3326 62.62 30.0932 62.1363 29.6144 61.8334C29.1356 61.5207 28.4467 61.3644 27.5477 61.3644H23.8102V60.4703H27.196C28.0168 60.4703 28.6519 60.3139 29.1014 60.0013C29.5606 59.6886 29.7903 59.2244 29.7903 58.6088C29.7903 57.9835 29.5606 57.5193 29.1014 57.2164C28.6519 56.9037 28.0168 56.7474 27.196 56.7474H23.9274V65.2192ZM36.8536 66.1866C36.199 66.1866 35.6273 66.0644 35.1388 65.8201C34.6502 65.5759 34.2691 65.2094 33.9955 64.7209C33.7317 64.2323 33.5998 63.6216 33.5998 62.8887V58.4183H34.6404V62.7715C34.6404 63.5923 34.8407 64.2127 35.2414 64.6329C35.6518 65.0433 36.2234 65.2485 36.9562 65.2485C37.4937 65.2485 37.9578 65.141 38.3487 64.9261C38.7493 64.7013 39.0522 64.3789 39.2574 63.9587C39.4724 63.5385 39.5799 63.0353 39.5799 62.449V58.4183H40.6205V66.1133H39.6238V64.0027L39.7851 64.3837C39.5408 64.9505 39.1597 65.3951 38.6418 65.7175C38.1337 66.0302 37.5376 66.1866 36.8536 66.1866ZM45.5875 66.1866C44.9523 66.1866 44.3514 66.0986 43.7846 65.9227C43.2179 65.7371 42.7733 65.5075 42.4508 65.2339L42.9199 64.4131C43.2326 64.6476 43.6332 64.8528 44.1218 65.0287C44.6103 65.1948 45.1233 65.2778 45.6608 65.2778C46.3936 65.2778 46.9213 65.1655 47.2437 64.9407C47.5662 64.7062 47.7274 64.3984 47.7274 64.0173C47.7274 63.7339 47.6346 63.5141 47.4489 63.3577C47.273 63.1916 47.0385 63.0695 46.7454 62.9913C46.4522 62.9034 46.1249 62.8301 45.7634 62.7715C45.4018 62.7128 45.0403 62.6444 44.6787 62.5663C44.327 62.4881 44.0045 62.3757 43.7114 62.2291C43.4182 62.0728 43.1788 61.8627 42.9932 61.5989C42.8173 61.3351 42.7293 60.9833 42.7293 60.5436C42.7293 60.1234 42.8466 59.7472 43.0811 59.415C43.3156 59.0827 43.6576 58.8238 44.1071 58.6381C44.5664 58.4427 45.1233 58.345 45.778 58.345C46.2764 58.345 46.7747 58.4134 47.273 58.5502C47.7714 58.6772 48.1818 58.8482 48.5042 59.0632L48.0499 59.8987C47.7079 59.6641 47.3414 59.498 46.9506 59.4003C46.5597 59.2928 46.1689 59.2391 45.778 59.2391C45.0842 59.2391 44.5712 59.3612 44.239 59.6055C43.9166 59.84 43.7553 60.1429 43.7553 60.5143C43.7553 60.8074 43.8433 61.037 44.0192 61.2031C44.2048 61.3693 44.4442 61.5012 44.7374 61.5989C45.0403 61.6868 45.3676 61.7601 45.7194 61.8187C46.0809 61.8774 46.4376 61.9507 46.7894 62.0386C47.1509 62.1168 47.4782 62.2291 47.7714 62.3757C48.0743 62.5125 48.3137 62.7128 48.4896 62.9767C48.6752 63.2307 48.7681 63.5678 48.7681 63.988C48.7681 64.4375 48.641 64.8283 48.387 65.1606C48.1427 65.483 47.7812 65.7371 47.3024 65.9227C46.8333 66.0986 46.2617 66.1866 45.5875 66.1866ZM50.6776 66.1133V58.4183H51.7183V66.1133H50.6776ZM51.2053 56.7181C50.9903 56.7181 50.8095 56.6448 50.663 56.4982C50.5164 56.3516 50.4431 56.1757 50.4431 55.9705C50.4431 55.7653 50.5164 55.5943 50.663 55.4575C50.8095 55.311 50.9903 55.2377 51.2053 55.2377C51.4202 55.2377 51.601 55.3061 51.7476 55.4429C51.8942 55.5797 51.9674 55.7507 51.9674 55.9559C51.9674 56.1709 51.8942 56.3516 51.7476 56.4982C51.6108 56.6448 51.43 56.7181 51.2053 56.7181ZM54.6139 66.1133V58.4183H55.6106V60.5289L55.4493 60.1332C55.6936 59.5762 56.0845 59.1414 56.6219 58.8287C57.1593 58.5062 57.7994 58.345 58.542 58.345C59.1674 58.345 59.7146 58.4671 60.1836 58.7114C60.6624 58.9459 61.0337 59.3075 61.2975 59.7961C61.5711 60.2846 61.7079 60.9002 61.7079 61.6429V66.1133H60.6673V61.7455C60.6673 60.9344 60.4621 60.3237 60.0517 59.9133C59.651 59.4931 59.0843 59.2831 58.3514 59.2831C57.8042 59.2831 57.3254 59.3954 56.915 59.6202C56.5144 59.8351 56.2017 60.1527 55.977 60.5729C55.762 60.9833 55.6545 61.4816 55.6545 62.0679V66.1133H54.6139ZM67.7874 66.1866C66.9862 66.1866 66.2826 66.0205 65.6768 65.6882C65.071 65.3462 64.5971 64.8821 64.2551 64.2958C63.9131 63.6997 63.7421 63.0206 63.7421 62.2585C63.7421 61.4963 63.9033 60.8221 64.2257 60.2358C64.558 59.6495 65.0075 59.1902 65.5742 58.858C66.1507 58.516 66.7956 58.345 67.5089 58.345C68.232 58.345 68.8721 58.5111 69.429 58.8433C69.9958 59.1658 70.4404 59.6251 70.7628 60.2211C71.0853 60.8074 71.2465 61.4865 71.2465 62.2585C71.2465 62.3073 71.2416 62.3611 71.2319 62.4197C71.2319 62.4685 71.2319 62.5223 71.2319 62.5809H64.5335V61.8041H70.6749L70.2645 62.1119C70.2645 61.5549 70.1423 61.0615 69.8981 60.6315C69.6635 60.1918 69.3411 59.8498 68.9307 59.6055C68.5203 59.3612 68.0464 59.2391 67.5089 59.2391C66.9813 59.2391 66.5074 59.3612 66.0872 59.6055C65.667 59.8498 65.3397 60.1918 65.1052 60.6315C64.8707 61.0712 64.7534 61.5745 64.7534 62.1412V62.3024C64.7534 62.8887 64.8804 63.4066 65.1345 63.8561C65.3983 64.2958 65.7599 64.6427 66.2191 64.8967C66.6881 65.141 67.2207 65.2632 67.8167 65.2632C68.2858 65.2632 68.7206 65.1801 69.1212 65.014C69.5316 64.8479 69.8834 64.5938 70.1765 64.2518L70.7628 64.9261C70.4208 65.3365 69.9909 65.6491 69.473 65.8641C68.9649 66.0791 68.403 66.1866 67.7874 66.1866ZM75.4314 66.1866C74.7962 66.1866 74.1953 66.0986 73.6285 65.9227C73.0618 65.7371 72.6172 65.5075 72.2947 65.2339L72.7638 64.4131C73.0764 64.6476 73.4771 64.8528 73.9656 65.0287C74.4542 65.1948 74.9672 65.2778 75.5046 65.2778C76.2375 65.2778 76.7652 65.1655 77.0876 64.9407C77.4101 64.7062 77.5713 64.3984 77.5713 64.0173C77.5713 63.7339 77.4785 63.5141 77.2928 63.3577C77.1169 63.1916 76.8824 63.0695 76.5893 62.9913C76.2961 62.9034 75.9688 62.8301 75.6072 62.7715C75.2457 62.7128 74.8842 62.6444 74.5226 62.5663C74.1708 62.4881 73.8484 62.3757 73.5552 62.2291C73.2621 62.0728 73.0227 61.8627 72.837 61.5989C72.6612 61.3351 72.5732 60.9833 72.5732 60.5436C72.5732 60.1234 72.6905 59.7472 72.925 59.415C73.1595 59.0827 73.5015 58.8238 73.951 58.6381C74.4102 58.4427 74.9672 58.345 75.6219 58.345C76.1202 58.345 76.6186 58.4134 77.1169 58.5502C77.6153 58.6772 78.0257 58.8482 78.3481 59.0632L77.8938 59.8987C77.5518 59.6641 77.1853 59.498 76.7945 59.4003C76.4036 59.2928 76.0128 59.2391 75.6219 59.2391C74.9281 59.2391 74.4151 59.3612 74.0829 59.6055C73.7604 59.84 73.5992 60.1429 73.5992 60.5143C73.5992 60.8074 73.6872 61.037 73.863 61.2031C74.0487 61.3693 74.2881 61.5012 74.5812 61.5989C74.8842 61.6868 75.2115 61.7601 75.5633 61.8187C75.9248 61.8774 76.2815 61.9507 76.6332 62.0386C76.9948 62.1168 77.3221 62.2291 77.6153 62.3757C77.9182 62.5125 78.1576 62.7128 78.3335 62.9767C78.5191 63.2307 78.612 63.5678 78.612 63.988C78.612 64.4375 78.4849 64.8283 78.2309 65.1606C77.9866 65.483 77.625 65.7371 77.1462 65.9227C76.6772 66.0986 76.1056 66.1866 75.4314 66.1866ZM82.5882 66.1866C81.953 66.1866 81.3521 66.0986 80.7853 65.9227C80.2186 65.7371 79.774 65.5075 79.4515 65.2339L79.9206 64.4131C80.2333 64.6476 80.6339 64.8528 81.1225 65.0287C81.611 65.1948 82.124 65.2778 82.6615 65.2778C83.3943 65.2778 83.922 65.1655 84.2444 64.9407C84.5669 64.7062 84.7281 64.3984 84.7281 64.0173C84.7281 63.7339 84.6353 63.5141 84.4496 63.3577C84.2737 63.1916 84.0392 63.0695 83.7461 62.9913C83.4529 62.9034 83.1256 62.8301 82.7641 62.7715C82.4025 62.7128 82.041 62.6444 81.6794 62.5663C81.3277 62.4881 81.0052 62.3757 80.7121 62.2291C80.4189 62.0728 80.1795 61.8627 79.9939 61.5989C79.818 61.3351 79.73 60.9833 79.73 60.5436C79.73 60.1234 79.8473 59.7472 80.0818 59.415C80.3163 59.0827 80.6583 58.8238 81.1078 58.6381C81.5671 58.4427 82.124 58.345 82.7787 58.345C83.2771 58.345 83.7754 58.4134 84.2737 58.5502C84.7721 58.6772 85.1825 58.8482 85.5049 59.0632L85.0506 59.8987C84.7086 59.6641 84.3421 59.498 83.9513 59.4003C83.5604 59.2928 83.1696 59.2391 82.7787 59.2391C82.0849 59.2391 81.5719 59.3612 81.2397 59.6055C80.9173 59.84 80.756 60.1429 80.756 60.5143C80.756 60.8074 80.844 61.037 81.0199 61.2031C81.2055 61.3693 81.4449 61.5012 81.7381 61.5989C82.041 61.6868 82.3683 61.7601 82.7201 61.8187C83.0816 61.8774 83.4383 61.9507 83.7901 62.0386C84.1516 62.1168 84.4789 62.2291 84.7721 62.3757C85.075 62.5125 85.3144 62.7128 85.4903 62.9767C85.6759 63.2307 85.7688 63.5678 85.7688 63.988C85.7688 64.4375 85.6417 64.8283 85.3877 65.1606C85.1434 65.483 84.7819 65.7371 84.3031 65.9227C83.834 66.0986 83.2624 66.1866 82.5882 66.1866ZM94.5631 66.2012C93.8009 66.2012 93.068 66.0791 92.3645 65.8348C91.6707 65.5807 91.1333 65.2583 90.7522 64.8674L91.1773 64.032C91.5388 64.3837 92.0225 64.6818 92.6283 64.9261C93.2439 65.1606 93.8888 65.2778 94.5631 65.2778C95.208 65.2778 95.7307 65.1997 96.1314 65.0433C96.5418 64.8772 96.8398 64.6573 97.0255 64.3837C97.2209 64.1101 97.3186 63.8072 97.3186 63.475C97.3186 63.0744 97.2013 62.7519 96.9668 62.5076C96.7421 62.2633 96.4441 62.0728 96.0727 61.936C95.7014 61.7894 95.291 61.6624 94.8415 61.5549C94.3921 61.4474 93.9426 61.3351 93.4931 61.2178C93.0436 61.0908 92.6283 60.9247 92.2472 60.7195C91.8759 60.5143 91.573 60.2455 91.3385 59.9133C91.1137 59.5713 91.0014 59.1267 91.0014 58.5795C91.0014 58.0714 91.1333 57.6073 91.3971 57.1871C91.6707 56.7571 92.086 56.4151 92.643 56.1611C93.1999 55.8973 93.9133 55.7653 94.7829 55.7653C95.3594 55.7653 95.9311 55.8484 96.4978 56.0145C97.0645 56.1709 97.5531 56.3907 97.9635 56.6741L97.5971 57.5389C97.1574 57.2457 96.6883 57.0307 96.19 56.8939C95.7014 56.7571 95.2275 56.6887 94.7683 56.6887C94.1527 56.6887 93.6445 56.7718 93.2439 56.9379C92.8433 57.104 92.5453 57.3288 92.3498 57.6121C92.1642 57.8857 92.0713 58.1984 92.0713 58.5502C92.0713 58.9508 92.1837 59.2733 92.4085 59.5176C92.643 59.7619 92.9459 59.9524 93.3172 60.0892C93.6983 60.226 94.1136 60.3481 94.5631 60.4556C95.0125 60.5631 95.4571 60.6804 95.8969 60.8074C96.3463 60.9344 96.7567 61.1005 97.1281 61.3057C97.5091 61.5012 97.8121 61.765 98.0368 62.0972C98.2713 62.4295 98.3886 62.8643 98.3886 63.4017C98.3886 63.9001 98.2518 64.3642 97.9782 64.7941C97.7046 65.2143 97.2844 65.5563 96.7177 65.8201C96.1607 66.0742 95.4425 66.2012 94.5631 66.2012ZM103.8 66.1866C102.999 66.1866 102.296 66.0205 101.69 65.6882C101.084 65.3462 100.61 64.8821 100.268 64.2958C99.9261 63.6997 99.7551 63.0206 99.7551 62.2585C99.7551 61.4963 99.9163 60.8221 100.239 60.2358C100.571 59.6495 101.021 59.1902 101.587 58.858C102.164 58.516 102.809 58.345 103.522 58.345C104.245 58.345 104.885 58.5111 105.442 58.8433C106.009 59.1658 106.453 59.6251 106.776 60.2211C107.098 60.8074 107.26 61.4865 107.26 62.2585C107.26 62.3073 107.255 62.3611 107.245 62.4197C107.245 62.4685 107.245 62.5223 107.245 62.5809H100.547V61.8041H106.688L106.278 62.1119C106.278 61.5549 106.155 61.0615 105.911 60.6315C105.677 60.1918 105.354 59.8498 104.944 59.6055C104.533 59.3612 104.059 59.2391 103.522 59.2391C102.994 59.2391 102.52 59.3612 102.1 59.6055C101.68 59.8498 101.353 60.1918 101.118 60.6315C100.884 61.0712 100.766 61.5745 100.766 62.1412V62.3024C100.766 62.8887 100.893 63.4066 101.148 63.8561C101.411 64.2958 101.773 64.6427 102.232 64.8967C102.701 65.141 103.234 65.2632 103.83 65.2632C104.299 65.2632 104.734 65.1801 105.134 65.014C105.545 64.8479 105.896 64.5938 106.19 64.2518L106.776 64.9261C106.434 65.3365 106.004 65.6491 105.486 65.8641C104.978 66.0791 104.416 66.1866 103.8 66.1866ZM109.378 66.1133V58.4183H110.374V60.5143L110.272 60.1478C110.487 59.5615 110.848 59.1169 111.356 58.814C111.865 58.5013 112.495 58.345 113.247 58.345V59.3563C113.208 59.3563 113.169 59.3563 113.13 59.3563C113.091 59.3466 113.052 59.3417 113.013 59.3417C112.202 59.3417 111.567 59.5909 111.107 60.0892C110.648 60.5778 110.418 61.2764 110.418 62.1852V66.1133H109.378ZM117.454 66.1133L114.039 58.4183H115.124L118.26 65.5563H117.747L120.928 58.4183H121.954L118.524 66.1133H117.454ZM123.419 66.1133V58.4183H124.46V66.1133H123.419ZM123.947 56.7181C123.732 56.7181 123.551 56.6448 123.405 56.4982C123.258 56.3516 123.185 56.1757 123.185 55.9705C123.185 55.7653 123.258 55.5943 123.405 55.4575C123.551 55.311 123.732 55.2377 123.947 55.2377C124.162 55.2377 124.343 55.3061 124.489 55.4429C124.636 55.5797 124.709 55.7507 124.709 55.9559C124.709 56.1709 124.636 56.3516 124.489 56.4982C124.353 56.6448 124.172 56.7181 123.947 56.7181ZM130.551 66.1866C129.789 66.1866 129.105 66.0205 128.499 65.6882C127.903 65.3462 127.434 64.8821 127.092 64.2958C126.75 63.6997 126.579 63.0206 126.579 62.2585C126.579 61.4865 126.75 60.8074 127.092 60.2211C127.434 59.6348 127.903 59.1756 128.499 58.8433C129.105 58.5111 129.789 58.345 130.551 58.345C131.206 58.345 131.797 58.472 132.324 58.7261C132.852 58.9801 133.267 59.3612 133.57 59.8693L132.793 60.397C132.53 60.0061 132.202 59.7179 131.811 59.5322C131.421 59.3466 130.996 59.2537 130.536 59.2537C129.989 59.2537 129.496 59.3808 129.056 59.6348C128.616 59.8791 128.269 60.226 128.015 60.6755C127.761 61.125 127.634 61.6526 127.634 62.2585C127.634 62.8643 127.761 63.3919 128.015 63.8414C128.269 64.2909 128.616 64.6427 129.056 64.8967C129.496 65.141 129.989 65.2632 130.536 65.2632C130.996 65.2632 131.421 65.1703 131.811 64.9847C132.202 64.799 132.53 64.5157 132.793 64.1346L133.57 64.6622C133.267 65.1606 132.852 65.5417 132.324 65.8055C131.797 66.0595 131.206 66.1866 130.551 66.1866ZM138.754 66.1866C137.953 66.1866 137.25 66.0205 136.644 65.6882C136.038 65.3462 135.564 64.8821 135.222 64.2958C134.88 63.6997 134.709 63.0206 134.709 62.2585C134.709 61.4963 134.87 60.8221 135.193 60.2358C135.525 59.6495 135.974 59.1902 136.541 58.858C137.118 58.516 137.763 58.345 138.476 58.345C139.199 58.345 139.839 58.5111 140.396 58.8433C140.963 59.1658 141.407 59.6251 141.73 60.2211C142.052 60.8074 142.213 61.4865 142.213 62.2585C142.213 62.3073 142.209 62.3611 142.199 62.4197C142.199 62.4685 142.199 62.5223 142.199 62.5809H135.5V61.8041H141.642L141.231 62.1119C141.231 61.5549 141.109 61.0615 140.865 60.6315C140.63 60.1918 140.308 59.8498 139.898 59.6055C139.487 59.3612 139.013 59.2391 138.476 59.2391C137.948 59.2391 137.474 59.3612 137.054 59.6055C136.634 59.8498 136.307 60.1918 136.072 60.6315C135.838 61.0712 135.72 61.5745 135.72 62.1412V62.3024C135.72 62.8887 135.847 63.4066 136.101 63.8561C136.365 64.2958 136.727 64.6427 137.186 64.8967C137.655 65.141 138.188 65.2632 138.784 65.2632C139.253 65.2632 139.688 65.1801 140.088 65.014C140.499 64.8479 140.85 64.5938 141.143 64.2518L141.73 64.9261C141.388 65.3365 140.958 65.6491 140.44 65.8641C139.932 66.0791 139.37 66.1866 138.754 66.1866ZM146.398 66.1866C145.763 66.1866 145.162 66.0986 144.595 65.9227C144.029 65.7371 143.584 65.5075 143.262 65.2339L143.731 64.4131C144.043 64.6476 144.444 64.8528 144.933 65.0287C145.421 65.1948 145.934 65.2778 146.472 65.2778C147.204 65.2778 147.732 65.1655 148.055 64.9407C148.377 64.7062 148.538 64.3984 148.538 64.0173C148.538 63.7339 148.445 63.5141 148.26 63.3577C148.084 63.1916 147.849 63.0695 147.556 62.9913C147.263 62.9034 146.936 62.8301 146.574 62.7715C146.213 62.7128 145.851 62.6444 145.49 62.5663C145.138 62.4881 144.815 62.3757 144.522 62.2291C144.229 62.0728 143.99 61.8627 143.804 61.5989C143.628 61.3351 143.54 60.9833 143.54 60.5436C143.54 60.1234 143.657 59.7472 143.892 59.415C144.126 59.0827 144.468 58.8238 144.918 58.6381C145.377 58.4427 145.934 58.345 146.589 58.345C147.087 58.345 147.585 58.4134 148.084 58.5502C148.582 58.6772 148.993 58.8482 149.315 59.0632L148.861 59.8987C148.519 59.6641 148.152 59.498 147.761 59.4003C147.371 59.2928 146.98 59.2391 146.589 59.2391C145.895 59.2391 145.382 59.3612 145.05 59.6055C144.727 59.84 144.566 60.1429 144.566 60.5143C144.566 60.8074 144.654 61.037 144.83 61.2031C145.016 61.3693 145.255 61.5012 145.548 61.5989C145.851 61.6868 146.178 61.7601 146.53 61.8187C146.892 61.8774 147.248 61.9507 147.6 62.0386C147.962 62.1168 148.289 62.2291 148.582 62.3757C148.885 62.5125 149.124 62.7128 149.3 62.9767C149.486 63.2307 149.579 63.5678 149.579 63.988C149.579 64.4375 149.452 64.8283 149.198 65.1606C148.953 65.483 148.592 65.7371 148.113 65.9227C147.644 66.0986 147.072 66.1866 146.398 66.1866ZM158.149 66.1279C158.149 65.8934 158.169 65.6443 158.208 65.3804C158.257 65.1068 158.325 64.8186 158.413 64.5157C158.511 64.203 158.628 63.8756 158.765 63.5336L159.82 63.944C159.722 64.2176 159.634 64.4766 159.556 64.7209C159.488 64.9651 159.434 65.1948 159.395 65.4097C159.366 65.6247 159.351 65.8299 159.351 66.0253C159.351 66.4944 159.473 66.8999 159.717 67.2419C159.972 67.5839 160.318 67.8477 160.758 68.0334C161.198 68.219 161.711 68.3119 162.297 68.3119C163.01 68.3119 163.597 68.2093 164.056 68.0041C164.525 67.7989 164.887 67.4862 165.141 67.066C165.404 66.6458 165.58 66.1133 165.668 65.4684C165.756 64.8137 165.786 64.0466 165.756 63.1672L165.478 55.6481H166.694L166.943 63.475C166.963 64.1297 166.934 64.7599 166.856 65.3658C166.787 65.9618 166.65 66.509 166.445 67.0074C166.24 67.5155 165.957 67.9552 165.595 68.3265C165.233 68.7076 164.779 69.0007 164.232 69.2059C163.685 69.4111 163.025 69.5137 162.253 69.5137C161.735 69.5137 161.232 69.4453 160.743 69.3085C160.255 69.1717 159.815 68.9665 159.424 68.6929C159.033 68.4193 158.721 68.0676 158.486 67.6376C158.262 67.2175 158.149 66.7142 158.149 66.1279ZM172.166 66.1866C171.384 66.1866 170.783 66.0986 170.363 65.9227C169.953 65.7469 169.669 65.4733 169.513 65.1019C169.357 64.7306 169.269 64.2518 169.249 63.6655L168.956 55.6481H170.158L170.451 63.1965C170.471 63.6753 170.515 64.0466 170.583 64.3105C170.661 64.5645 170.827 64.7404 171.081 64.8381C171.345 64.9358 171.756 64.9847 172.313 64.9847C172.518 64.9847 172.664 65.0433 172.752 65.1606C172.85 65.2681 172.899 65.4 172.899 65.5563C172.899 65.7127 172.83 65.8592 172.694 65.996C172.557 66.1231 172.381 66.1866 172.166 66.1866ZM172.166 66.1866L172.313 64.9847C172.586 64.9847 172.801 64.9261 172.958 64.8088C173.124 64.6915 173.28 64.4961 173.427 64.2225C173.583 63.9489 173.778 63.5825 174.013 63.1232C174.248 62.6542 174.482 62.2731 174.717 61.98C174.961 61.6771 175.195 61.4425 175.42 61.2764C175.655 61.1005 175.874 60.9784 176.08 60.91C176.285 60.8416 176.475 60.8074 176.651 60.8074C176.974 60.8074 177.262 60.8807 177.516 61.0273C177.77 61.1641 178.01 61.4035 178.234 61.7455C178.459 62.0777 178.689 62.5369 178.923 63.1232C179.148 63.6607 179.348 64.0662 179.524 64.3398C179.71 64.6036 179.9 64.7795 180.096 64.8674C180.301 64.9456 180.531 64.9847 180.785 64.9847C180.99 64.9847 181.136 65.0433 181.224 65.1606C181.322 65.2681 181.371 65.4 181.371 65.5563C181.371 65.7127 181.302 65.8592 181.166 65.996C181.029 66.1231 180.853 66.1866 180.638 66.1866C180.257 66.1866 179.905 66.1231 179.583 65.996C179.27 65.869 179.006 65.6687 178.791 65.3951L178.996 65.0873C178.889 65.3902 178.742 65.6394 178.557 65.8348C178.381 66.0205 178.181 66.1573 177.956 66.2452C177.731 66.3429 177.492 66.3918 177.238 66.3918C176.915 66.3918 176.583 66.3234 176.241 66.1866C175.909 66.0498 175.586 65.8543 175.274 65.6003C174.961 65.3462 174.687 65.0482 174.453 64.7062C174.199 65.1557 173.954 65.4879 173.72 65.7029C173.495 65.9081 173.261 66.04 173.016 66.0986C172.772 66.1573 172.489 66.1866 172.166 66.1866ZM175.01 63.5923C175.176 63.8659 175.352 64.1053 175.537 64.3105C175.733 64.5157 175.928 64.6867 176.124 64.8235C176.319 64.9505 176.51 65.0482 176.695 65.1166C176.891 65.1752 177.067 65.2045 177.223 65.2045C177.565 65.2045 177.814 65.0824 177.97 64.8381C178.137 64.5938 178.132 64.2518 177.956 63.8121C177.868 63.5874 177.775 63.3675 177.677 63.1525C177.589 62.9376 177.492 62.7421 177.384 62.5663C177.277 62.3806 177.155 62.2389 177.018 62.1412C176.881 62.0337 176.729 61.98 176.563 61.98C176.417 61.98 176.26 62.0288 176.094 62.1265C175.938 62.2243 175.767 62.3904 175.581 62.6249C175.405 62.8594 175.215 63.1819 175.01 63.5923ZM180.64 66.1866L180.786 64.9847C181.402 64.9847 181.876 64.9798 182.208 64.97C182.55 64.9603 182.799 64.9505 182.956 64.9407C183.112 64.9212 183.22 64.9114 183.278 64.9114C183.102 64.8137 182.897 64.6622 182.663 64.457C182.428 64.2421 182.223 63.9733 182.047 63.6509C181.871 63.3187 181.783 62.9278 181.783 62.4783C181.783 61.9213 181.91 61.4328 182.164 61.0126C182.428 60.5924 182.785 60.2651 183.234 60.0306C183.693 59.7961 184.216 59.6788 184.803 59.6788C185.027 59.6788 185.267 59.6983 185.521 59.7374C185.775 59.7765 186.019 59.8351 186.254 59.9133L186.004 61.0419C185.809 60.9931 185.604 60.954 185.389 60.9247C185.174 60.8953 184.978 60.8807 184.803 60.8807C184.451 60.8807 184.138 60.9491 183.864 61.0859C183.591 61.2129 183.376 61.3937 183.22 61.6282C183.063 61.8627 182.985 62.1461 182.985 62.4783C182.985 62.7324 183.039 62.9669 183.146 63.1819C183.254 63.3871 183.395 63.5727 183.571 63.7388C183.747 63.9049 183.943 64.0417 184.158 64.1492C184.373 64.2567 184.583 64.3398 184.788 64.3984C185.003 64.457 185.193 64.4815 185.359 64.4717C185.477 64.4326 185.584 64.3984 185.682 64.3691C185.78 64.3398 185.887 64.3056 186.004 64.2665C186.131 64.2176 186.283 64.1541 186.459 64.0759C186.644 63.9978 186.879 63.8952 187.162 63.7681L187.573 64.8381C186.918 65.1019 186.249 65.3365 185.565 65.5417C184.89 65.7469 184.153 65.9081 183.351 66.0253C182.56 66.1328 181.656 66.1866 180.64 66.1866ZM193.772 58.2571C193.772 58.0421 193.757 57.7831 193.728 57.4802C193.698 57.1773 193.664 56.8744 193.625 56.5715C193.586 56.2686 193.547 56.0096 193.508 55.7947L194.768 55.6481C194.798 55.8435 194.827 56.1025 194.856 56.4249C194.895 56.7376 194.925 57.0503 194.944 57.363C194.964 57.6757 194.974 57.9346 194.974 58.1398C194.974 58.6088 194.939 59.0681 194.871 59.5176C194.812 59.9573 194.715 60.3921 194.578 60.8221C194.441 61.2422 194.26 61.6526 194.035 62.0533L193.86 62.3757C193.586 62.835 193.249 63.2796 192.848 63.7095C192.448 64.1297 191.979 64.5303 191.441 64.9114H193.288C193.62 64.9114 193.874 64.8723 194.05 64.7941C194.226 64.7062 194.343 64.5938 194.402 64.457C194.47 64.3202 194.504 64.1737 194.504 64.0173C194.504 63.7535 194.343 63.4261 194.021 63.0353C193.708 62.6347 193.273 62.1949 192.716 61.7161C192.159 61.2276 191.529 60.7146 190.826 60.1771C190.122 59.6397 189.379 59.0925 188.598 58.5355L189.287 57.5682C190.186 58.2326 190.977 58.8336 191.661 59.371C192.355 59.9084 192.946 60.4019 193.435 60.8514C193.933 61.2911 194.338 61.7015 194.651 62.0826C194.974 62.4539 195.208 62.8105 195.355 63.1525C195.511 63.4848 195.589 63.8121 195.589 64.1346C195.589 64.3495 195.55 64.5743 195.472 64.8088C195.403 65.0335 195.276 65.2485 195.091 65.4537C194.915 65.6491 194.661 65.8104 194.329 65.9374C194.006 66.0547 193.586 66.1133 193.068 66.1133H189.697V64.9261C190.703 64.203 191.5 63.4994 192.086 62.8154C192.682 62.1314 193.112 61.4181 193.376 60.6755C193.64 59.9329 193.772 59.1267 193.772 58.2571ZM188.392 56.7913L188.217 55.9999C188.471 55.9412 188.676 55.8924 188.832 55.8533C188.989 55.8142 189.164 55.7702 189.36 55.7214L189.287 56.0292C189.032 55.951 188.788 55.7849 188.554 55.5308C188.329 55.2768 188.217 54.9885 188.217 54.6661C188.217 54.3729 188.285 54.1286 188.422 53.9332C188.568 53.728 188.754 53.5765 188.979 53.4788C189.213 53.3811 189.462 53.3323 189.726 53.3323C189.834 53.3323 189.946 53.342 190.063 53.3616C190.19 53.3811 190.308 53.4104 190.415 53.4495L190.298 54.1824C190.2 54.1628 190.107 54.1433 190.019 54.1237C189.931 54.1042 189.834 54.0944 189.726 54.0944C189.502 54.0944 189.326 54.1433 189.199 54.241C189.072 54.3289 189.008 54.456 189.008 54.6221C189.008 54.8273 189.072 55.0032 189.199 55.1497C189.335 55.2963 189.487 55.4136 189.653 55.5015C189.829 55.5797 189.971 55.6188 190.078 55.6188L189.477 55.6774C189.741 55.609 189.985 55.5406 190.21 55.4722C190.444 55.394 190.655 55.3207 190.84 55.2523L191.075 55.9999C190.84 56.0878 190.562 56.1806 190.239 56.2783C189.927 56.3761 189.609 56.4689 189.287 56.5568C188.964 56.6448 188.666 56.7229 188.392 56.7913ZM197.891 66.1133L197.598 55.6481H198.785L199.078 66.1133H197.891ZM209.587 66.4211L209.968 65.2192C211.111 65.2192 212.094 65.1899 212.914 65.1313C213.745 65.0726 214.424 64.9798 214.952 64.8528C215.489 64.716 215.885 64.5352 216.139 64.3105C216.403 64.0759 216.535 63.7926 216.535 63.4603C216.535 63.089 216.466 62.6591 216.329 62.1705C216.193 61.6819 216.017 61.1592 215.802 60.6022L216.93 60.2065C217.057 60.5191 217.175 60.8563 217.282 61.2178C217.399 61.5696 217.497 61.9213 217.575 62.2731C217.653 62.6151 217.693 62.9327 217.693 63.2258C217.693 63.8023 217.561 64.2958 217.297 64.7062C217.033 65.1068 216.593 65.4342 215.978 65.6882C215.362 65.9423 214.531 66.1279 213.486 66.2452C212.45 66.3625 211.151 66.4211 209.587 66.4211ZM209.587 66.4211C208.717 66.4211 207.95 66.3625 207.286 66.2452C206.631 66.1377 206.084 65.9667 205.644 65.7322C205.205 65.4977 204.872 65.1948 204.648 64.8235C204.423 64.4424 204.311 63.9831 204.311 63.4457C204.311 63.2014 204.33 62.9522 204.369 62.6982C204.408 62.4343 204.457 62.1705 204.516 61.9067C204.584 61.6429 204.653 61.3888 204.721 61.1445L205.82 61.423C205.781 61.5696 205.737 61.7455 205.688 61.9507C205.639 62.1461 205.596 62.3464 205.556 62.5516C205.527 62.7568 205.512 62.9425 205.512 63.1086C205.512 63.6167 205.639 64.0271 205.894 64.3398C206.157 64.6427 206.612 64.8674 207.257 65.014C207.902 65.1508 208.805 65.2192 209.968 65.2192L210.261 65.9521L209.587 66.4211ZM212.035 60.2358C211.83 60.2358 211.654 60.1674 211.507 60.0306C211.37 59.884 211.302 59.713 211.302 59.5176C211.302 59.3221 211.37 59.1511 211.507 59.0046C211.654 58.858 211.83 58.7847 212.035 58.7847C212.23 58.7847 212.396 58.858 212.533 59.0046C212.68 59.1511 212.753 59.3221 212.753 59.5176C212.753 59.713 212.68 59.884 212.533 60.0306C212.396 60.1674 212.23 60.2358 212.035 60.2358ZM210.027 60.2358C209.822 60.2358 209.646 60.1674 209.499 60.0306C209.362 59.884 209.294 59.713 209.294 59.5176C209.294 59.3221 209.362 59.1511 209.499 59.0046C209.646 58.858 209.822 58.7847 210.027 58.7847C210.222 58.7847 210.388 58.858 210.525 59.0046C210.672 59.1511 210.745 59.3221 210.745 59.5176C210.745 59.713 210.672 59.884 210.525 60.0306C210.388 60.1674 210.222 60.2358 210.027 60.2358ZM222.693 66.1866C221.911 66.1866 221.31 66.0986 220.89 65.9227C220.48 65.7469 220.196 65.4733 220.04 65.1019C219.884 64.7306 219.796 64.2518 219.776 63.6655L219.483 55.6481H220.685L220.978 63.1965C220.998 63.6753 221.042 64.0466 221.11 64.3105C221.188 64.5645 221.354 64.7404 221.608 64.8381C221.872 64.9358 222.283 64.9847 222.84 64.9847C223.045 64.9847 223.191 65.0433 223.279 65.1606C223.377 65.2681 223.426 65.4 223.426 65.5563C223.426 65.7127 223.357 65.8592 223.221 65.996C223.084 66.1231 222.908 66.1866 222.693 66.1866ZM222.693 66.1866L222.84 64.9847C223.113 64.9847 223.343 64.9261 223.529 64.8088C223.714 64.6915 223.895 64.4961 224.071 64.2225C224.247 63.9489 224.437 63.5825 224.643 63.1232C224.926 62.4979 225.205 62.0239 225.478 61.7015C225.761 61.379 226.04 61.1592 226.314 61.0419C226.597 60.9247 226.875 60.866 227.149 60.866C227.481 60.866 227.789 60.954 228.072 61.1299C228.356 61.296 228.605 61.5207 228.82 61.8041C229.035 62.0875 229.201 62.4001 229.318 62.7421C229.445 63.0744 229.509 63.4066 229.509 63.7388C229.509 64.3251 229.406 64.7941 229.201 65.1459C228.996 65.4879 228.732 65.7371 228.41 65.8934C228.097 66.04 227.77 66.1133 227.428 66.1133C227.125 66.1133 226.734 66.0547 226.255 65.9374C225.786 65.8201 225.19 65.5221 224.467 65.0433L225.038 64.1199C225.517 64.4228 225.947 64.6329 226.328 64.7502C226.719 64.8577 227.042 64.9114 227.296 64.9114C227.579 64.9114 227.804 64.8723 227.97 64.7941C228.136 64.7062 228.258 64.5841 228.336 64.4277C228.414 64.2714 228.454 64.0955 228.454 63.9001C228.454 63.6167 228.385 63.3333 228.248 63.0499C228.112 62.7666 227.936 62.5321 227.721 62.3464C227.515 62.1607 227.296 62.0679 227.061 62.0679C226.885 62.0679 226.714 62.1168 226.548 62.2145C226.382 62.3122 226.211 62.493 226.035 62.7568C225.859 63.0206 225.659 63.4017 225.434 63.9001C225.2 64.4277 224.975 64.8479 224.76 65.1606C224.555 65.4635 224.345 65.6882 224.13 65.8348C223.915 65.9814 223.69 66.0742 223.455 66.1133C223.231 66.1621 222.977 66.1866 222.693 66.1866ZM233.545 64.9847C234.034 64.9847 234.42 64.9358 234.703 64.8381C234.996 64.7404 235.206 64.5987 235.333 64.4131C235.47 64.2176 235.539 63.9929 235.539 63.7388C235.539 63.5434 235.485 63.3089 235.377 63.0353C235.28 62.7617 235.143 62.4588 234.967 62.1265C234.791 61.7845 234.586 61.4279 234.351 61.0566C234.127 60.6755 233.882 60.2895 233.619 59.8987L234.63 59.2391C235.011 59.8156 235.343 60.3628 235.627 60.8807C235.91 61.3888 236.149 61.8676 236.345 62.3171C236.54 62.7568 236.697 63.1721 236.814 63.5629C236.951 63.9929 237.102 64.3105 237.268 64.5157C237.444 64.7209 237.625 64.8528 237.811 64.9114C237.996 64.9603 238.167 64.9847 238.324 64.9847C238.529 64.9847 238.68 65.0433 238.778 65.1606C238.876 65.2681 238.924 65.4 238.924 65.5563C238.924 65.7127 238.856 65.8592 238.719 65.996C238.582 66.1231 238.407 66.1866 238.192 66.1866C237.869 66.1866 237.552 66.1279 237.239 66.0107C236.936 65.8837 236.672 65.6833 236.447 65.4097C236.223 65.1264 236.066 64.7502 235.978 64.2811L236.565 63.8121C236.565 64.203 236.482 64.5841 236.315 64.9554C236.149 65.3169 235.846 65.6149 235.407 65.8495C234.977 66.084 234.356 66.2012 233.545 66.2012C233.194 66.2012 232.852 66.1719 232.519 66.1133C232.197 66.0547 231.899 65.9716 231.625 65.8641C231.352 65.7469 231.112 65.6101 230.907 65.4537L231.493 64.4424C231.689 64.5694 231.962 64.6915 232.314 64.8088C232.666 64.9261 233.076 64.9847 233.545 64.9847ZM247.532 66.1866C247.121 66.1866 246.745 66.1621 246.403 66.1133C246.061 66.0547 245.753 65.9521 245.48 65.8055C245.206 65.6589 244.976 65.4488 244.791 65.1752C244.605 64.8919 244.463 64.5205 244.366 64.0613L245.23 63.5483C245.357 63.9391 245.514 64.2372 245.699 64.4424C245.885 64.6476 246.134 64.7893 246.447 64.8674C246.769 64.9456 247.18 64.9847 247.678 64.9847C247.883 64.9847 248.03 65.0433 248.118 65.1606C248.216 65.2681 248.264 65.4 248.264 65.5563C248.264 65.7127 248.196 65.8592 248.059 65.996C247.922 66.1231 247.746 66.1866 247.532 66.1866ZM238.195 66.1866L238.327 64.9847C238.835 64.9847 239.333 64.9456 239.822 64.8674C240.31 64.7893 240.789 64.6769 241.258 64.5303C241.727 64.3837 242.177 64.2079 242.607 64.0027C243.046 63.7877 243.462 63.5434 243.853 63.2698C243.599 63.0451 243.305 62.8496 242.973 62.6835C242.641 62.5174 242.274 62.3904 241.874 62.3024C241.483 62.2047 241.068 62.1559 240.628 62.1559C240.472 62.1559 240.325 62.1607 240.188 62.1705C240.051 62.1803 239.915 62.1998 239.778 62.2291C239.641 62.2487 239.485 62.278 239.309 62.3171L239.074 61.2031C239.338 61.125 239.602 61.0663 239.866 61.0273C240.13 60.9784 240.384 60.954 240.628 60.954C241.136 60.954 241.595 61.0175 242.006 61.1445C242.416 61.2618 242.787 61.4083 243.12 61.5842C243.462 61.7601 243.779 61.936 244.072 62.1119C244.375 62.2878 244.668 62.4392 244.952 62.5663C245.235 62.6835 245.528 62.7421 245.831 62.7421H246.139L246.242 63.7975C245.822 63.7975 245.436 63.8561 245.084 63.9733C244.732 64.0906 244.385 64.2421 244.043 64.4277C243.711 64.6036 243.359 64.7941 242.988 64.9993C242.616 65.1948 242.206 65.3853 241.757 65.571C241.307 65.7469 240.789 65.8934 240.203 66.0107C239.626 66.1279 238.957 66.1866 238.195 66.1866ZM240.496 59.4443C240.291 59.4443 240.115 59.3759 239.968 59.2391C239.832 59.0925 239.763 58.9215 239.763 58.7261C239.763 58.5307 239.832 58.3597 239.968 58.2131C240.115 58.0665 240.291 57.9932 240.496 57.9932C240.692 57.9932 240.858 58.0665 240.994 58.2131C241.141 58.3597 241.214 58.5307 241.214 58.7261C241.214 58.9215 241.141 59.0925 240.994 59.2391C240.858 59.3759 240.692 59.4443 240.496 59.4443ZM247.527 66.1866L247.659 64.9847C248.216 64.9847 248.607 64.9309 248.832 64.8235C249.057 64.716 249.184 64.5254 249.213 64.2518C249.252 63.9782 249.262 63.5971 249.242 63.1086L248.964 55.6481H250.151L250.444 62.9767C250.464 63.4945 250.444 63.9538 250.386 64.3544C250.337 64.7551 250.21 65.0922 250.004 65.3658C249.809 65.6394 249.511 65.8446 249.11 65.9814C248.72 66.1182 248.192 66.1866 247.527 66.1866ZM255.611 66.1279C255.611 65.8934 255.63 65.6443 255.669 65.3804C255.718 65.1068 255.786 64.8186 255.874 64.5157C255.972 64.203 256.089 63.8756 256.226 63.5336L257.281 63.944C257.184 64.2176 257.096 64.4766 257.018 64.7209C256.949 64.9651 256.896 65.1948 256.856 65.4097C256.827 65.6247 256.812 65.8299 256.812 66.0253C256.812 66.4357 256.9 66.7826 257.076 67.066C257.262 67.3591 257.516 67.5985 257.838 67.7842C258.161 67.9699 258.527 68.1067 258.938 68.1946C259.358 68.2825 259.803 68.3265 260.272 68.3265C260.838 68.3265 261.366 68.2777 261.855 68.1799C262.353 68.0822 262.788 67.9405 263.159 67.7549C263.54 67.579 263.838 67.3738 264.053 67.1393C264.268 66.9145 264.376 66.6703 264.376 66.4064C264.376 66.2794 264.327 66.1621 264.229 66.0547C264.131 65.9472 263.985 65.8446 263.789 65.7469C263.594 65.6491 263.359 65.5563 263.086 65.4684C262.812 65.3707 262.499 65.2729 262.148 65.1752L262.426 63.9587C262.934 64.1541 263.384 64.3202 263.775 64.457C264.165 64.5841 264.507 64.6867 264.801 64.7648C265.094 64.843 265.348 64.9016 265.563 64.9407C265.778 64.97 265.959 64.9847 266.105 64.9847C266.31 64.9847 266.457 65.0433 266.545 65.1606C266.643 65.2681 266.691 65.4 266.691 65.5563C266.691 65.7127 266.623 65.8592 266.486 65.996C266.349 66.1231 266.173 66.1866 265.959 66.1866C265.9 66.1866 265.841 66.1866 265.783 66.1866C265.724 66.1866 265.66 66.1866 265.592 66.1866C265.533 66.1866 265.475 66.1866 265.416 66.1866C265.436 66.2745 265.45 66.3429 265.46 66.3918C265.47 66.4504 265.475 66.5237 265.475 66.6116C265.475 66.9732 265.348 67.3249 265.094 67.6669C264.849 68.0089 264.488 68.3167 264.009 68.5903C263.53 68.8737 262.949 69.0985 262.265 69.2646C261.591 69.4307 260.819 69.5137 259.949 69.5137C259.177 69.5137 258.459 69.3867 257.794 69.1327C257.14 68.8884 256.612 68.5171 256.212 68.0187C255.811 67.5204 255.611 66.8901 255.611 66.1279ZM265.963 66.1866L266.11 64.9847C266.384 64.9847 266.613 64.9261 266.799 64.8088C266.984 64.6915 267.165 64.4961 267.341 64.2225C267.517 63.9489 267.708 63.5825 267.913 63.1232C268.196 62.4979 268.475 62.0239 268.748 61.7015C269.032 61.379 269.31 61.1592 269.584 61.0419C269.867 60.9247 270.146 60.866 270.419 60.866C270.751 60.866 271.059 60.954 271.343 61.1299C271.626 61.296 271.875 61.5207 272.09 61.8041C272.305 62.0875 272.471 62.4001 272.588 62.7421C272.715 63.0744 272.779 63.4066 272.779 63.7388C272.779 64.3251 272.676 64.7941 272.471 65.1459C272.266 65.4879 272.002 65.7371 271.68 65.8934C271.367 66.04 271.04 66.1133 270.698 66.1133C270.395 66.1133 270.004 66.0547 269.525 65.9374C269.056 65.8201 268.46 65.5221 267.737 65.0433L268.308 64.1199C268.787 64.4228 269.217 64.6329 269.598 64.7502C269.989 64.8577 270.312 64.9114 270.566 64.9114C270.849 64.9114 271.074 64.8723 271.24 64.7941C271.406 64.7062 271.528 64.5841 271.606 64.4277C271.685 64.2714 271.724 64.0955 271.724 63.9001C271.724 63.6167 271.655 63.3333 271.518 63.0499C271.382 62.7666 271.206 62.5321 270.991 62.3464C270.786 62.1607 270.566 62.0679 270.331 62.0679C270.155 62.0679 269.984 62.1168 269.818 62.2145C269.652 62.3122 269.481 62.493 269.305 62.7568C269.129 63.0206 268.929 63.4017 268.704 63.9001C268.47 64.4277 268.245 64.8479 268.03 65.1606C267.825 65.4635 267.615 65.6882 267.4 65.8348C267.185 65.9814 266.96 66.0742 266.726 66.1133C266.501 66.1621 266.247 66.1866 265.963 66.1866ZM277.929 66.1866C277.148 66.1866 276.547 66.0986 276.126 65.9227C275.716 65.7469 275.433 65.4733 275.276 65.1019C275.12 64.7306 275.032 64.2518 275.013 63.6655L274.719 55.6481H275.921L276.214 63.1965C276.234 63.6753 276.278 64.0466 276.346 64.3105C276.424 64.5645 276.591 64.7404 276.845 64.8381C277.108 64.9358 277.519 64.9847 278.076 64.9847C278.281 64.9847 278.428 65.0433 278.516 65.1606C278.613 65.2681 278.662 65.4 278.662 65.5563C278.662 65.7127 278.594 65.8592 278.457 65.996C278.32 66.1231 278.144 66.1866 277.929 66.1866ZM277.93 66.1866L278.076 64.9847C278.389 64.9847 278.643 64.9651 278.838 64.9261C279.034 64.8772 279.195 64.7648 279.322 64.5889C279.459 64.4033 279.586 64.115 279.703 63.7242C279.82 63.3333 279.957 62.7861 280.113 62.0826L281.213 62.3904C281.154 62.6347 281.086 62.9278 281.008 63.2698C280.929 63.6118 280.89 63.9245 280.89 64.2079C280.89 64.3642 280.929 64.501 281.008 64.6183C281.086 64.7355 281.218 64.8283 281.403 64.8967C281.599 64.9554 281.858 64.9847 282.18 64.9847C282.473 64.9847 282.713 64.9603 282.898 64.9114C283.084 64.8625 283.235 64.7453 283.353 64.5596C283.48 64.374 283.592 64.0759 283.69 63.6655C283.787 63.2551 283.89 62.6933 283.998 61.98L285.112 62.1852C285.082 62.3611 285.048 62.576 285.009 62.8301C284.97 63.0841 284.931 63.3382 284.892 63.5923C284.862 63.8365 284.848 64.0417 284.848 64.2079C284.848 64.3447 284.877 64.4766 284.936 64.6036C285.004 64.7209 285.131 64.8137 285.317 64.8821C285.512 64.9505 285.8 64.9847 286.181 64.9847C286.67 64.9847 287.022 64.8821 287.237 64.6769C287.462 64.4717 287.574 64.159 287.574 63.7388C287.574 63.5141 287.569 63.2796 287.559 63.0353C287.549 62.7812 287.53 62.5027 287.501 62.1998C287.481 61.8871 287.447 61.5305 287.398 61.1299L288.468 61.0566C288.527 61.8481 288.59 62.4979 288.659 63.006C288.737 63.5141 288.844 63.9147 288.981 64.2079C289.128 64.4912 289.323 64.6915 289.567 64.8088C289.812 64.9261 290.134 64.9847 290.535 64.9847C290.74 64.9847 290.886 65.0433 290.974 65.1606C291.072 65.2681 291.121 65.4 291.121 65.5563C291.121 65.7127 291.053 65.8592 290.916 65.996C290.779 66.1231 290.603 66.1866 290.388 66.1866C290.056 66.1866 289.758 66.1426 289.494 66.0547C289.24 65.9569 289.015 65.8299 288.82 65.6736C288.634 65.5075 288.478 65.3218 288.351 65.1166C288.233 64.9016 288.15 64.6769 288.102 64.4424L288.365 64.5303C288.258 64.97 288.087 65.312 287.852 65.5563C287.628 65.7908 287.359 65.9569 287.046 66.0547C286.734 66.1426 286.401 66.1866 286.05 66.1866C285.62 66.1866 285.268 66.1328 284.994 66.0253C284.721 65.9179 284.506 65.7566 284.349 65.5417C284.203 65.3169 284.105 65.0335 284.056 64.6915H284.555C284.369 65.1117 284.173 65.4293 283.968 65.6443C283.763 65.8592 283.509 66.0058 283.206 66.084C282.903 66.1524 282.503 66.1866 282.004 66.1866C281.76 66.1866 281.496 66.1475 281.213 66.0693C280.939 65.9911 280.7 65.8397 280.495 65.6149C280.289 65.3804 280.167 65.0335 280.128 64.5743L280.568 64.4863C280.402 64.9847 280.196 65.356 279.952 65.6003C279.718 65.8348 279.434 65.9911 279.102 66.0693C278.77 66.1475 278.379 66.1866 277.93 66.1866ZM290.382 66.1866L290.529 64.9847C291.105 64.9847 291.555 64.9651 291.877 64.9261C292.2 64.8772 292.429 64.7648 292.566 64.5889C292.703 64.4033 292.771 64.115 292.771 63.7242C292.771 63.4799 292.732 63.1916 292.654 62.8594C292.576 62.5174 292.473 62.1559 292.346 61.7748C292.219 61.3937 292.083 61.0175 291.936 60.6462L293.123 60.2065C293.25 60.5191 293.368 60.8758 293.475 61.2764C293.592 61.6771 293.69 62.0728 293.768 62.4637C293.846 62.8545 293.885 63.1965 293.885 63.4897C293.885 63.9782 293.817 64.3935 293.68 64.7355C293.553 65.0775 293.348 65.356 293.065 65.571C292.781 65.7859 292.415 65.9423 291.965 66.04C291.526 66.1377 290.998 66.1866 290.382 66.1866ZM293.578 58.6821C293.372 58.6821 293.197 58.6137 293.05 58.4769C292.913 58.3303 292.845 58.1593 292.845 57.9639C292.845 57.7685 292.913 57.5975 293.05 57.4509C293.197 57.3043 293.372 57.2311 293.578 57.2311C293.773 57.2311 293.939 57.3043 294.076 57.4509C294.223 57.5975 294.296 57.7685 294.296 57.9639C294.296 58.1593 294.223 58.3303 294.076 58.4769C293.939 58.6137 293.773 58.6821 293.578 58.6821ZM291.57 58.6821C291.364 58.6821 291.188 58.6137 291.042 58.4769C290.905 58.3303 290.837 58.1593 290.837 57.9639C290.837 57.7685 290.905 57.5975 291.042 57.4509C291.188 57.3043 291.364 57.2311 291.57 57.2311C291.765 57.2311 291.931 57.3043 292.068 57.4509C292.214 57.5975 292.288 57.7685 292.288 57.9639C292.288 58.1593 292.214 58.3303 292.068 58.4769C291.931 58.6137 291.765 58.6821 291.57 58.6821Z" fill="white"/>
<defs>
<clipPath id="clip0_284_28754">
<rect width="342" height="37.5505" fill="white"/>
</clipPath>
</defs>
</svg>
