<svg preserveAspectRatio="none" width="100%" height="100%" overflow="visible" style="display: block;" viewBox="0 0 15.9993 15.9993" fill="none" xmlns="http://www.w3.org/2000/svg">
<path id="Vector" d="M5.53837 0.132119C6.87288 -0.133257 8.25589 0.00307047 9.51298 0.523721C10.7702 1.0445 11.8448 1.92639 12.6009 3.0579C13.3569 4.18938 13.761 5.51935 13.761 6.88017C13.761 7.78356 13.5832 8.67832 13.2376 9.51298C12.9795 10.136 12.6308 10.7166 12.2054 11.2366L15.7991 14.8304C15.9272 14.9588 15.9993 15.1333 15.9993 15.3147C15.9992 15.496 15.9271 15.6698 15.7991 15.7981C15.7358 15.8622 15.6596 15.913 15.5765 15.9475C15.4934 15.982 15.4046 15.9997 15.3147 15.9993C15.2247 15.9997 15.1352 15.9821 15.052 15.9475C14.9689 15.913 14.8936 15.8622 14.8304 15.7981L11.2366 12.2054C10.7166 12.6308 10.136 12.9795 9.51298 13.2376C8.67832 13.5832 7.78356 13.761 6.88017 13.761C5.51935 13.761 4.18938 13.3569 3.0579 12.6009C1.92639 11.8448 1.0445 10.7702 0.523721 9.51298C0.00307046 8.25589 -0.133257 6.87288 0.132119 5.53837C0.39761 4.20366 1.05266 2.97721 2.01493 2.01493C2.97721 1.05266 4.20366 0.39761 5.53837 0.132119ZM6.88017 1.37919C5.79591 1.37921 4.73581 1.70067 3.83427 2.30302C2.93266 2.90545 2.2297 3.76215 1.81474 4.76396C1.39982 5.76573 1.29168 6.86846 1.50321 7.93192C1.71478 8.99519 2.23668 9.97193 3.00321 10.7386C3.76997 11.5053 4.74731 12.028 5.81083 12.2395C6.87428 12.451 7.97705 12.342 8.9788 11.927C9.98042 11.5121 10.8364 10.809 11.4388 9.90751C12.0411 9.00596 12.3626 7.94586 12.3626 6.86161C12.3625 5.40779 11.7851 4.0137 10.7571 2.98563C9.72894 1.95745 8.33424 1.37919 6.88017 1.37919Z" fill="var(--fill-0, #4E5059)"/>
</svg>
