<svg preserveAspectRatio="none" width="100%" height="100%" overflow="visible" style="display: block;" viewBox="0 0 28 28" fill="none" xmlns="http://www.w3.org/2000/svg">
<g id="solar:box-minimalistic-bold-duotone">
<path id="Vector" d="M9.82567 24.0543C11.8743 25.13 12.8987 25.6667 14 25.6667V14L3.07767 8.25183L3.031 8.33C2.33333 9.513 2.33333 10.9865 2.33333 13.9323V14.0688C2.33333 17.0135 2.33333 18.487 3.02983 19.67C3.7275 20.8542 4.98283 21.5133 7.49233 22.8305L9.82567 24.0543Z" fill="var(--fill-0, white)"/>
<path id="Vector_2" opacity="0.5" d="M20.5065 5.17067L18.1732 3.94567C16.1257 2.87117 15.1013 2.33333 14 2.33333C12.8975 2.33333 11.8743 2.87 9.82567 3.94567L7.49233 5.17067C5.03767 6.45867 3.78233 7.11667 3.07767 8.25067L14 14L24.9223 8.25183C24.2153 7.11667 22.9623 6.45867 20.5065 5.17067Z" fill="var(--fill-0, white)"/>
<path id="Vector_3" opacity="0.25" d="M24.9702 8.33L24.9223 8.25183L14 14V25.6667C15.1013 25.6667 16.1257 25.13 18.1743 24.0543L20.5077 22.8293C23.0172 21.5122 24.2725 20.8542 24.9702 19.67C25.6667 18.487 25.6667 17.0135 25.6667 14.07V13.9335C25.6667 10.9877 25.6667 9.513 24.9702 8.33Z" fill="var(--fill-0, white)"/>
</g>
</svg>
