<svg preserveAspectRatio="none" width="100%" height="100%" overflow="visible" style="display: block;" viewBox="0 0 120 120" fill="none" xmlns="http://www.w3.org/2000/svg">
<g id="Brutalism 107">
<path id="Vector" d="M95.4455 38.4838C91.9991 32.6201 87.4039 29.389 82.4975 29.389C78.4049 29.389 74.4319 31.7106 71.2487 35.9229C68.0656 31.7106 64.0926 29.389 60 29.389C55.9074 29.389 51.9344 31.7106 48.7512 35.9229C45.5681 31.7106 41.5951 29.389 37.5025 29.389C27.4743 29.389 19.313 43.1269 19.313 60C19.313 76.8731 27.4743 90.611 37.5025 90.611C41.5951 90.611 45.5681 88.2894 48.7512 84.0771C51.9344 88.2894 55.9074 90.611 60 90.611C64.0926 90.611 68.0656 88.2894 71.2487 84.0771C74.4319 88.2894 78.4049 90.611 82.4975 90.611C92.5256 90.611 100.687 76.8731 100.687 60C100.687 51.8865 98.8202 44.2517 95.4455 38.4838ZM82.4975 88.8878C78.8117 88.8878 75.1738 86.6619 72.254 82.5932C76.0355 76.8013 78.1895 68.5921 78.1895 60C78.1895 51.4079 76.0355 43.2226 72.254 37.4068C75.1738 33.3381 78.7878 31.1122 82.4975 31.1122C91.5922 31.1122 98.9877 44.0603 98.9877 60C98.9877 75.9397 91.5922 88.8878 82.4975 88.8878ZM76.4902 60C76.4902 67.9459 74.5994 75.5329 71.2487 81.0136C67.922 75.5329 66.0073 67.9459 66.0073 60C66.0073 52.0541 67.8981 44.4672 71.2487 38.9864C74.5755 44.4672 76.4902 52.0541 76.4902 60ZM55.692 60C55.692 51.4079 53.5379 43.2226 49.7565 37.4068C52.6763 33.3381 56.2903 31.1122 59.9761 31.1122C63.6618 31.1122 67.2997 33.3381 70.2196 37.4068C66.4381 43.1987 64.2841 51.4079 64.2841 60C64.2841 68.5921 66.4381 76.7774 70.2196 82.5932C67.2997 86.6619 63.6858 88.8878 59.9761 88.8878C56.2664 88.8878 52.6524 86.6619 49.7565 82.5932C53.5379 76.8013 55.692 68.5921 55.692 60ZM48.7512 81.0136C45.4245 75.5329 43.5098 67.9459 43.5098 60C43.5098 52.0541 45.4006 44.4672 48.7512 38.9864C52.078 44.4672 53.9927 52.0541 53.9927 60C53.9927 67.9459 52.1019 75.5329 48.7512 81.0136ZM37.5025 88.8878C28.4078 88.8878 21.0123 75.9158 21.0123 60C21.0123 44.0842 28.4078 31.1122 37.5025 31.1122C41.1883 31.1122 44.8261 33.3381 47.7221 37.4068C43.9406 43.1987 41.7866 51.4079 41.7866 60C41.7866 68.5921 43.9406 76.7774 47.7221 82.5932C44.8022 86.6619 41.1883 88.8878 37.5025 88.8878Z" fill="var(--fill-0, white)"/>
</g>
</svg>
