<svg preserveAspectRatio="none" width="100%" height="100%" overflow="visible" style="display: block;" viewBox="0 0 24 24" fill="none" xmlns="http://www.w3.org/2000/svg">
<g id="solar:notebook-square-bold-duotone">
<path id="Vector" d="M2 9C2 5.229 2 3.343 3.172 2.172C4.344 1.001 6.229 1 10 1H14C17.771 1 19.657 1 20.828 2.172C21.999 3.344 22 5.229 22 9V13C22 16.771 22 18.657 20.828 19.828C19.656 20.999 17.771 21 14 21H10C6.229 21 4.343 21 3.172 19.828C2.001 18.656 2 16.771 2 13V9Z" fill="var(--fill-0, #10069F)"/>
<path id="Vector_2" d="M6 12.91V7.497C6 6.674 6.665 6.002 7.487 6.062C8 6.099 8.556 6.163 9 6.272C9.824 6.473 10.851 6.972 11.465 7.294L11.5 7.312V15.727L11.493 15.723C10.883 15.402 9.837 14.891 9 14.686C8.562 14.579 8.016 14.516 7.51 14.478C6.68 14.416 6 13.745 6 12.912M12.5 15.726L12.507 15.722C13.117 15.401 14.163 14.89 15 14.685C15.438 14.578 15.984 14.515 16.49 14.477C17.32 14.415 18 13.744 18 12.911V7.45C18 6.644 17.362 5.981 16.557 6.02C15.941 6.051 15.24 6.12 14.7 6.27C13.969 6.473 13.075 6.95 12.522 7.27L12.5 7.282V15.726Z" fill="var(--fill-0, #ADDC91)"/>
</g>
</svg>
