<svg preserveAspectRatio="none" width="100%" height="100%" overflow="visible" style="display: block;" viewBox="0 0 23 23" fill="none" xmlns="http://www.w3.org/2000/svg">
<g id="Notification">
<g id="Group">
<path id="Vector" d="M11.7699 3.19383C11.8224 3.21125 11.8762 3.17125 11.8737 3.11602C11.8159 1.84762 10.8006 1 9.68877 1C8.57014 1 7.56174 1.85852 7.50389 3.1168C7.50135 3.17203 7.55518 3.21203 7.6076 3.19461C8.88943 2.76809 10.5104 2.775 11.7699 3.19383Z" fill="var(--fill-0, #354CB5)"/>
<path id="Vector_2" d="M17.5688 15.6901C16.5329 14.8022 15.9388 13.5104 15.9388 12.1463V11.6195C15.9388 11.5698 15.8933 11.5334 15.8446 11.5432C13.1913 12.0746 10.6263 10.0313 10.6263 7.24907C10.6263 5.36012 11.6617 4.34864 11.9959 4.06184C12.0403 4.02375 12.0288 3.95184 11.9744 3.93028C7.92588 2.32395 3.43877 5.3084 3.43877 9.74907V12.1463C3.43877 13.4829 2.86467 14.7854 1.80869 15.6901C1.63447 15.8393 1.49229 16.028 1.39736 16.235C0.911348 17.2914 1.6874 18.4991 2.84814 18.4991H16.5015C17.3438 18.4991 18.0624 17.8574 18.1222 17.0172C18.1599 16.4867 17.9338 16.0027 17.5688 15.6901Z" fill="var(--fill-0, #354CB5)"/>
<path id="Vector_3" d="M9.68686 21C10.8467 21 11.8447 20.2944 12.2741 19.2898C12.3074 19.2118 12.2517 19.125 12.1669 19.125H7.20679C7.12198 19.125 7.06632 19.2118 7.09964 19.2898C7.52901 20.2944 8.52706 21 9.68686 21Z" fill="var(--fill-0, #354CB5)"/>
<path id="Vector_4" d="M16.5 15C20.107 15 23 12.0797 23 8.5C23 4.9162 20.0838 2 16.5 2C12.8959 2 10 4.92696 10 8.5C10 12.0838 12.9162 15 16.5 15ZM15.6591 6.81813C15.3909 6.95151 15.0659 6.84318 14.9319 6.57573C14.7985 6.30828 14.9068 5.9826 15.1743 5.84854L16.2576 5.30687C16.6151 5.12812 17.0417 5.38657 17.0417 5.79167V10.599C17.0417 10.6363 17.072 10.6667 17.1094 10.6667H17.5649C17.8535 10.6667 18.1054 10.8846 18.1238 11.1725C18.1441 11.488 17.8945 11.75 17.5833 11.75H15.4351C15.1465 11.75 14.8946 11.5321 14.8762 11.2442C14.8559 10.9286 15.1055 10.6667 15.4167 10.6667H15.8906C15.928 10.6667 15.9583 10.6363 15.9583 10.599V6.77757C15.9583 6.72719 15.9052 6.69442 15.8602 6.71704L15.6591 6.81813Z" fill="var(--fill-0, #EF4444)"/>
</g>
<circle id="Ellipse 24838" cx="16.5" cy="8.5" r="6.25" stroke="var(--stroke-0, white)" stroke-width="0.5"/>
</g>
</svg>
