<svg preserveAspectRatio="none" width="100%" height="100%" overflow="visible" style="display: block;" viewBox="0 0 28 28" fill="none" xmlns="http://www.w3.org/2000/svg">
<g id="solar:notebook-minimalistic-bold-duotone">
<path id="Vector" opacity="0.25" fill-rule="evenodd" clip-rule="evenodd" d="M2.33333 18.8347V5.831C2.33333 4.55 3.367 3.50933 4.64567 3.5875C5.7855 3.6575 7.13183 3.79633 8.16667 4.06933C9.39167 4.39133 10.8453 5.07967 11.9957 5.68867C12.6131 6.01239 13.3031 6.17264 14 6.15417V23.8875C13.3376 23.8878 12.6853 23.7252 12.1007 23.4138C10.934 22.7932 9.429 22.0722 8.16667 21.7397C7.1435 21.469 5.81467 21.3313 4.68417 21.2602C3.39033 21.1785 2.33333 20.132 2.33333 18.8347Z" fill="var(--fill-0, #1E3A8A)"/>
<path id="Vector_2" d="M25.6667 18.8347V5.75633C25.6667 4.5045 24.6797 3.47783 23.429 3.521C22.1118 3.56767 20.4715 3.703 19.25 4.06933C18.1907 4.3855 16.9575 5.02133 15.953 5.6035C15.3587 5.94846 14.687 6.13786 14 6.15417V23.8875C14.6533 23.8875 15.3078 23.7288 15.8993 23.4138C17.066 22.7932 18.571 22.0722 19.8333 21.7397C20.8565 21.469 22.1853 21.3313 23.3158 21.2602C24.6097 21.1785 25.6667 20.132 25.6667 18.8347Z" fill="var(--fill-0, #1E3A8A)"/>
</g>
</svg>
