<svg preserveAspectRatio="none" width="100%" height="100%" overflow="visible" style="display: block;" viewBox="0 0 28 28" fill="none" xmlns="http://www.w3.org/2000/svg">
<g id="solar:settings-bold-duotone">
<path id="Vector_inner" opacity="0.25" d="M14 18C16.2091 18 18 16.2091 18 14C18 11.7909 16.2091 10 14 10C11.7909 10 10 11.7909 10 14C10 16.2091 11.7909 18 14 18Z" fill="var(--fill-0, #10069F)"/>
<path id="Vector_outer" fill-rule="evenodd" clip-rule="evenodd" d="M14 2C13.0609 2 12.1603 2.37368 11.4947 3.03927C10.8291 3.70486 10.4554 4.60544 10.4554 5.54455C10.4554 5.92215 10.2568 6.27139 9.9329 6.46328L8.71887 7.18182C8.38883 7.37731 7.97858 7.37402 7.64571 7.17332L6.47192 6.46555C5.66014 5.97607 4.6611 6.01258 3.88607 6.56003C3.11105 7.10748 2.68652 8.07409 2.78772 9.06173L2.9348 10.4991C2.98188 10.9592 2.76634 11.4014 2.38426 11.6601L1.24823 12.4287C0.443722 12.973 0 13.9168 0 14.9213C0 15.9257 0.443722 16.8695 1.24823 17.4138L2.38426 18.1824C2.76634 18.4411 2.98188 18.8833 2.9348 19.3434L2.78772 20.7808C2.68652 21.7684 3.11105 22.735 3.88607 23.2825C4.6611 23.8299 5.66014 23.8664 6.47192 23.3769L7.64571 22.6692C7.97858 22.4685 8.38883 22.4652 8.71887 22.6607L9.9329 23.3792C10.2568 23.5711 10.4554 23.9204 10.4554 24.298V25.7355C10.4554 26.6746 10.8291 27.5752 11.4947 28.2407C12.1603 28.9063 13.0609 29.28 14 29.28C14.9391 29.28 15.8397 28.9063 16.5053 28.2407C17.1709 27.5752 17.5446 26.6746 17.5446 25.7355V24.298C17.5446 23.9204 17.7432 23.5711 18.0671 23.3792L19.2811 22.6607C19.6112 22.4652 20.0214 22.4685 20.3543 22.6692L21.5281 23.3769C22.3399 23.8664 23.3389 23.8299 24.1139 23.2825C24.889 22.735 25.3135 21.7684 25.2123 20.7808L25.0652 19.3434C25.0181 18.8833 25.2337 18.4411 25.6157 18.1824L26.7518 17.4138C27.5563 16.8695 28 15.9257 28 14.9213C28 13.9213 27.5563 12.973 26.7518 12.4287L25.6157 11.6601C25.2337 11.4014 25.0181 10.9592 25.0652 10.4991L25.2123 9.06173C25.3135 8.07409 24.889 7.10748 24.1139 6.56003C23.3389 6.01258 22.3399 5.97607 21.5281 6.46555L20.3543 7.17332C20.0214 7.37402 19.6112 7.37731 19.2811 7.18182L18.0671 6.46328C17.7432 6.27139 17.5446 5.92215 17.5446 5.54455C17.5446 4.60544 17.1709 3.70486 16.5053 3.03927C15.8397 2.37368 14.9391 2 14 2ZM14 20C17.3137 20 20 17.3137 20 14C20 10.6863 17.3137 8 14 8C10.6863 8 8 10.6863 8 14C8 17.3137 10.6863 20 14 20Z" fill="var(--fill-0, #10069F)"/>
</g>
</svg>
